<svg xmlns="http://www.w3.org/2000/svg" xmlns:xlink="http://www.w3.org/1999/xlink" width="284" height="240" viewBox="0 0 284 240">
  <defs>
    <clipPath id="clip-path">
      <rect id="사각형_2327" data-name="사각형 2327" width="284" height="240" transform="translate(515 1220)" fill="#e6e6e6"/>
    </clipPath>
  </defs>
  <g id="마스크_그룹_7" data-name="마스크 그룹 7" transform="translate(-515 -1220)" clip-path="url(#clip-path)">
    <g id="그룹_3328" data-name="그룹 3328" transform="translate(1364.688 1302.682)">
      <path id="패스_6533" data-name="패스 6533" d="M-779.276-4.686-839.3-45.536V10H-838l58.542-11.831A2.868,2.868,0,0,1-779.276-4.686Z" transform="translate(30.11 113.692)" fill="none"/>
      <path id="패스_6534" data-name="패스 6534" d="M-817.707-35.728a14.577,14.577,0,0,0-5.005,1.357l6.172-1.249C-816.938-35.645-817.335-35.674-817.707-35.728Z" transform="translate(82.147 144.457)" fill="none"/>
      <path id="패스_6535" data-name="패스 6535" d="M-775.439,25.149a49.112,49.112,0,0,0,49.114-49.119,49.116,49.116,0,0,0-49.114-49.115,49.121,49.121,0,0,0-49.123,49.115A49.116,49.116,0,0,0-775.439,25.149Zm.124-90.465a41.609,41.609,0,0,1,41.607,41.6,41.615,41.615,0,0,1-41.607,41.611,41.611,41.611,0,0,1-41.6-41.611A41.6,41.6,0,0,1-775.315-65.315Z" transform="translate(76.348 27.283)" fill="none"/>
      <path id="패스_6536" data-name="패스 6536" d="M-655.578-15.309a9.242,9.242,0,0,0-5.213-5.178,15.848,15.848,0,0,0-6-1.071,20.766,20.766,0,0,0-3.825.341,26.126,26.126,0,0,0-3.186.441c-1.126.214-2.2.425-2.949.506l-.127.013-27.241,6.122a11.292,11.292,0,0,0-2.939-5.846,10.85,10.85,0,0,0-7.873-3.367h.019l-42.6-.149h-.007a10.6,10.6,0,0,1-2.592-.418,10.629,10.629,0,0,1-2.443-.964l-20.477-12.185.016.013a14.882,14.882,0,0,0-3.555-1.434,15,15,0,0,0-3.792-.584h-23.9a2.238,2.238,0,0,0-1.833-1,2.269,2.269,0,0,0-2.271,2.271V19.754a1.08,1.08,0,0,1-1.061,1.058h-25.635a1.081,1.081,0,0,1-1.057-1.058v-65.18a1.079,1.079,0,0,1,1.057-1.058h25.635a1.078,1.078,0,0,1,1.061,1.058,2.271,2.271,0,0,0,2.271,2.271,2.271,2.271,0,0,0,2.271-2.271,5.61,5.61,0,0,0-5.6-5.6h-25.635a5.606,5.606,0,0,0-5.6,5.6v65.18a5.611,5.611,0,0,0,5.6,5.6h25.635a5.612,5.612,0,0,0,5.6-5.6V14.878h3.387a22.681,22.681,0,0,1,5.768.938l46.738,15.649a13.66,13.66,0,0,0,4.185.6,12.95,12.95,0,0,0,3.523-.438l.058-.016,81.612-28.561A51.476,51.476,0,0,0-662.105.6l.139-.068.127-.081a18.614,18.614,0,0,0,3.484-3.088,13.093,13.093,0,0,0,3.588-8.548A11.106,11.106,0,0,0-655.578-15.309Zm-7.984,11.39-.581.444-.052.036a48.851,48.851,0,0,1-5.719,2.154l-.061.019-81.534,28.532a8.8,8.8,0,0,1-2.235.253,9.4,9.4,0,0,1-2.741-.36L-803.226,11.51h0a26.463,26.463,0,0,0-7.212-1.174h-3.387V-34.523h23.458a10.6,10.6,0,0,1,2.592.418,10.627,10.627,0,0,1,2.443.963l20.457,12.172,0,0a14.961,14.961,0,0,0,3.556,1.431,15,15,0,0,0,3.792.584h-.023l42.6.149h.01a6.277,6.277,0,0,1,4.594,1.966,6.764,6.764,0,0,1,1.869,4.675,6.159,6.159,0,0,1-1.937,4.47,6.906,6.906,0,0,1-4.8,1.9h-39.283a7.016,7.016,0,0,1-1.233-.117l-.234-.042-.237.01A15.122,15.122,0,0,0-763.2-3.75L-766.133-1.8a2.216,2.216,0,0,0-.613.616,2.25,2.25,0,0,0-.14,2.238,2.591,2.591,0,0,0,.123.3,2.265,2.265,0,0,0,3.146.629l2.93-1.95h0A5.194,5.194,0,0,1-760-.334,11.431,11.431,0,0,1-756.076-1.4c.292.042.6.065.915.084.23.016.435.065.675.065H-715.2a11.437,11.437,0,0,0,7.941-3.163,10.784,10.784,0,0,0,2.942-5.022l28.311-6.362v0c1-.123,2.041-.324,3.049-.513a19.759,19.759,0,0,1,2.793-.393l.192-.01.191-.039.026-.006a16.981,16.981,0,0,1,2.968-.253,11.406,11.406,0,0,1,4.256.717,4.667,4.667,0,0,1,2.735,2.663,6.524,6.524,0,0,1,.49,2.449,8.624,8.624,0,0,1-2.449,5.541A15.31,15.31,0,0,1-663.562-3.919Z" transform="translate(41.131 118.211)"/>
      <path id="패스_6538" data-name="패스 6538" d="M-836.061-30.195a4.986,4.986,0,0,0-4.991-4.985,4.99,4.99,0,0,0-4.991,4.985,5,5,0,0,0,4.991,5A4.994,4.994,0,0,0-836.061-30.195Zm-4.991,2.276a2.28,2.28,0,0,1-2.271-2.276,2.276,2.276,0,0,1,2.271-2.266,2.274,2.274,0,0,1,2.271,2.266A2.278,2.278,0,0,1-841.052-27.918Z" transform="translate(44.771 158.304)"/>
      <path id="패스_6539" data-name="패스 6539" d="M-798.642-51.467a48.266,48.266,0,0,0-4.021-8.939,41.252,41.252,0,0,0-6.929-9.047l-.012-.008-.033-.046c-.778-.112-1.564-.207-2.358-.265v18.3Z" transform="translate(115.766 37.672)" fill="#fff"/>
      <path id="패스_6540" data-name="패스 6540" d="M-801.2-63.947h-15.173a46.566,46.566,0,0,0-.906,9.072,53.123,53.123,0,0,0,1.837,13.494H-801.2Z" transform="translate(99.183 55.943)" fill="#fff"/>
      <path id="패스_6541" data-name="패스 6541" d="M-809.031-69c.567.831,1.138,1.7,1.717,2.664a53.74,53.74,0,0,1,5.444,12.46h9.15a35.8,35.8,0,0,0-5.986-7.955A36,36,0,0,0-809.031-69Z" transform="translate(125.063 40.084)" fill="#fff"/>
      <path id="패스_6542" data-name="패스 6542" d="M-811.692-54.224a53.743,53.743,0,0,1,5.44-12.46q.707-1.173,1.407-2.209a35.83,35.83,0,0,0-9.391,6.714,35.823,35.823,0,0,0-5.99,7.955Z" transform="translate(89.948 40.429)" fill="#fff"/>
      <path id="패스_6543" data-name="패스 6543" d="M-803.038-51.48V-69.768c-.934.079-1.853.211-2.763.36l-.033.025-.393.385c-.348.352-.865.894-1.489,1.613a45.813,45.813,0,0,0-4.637,6.428A47.946,47.946,0,0,0-816.7-51.48Z" transform="translate(101.018 37.685)" fill="#fff"/>
      <path id="패스_6544" data-name="패스 6544" d="M-808.771-41.382a57.794,57.794,0,0,1-1.655-13.494,52.855,52.855,0,0,1,.8-9.072h-9.742a35.688,35.688,0,0,0-1.944,11.57,35.738,35.738,0,0,0,1.733,11Z" transform="translate(86.536 55.943)" fill="#fff"/>
      <path id="패스_6545" data-name="패스 6545" d="M-811.995-41.382h13.94a53.12,53.12,0,0,0,1.837-13.494,46.923,46.923,0,0,0-.9-9.072h-14.875Z" transform="translate(115.766 55.943)" fill="#fff"/>
      <path id="패스_6546" data-name="패스 6546" d="M-811.995-57.091V-38.2c.716-.054,1.419-.132,2.118-.228a83.468,83.468,0,0,0,9.961-18.66Z" transform="translate(115.766 77.448)" fill="#fff"/>
      <path id="패스_6547" data-name="패스 6547" d="M-804.007-38.22V-57.091h-12.381A83.167,83.167,0,0,0-806.5-38.538C-805.674-38.41-804.851-38.29-804.007-38.22Z" transform="translate(101.987 77.448)" fill="#fff"/>
      <path id="패스_6548" data-name="패스 6548" d="M-806.325-63.947a52.4,52.4,0,0,1,.8,9.072,57.8,57.8,0,0,1-1.655,13.494h11.426a35.739,35.739,0,0,0,1.733-11,35.69,35.69,0,0,0-1.944-11.57Z" transform="translate(130.866 55.943)" fill="#fff"/>
      <path id="패스_6549" data-name="패스 6549" d="M-801.663-57.091a82.309,82.309,0,0,1-7.8,16.48,35.84,35.84,0,0,0,12.121-7.947,36.058,36.058,0,0,0,6.3-8.534Z" transform="translate(123.702 77.448)" fill="#fff"/>
      <path id="패스_6550" data-name="패스 6550" d="M-814-48.557A35.921,35.921,0,0,0-802.672-40.9,82.625,82.625,0,0,1-810.3-57.091h-10A35.954,35.954,0,0,0-814-48.557Z" transform="translate(89.71 77.448)" fill="#fff"/>
      <path id="패스_6551" data-name="패스 6551" d="M-787.287-.349a35.437,35.437,0,0,0,35.43-35.434,35.433,35.433,0,0,0-35.43-35.423,35.428,35.428,0,0,0-35.427,35.423A35.434,35.434,0,0,0-787.287-.349ZM-803.579-37.91a39.66,39.66,0,0,1,.771-7.725h12.921v19.216h-12.128A45.231,45.231,0,0,1-803.579-37.91Zm9.708-26.2c.532-.613.972-1.074,1.268-1.374l.335-.328.028-.021c.775-.127,1.557-.24,2.353-.306v15.573h-11.631a40.836,40.836,0,0,1,3.7-8.07A39.007,39.007,0,0,1-793.871-64.111Zm10.924-1.818.028.039.01.007a35.125,35.125,0,0,1,5.9,7.7,41.1,41.1,0,0,1,3.424,7.612h-11.371V-66.155C-784.279-66.105-783.609-66.024-782.947-65.929ZM-771.52-37.91a45.239,45.239,0,0,1-1.564,11.491h-11.871V-45.635h12.667A39.958,39.958,0,0,1-771.52-37.91ZM-784.955-5.4V-21.484h10.286a71.077,71.077,0,0,1-8.482,15.891C-783.747-5.513-784.346-5.446-784.955-5.4Zm-4.932-16.084v16.07c-.718-.06-1.419-.162-2.12-.271a70.825,70.825,0,0,1-8.423-15.8ZM-799.2-7.7a30.589,30.589,0,0,1-9.645-6.517,30.614,30.614,0,0,1-5.368-7.267h8.514A70.353,70.353,0,0,0-799.2-7.7Zm23.161.25A70.091,70.091,0,0,0-769.4-21.484h9.046a30.707,30.707,0,0,1-5.368,7.267A30.519,30.519,0,0,1-776.043-7.45Zm17.775-18.969H-768a49.224,49.224,0,0,0,1.409-11.491,44.622,44.622,0,0,0-.68-7.725h8.821a30.393,30.393,0,0,1,1.655,9.853A30.434,30.434,0,0,1-758.268-26.419Zm-10.149-24.148a45.765,45.765,0,0,0-4.636-10.61c-.493-.817-.979-1.561-1.462-2.269a30.655,30.655,0,0,1,8.793,6.1,30.484,30.484,0,0,1,5.1,6.774Zm-32.436-12.491q-.6.882-1.2,1.881a45.768,45.768,0,0,0-4.632,10.61h-7.267a30.5,30.5,0,0,1,5.1-6.774A30.508,30.508,0,0,1-800.853-63.058Zm-15.274,17.423h8.3a45.016,45.016,0,0,0-.68,7.725A49.228,49.228,0,0,0-807.1-26.419h-9.2a30.434,30.434,0,0,1-1.476-9.363A30.391,30.391,0,0,1-816.127-45.635Z" transform="translate(88.32 39.35)"/>
      <path id="패스_6552" data-name="패스 6552" d="M-811.4,8.165a56.9,56.9,0,0,0,7.363,18.081l-12.253,13.841c1.084,1.481,2.234,2.912,3.417,4.31A75.465,75.465,0,0,0-800.2,56.175l13.713-12.149a56.853,56.853,0,0,0,18.243,7.7l1.1,18.176a76.388,76.388,0,0,0,11.376.856A76.348,76.348,0,0,0-744.4,69.9l1.1-18.036a57.057,57.057,0,0,0,18.5-7.6l13.461,11.914A75.556,75.556,0,0,0-695.26,40.088L-706.317,27.6l-.852-.96a57.056,57.056,0,0,0,7.636-18.507l17.957-1.092A76.033,76.033,0,0,0-680.728-4.3a75.873,75.873,0,0,0-.857-11.417l-18.077-1.088a56.692,56.692,0,0,0-7.7-18.292l12.071-13.622a75.473,75.473,0,0,0-16.1-16.092l-13.75,12.182a56.779,56.779,0,0,0-18.135-7.392L-744.4-78.5a76.448,76.448,0,0,0-11.38-.856,76.345,76.345,0,0,0-11.376.856l-1.125,18.619a56.736,56.736,0,0,0-17.875,7.467l-14-12.406a75.558,75.558,0,0,0-16.1,16.087l12.423,14.015a57,57,0,0,0-7.446,17.866l-18.689,1.133a75.784,75.784,0,0,0-.86,11.413,76.032,76.032,0,0,0,.852,11.343Zm55.622-61.582a49.141,49.141,0,0,1,32.283,12.1A48.826,48.826,0,0,1-706.661-4.3a49.112,49.112,0,0,1-49.114,49.119A49.116,49.116,0,0,1-804.9-4.3,49.121,49.121,0,0,1-755.775-53.417Z" transform="translate(56.684 7.617)" fill="#1baf92" stroke="#000" stroke-miterlimit="10" stroke-width="3.5"/>
      <g id="그룹_3324" data-name="그룹 3324" transform="translate(-789.224 -81.782)">
        <rect id="사각형_2325" data-name="사각형 2325" width="12.012" height="12.017" transform="translate(1.549 10.042) rotate(-45)" fill="#f7d979"/>
        <path id="패스_6553" data-name="패스 6553" d="M-824.429-61.689a1.547,1.547,0,0,1-1.1-.455l-8.5-8.5a1.566,1.566,0,0,1,0-2.2l8.493-8.488a1.546,1.546,0,0,1,2.193,0l8.5,8.488a1.558,1.558,0,0,1,0,2.2l-8.493,8.5A1.542,1.542,0,0,1-824.429-61.689Zm-6.3-10.052,6.3,6.308,6.3-6.3-6.3-6.3Z" transform="translate(834.476 81.782)"/>
      </g>
      <g id="그룹_3325" data-name="그룹 3325" transform="translate(-618.89 -41.755)">
        <path id="패스_6554" data-name="패스 6554" d="M-786.449-65.788h-4.782a2.064,2.064,0,0,1-2.068-2.068,2.067,2.067,0,0,1,2.068-2.068h4.782a2.069,2.069,0,0,1,2.068,2.068A2.067,2.067,0,0,1-786.449-65.788Z" transform="translate(793.299 78.947)" fill="#1baf92"/>
        <path id="패스_6555" data-name="패스 6555" d="M-783.235-65.788h-4.786a2.066,2.066,0,0,1-2.068-2.068,2.069,2.069,0,0,1,2.068-2.068h4.786a2.069,2.069,0,0,1,2.068,2.068A2.067,2.067,0,0,1-783.235-65.788Z" transform="translate(803.368 78.947)" fill="#1baf92"/>
        <path id="패스_6556" data-name="패스 6556" d="M-789.048-63.2a2.069,2.069,0,0,1-2.068-2.068v-4.774a2.066,2.066,0,0,1,2.068-2.068,2.067,2.067,0,0,1,2.069,2.068v4.774A2.069,2.069,0,0,1-789.048-63.2Z" transform="translate(800.146 72.106)" fill="#1baf92"/>
        <path id="패스_6557" data-name="패스 6557" d="M-789.048-59.976a2.069,2.069,0,0,1-2.068-2.068v-4.782a2.066,2.066,0,0,1,2.068-2.068,2.067,2.067,0,0,1,2.069,2.068v4.782A2.069,2.069,0,0,1-789.048-59.976Z" transform="translate(800.146 82.178)" fill="#1baf92"/>
      </g>
      <g id="그룹_3326" data-name="그룹 3326" transform="translate(-619.671 45.446)">
        <rect id="사각형_2326" data-name="사각형 2326" width="12.006" height="12.011" transform="translate(2.196 10.687) rotate(-45.027)" fill="#ffd66e"/>
        <path id="패스_6558" data-name="패스 6558" d="M-782.795-29.656l-10.693-10.685L-782.8-51.026l10.685,10.685Zm-6.3-10.685,6.3,6.3,6.292-6.3-6.3-6.3Z" transform="translate(793.488 51.026)"/>
      </g>
      <g id="그룹_3327" data-name="그룹 3327" transform="translate(-819.298 3.459)">
        <path id="패스_6559" data-name="패스 6559" d="M-834.9-54.856h-4.778a2.067,2.067,0,0,1-2.068-2.068,2.069,2.069,0,0,1,2.068-2.068h4.778a2.069,2.069,0,0,1,2.069,2.068A2.067,2.067,0,0,1-834.9-54.856Z" transform="translate(841.746 68.023)" fill="#1baf92"/>
        <path id="패스_6560" data-name="패스 6560" d="M-831.689-54.856h-4.778a2.067,2.067,0,0,1-2.068-2.068,2.069,2.069,0,0,1,2.068-2.068h4.778a2.069,2.069,0,0,1,2.068,2.068A2.067,2.067,0,0,1-831.689-54.856Z" transform="translate(851.818 68.023)" fill="#1baf92"/>
        <path id="패스_6561" data-name="패스 6561" d="M-837.494-52.257a2.069,2.069,0,0,1-2.068-2.068v-4.782a2.067,2.067,0,0,1,2.068-2.068,2.066,2.066,0,0,1,2.068,2.068v4.782A2.069,2.069,0,0,1-837.494-52.257Z" transform="translate(848.596 61.176)" fill="#1baf92"/>
        <path id="패스_6562" data-name="패스 6562" d="M-837.494-49.041a2.069,2.069,0,0,1-2.068-2.068V-55.9a2.069,2.069,0,0,1,2.068-2.068,2.069,2.069,0,0,1,2.068,2.068v4.786A2.069,2.069,0,0,1-837.494-49.041Z" transform="translate(848.596 71.251)" fill="#1baf92"/>
      </g>
    </g>
  </g>
</svg>
