<svg xmlns="http://www.w3.org/2000/svg" xmlns:xlink="http://www.w3.org/1999/xlink" width="284" height="240" viewBox="0 0 284 240">
  <defs>
    <clipPath id="clip-path">
      <rect id="사각형_2346" data-name="사각형 2346" width="284" height="240" transform="translate(1124 3476)" fill="#e6e6e6"/>
    </clipPath>
    <clipPath id="clip-path-2">
      <rect id="사각형_2090" data-name="사각형 2090" width="284" height="263" transform="translate(1165.764 1806.269)" fill="#c3c3c3"/>
    </clipPath>
  </defs>
  <g id="마스크_그룹_16" data-name="마스크 그룹 16" transform="translate(-1124 -3476)" clip-path="url(#clip-path)">
    <g id="그룹_3395" data-name="그룹 3395" transform="translate(2134.287 3542.615)">
      <g id="그룹_3393" data-name="그룹 3393" transform="translate(-812.72 -29.106)">
        <path id="패스_6745" data-name="패스 6745" d="M-786.573-65.863h-4.7a2.026,2.026,0,0,1-2.031-2.031,2.029,2.029,0,0,1,2.031-2.031h4.7a2.032,2.032,0,0,1,2.031,2.031A2.029,2.029,0,0,1-786.573-65.863Z" transform="translate(793.299 78.784)" fill="#1baf92"/>
        <path id="패스_6746" data-name="패스 6746" d="M-783.359-65.863h-4.7a2.029,2.029,0,0,1-2.031-2.031,2.032,2.032,0,0,1,2.031-2.031h4.7a2.031,2.031,0,0,1,2.031,2.031A2.029,2.029,0,0,1-783.359-65.863Z" transform="translate(803.127 78.784)" fill="#1baf92"/>
        <path id="패스_6747" data-name="패스 6747" d="M-789.085-63.357a2.031,2.031,0,0,1-2.031-2.031v-4.687a2.029,2.029,0,0,1,2.031-2.031,2.029,2.029,0,0,1,2.031,2.031v4.687A2.031,2.031,0,0,1-789.085-63.357Z" transform="translate(799.983 72.106)" fill="#1baf92"/>
        <path id="패스_6748" data-name="패스 6748" d="M-789.085-60.138a2.031,2.031,0,0,1-2.031-2.031v-4.7a2.029,2.029,0,0,1,2.031-2.031,2.029,2.029,0,0,1,2.031,2.031v4.7A2.031,2.031,0,0,1-789.085-60.138Z" transform="translate(799.983 81.937)" fill="#1baf92"/>
      </g>
      <g id="그룹_3397" data-name="그룹 3397" transform="translate(-997.287 20.894)">
        <path id="패스_6745-2" data-name="패스 6745" d="M-786.573-65.863h-4.7a2.026,2.026,0,0,1-2.031-2.031,2.029,2.029,0,0,1,2.031-2.031h4.7a2.032,2.032,0,0,1,2.031,2.031A2.029,2.029,0,0,1-786.573-65.863Z" transform="translate(793.299 78.784)" fill="#1baf92"/>
        <path id="패스_6746-2" data-name="패스 6746" d="M-783.359-65.863h-4.7a2.029,2.029,0,0,1-2.031-2.031,2.032,2.032,0,0,1,2.031-2.031h4.7a2.031,2.031,0,0,1,2.031,2.031A2.029,2.029,0,0,1-783.359-65.863Z" transform="translate(803.127 78.784)" fill="#1baf92"/>
        <path id="패스_6747-2" data-name="패스 6747" d="M-789.085-63.357a2.031,2.031,0,0,1-2.031-2.031v-4.687a2.029,2.029,0,0,1,2.031-2.031,2.029,2.029,0,0,1,2.031,2.031v4.687A2.031,2.031,0,0,1-789.085-63.357Z" transform="translate(799.983 72.106)" fill="#1baf92"/>
        <path id="패스_6748-2" data-name="패스 6748" d="M-789.085-60.138a2.031,2.031,0,0,1-2.031-2.031v-4.7a2.029,2.029,0,0,1,2.031-2.031,2.029,2.029,0,0,1,2.031,2.031v4.7A2.031,2.031,0,0,1-789.085-60.138Z" transform="translate(799.983 81.937)" fill="#1baf92"/>
      </g>
      <g id="그룹_3394" data-name="그룹 3394" transform="translate(-775.27 17.515)">
        <rect id="사각형_2372" data-name="사각형 2372" width="11.788" height="11.794" transform="translate(2.156 10.493) rotate(-45.027)" fill="#ffd66e"/>
        <path id="패스_6749" data-name="패스 6749" d="M-782.989-30.043l-10.5-10.491L-783-51.026l10.491,10.491Zm-6.19-10.491,6.19,6.182,6.178-6.182L-783-46.721Z" transform="translate(793.488 51.026)"/>
      </g>
      <g id="그룹_3396" data-name="그룹 3396" transform="translate(-949.488 129.403)">
        <rect id="사각형_2372-2" data-name="사각형 2372" width="11.788" height="11.794" transform="translate(2.156 10.493) rotate(-45.027)" fill="#ffd66e"/>
        <path id="패스_6749-2" data-name="패스 6749" d="M-782.989-30.043l-10.5-10.491L-783-51.026l10.491,10.491Zm-6.19-10.491,6.19,6.182,6.178-6.182L-783-46.721Z" transform="translate(793.488 51.026)"/>
      </g>
    </g>
    <g id="마스크_그룹_5" data-name="마스크 그룹 5" transform="translate(-41.764 1639.731)" clip-path="url(#clip-path-2)">
      <g id="그룹_3275" data-name="그룹 3275" transform="translate(1166.02 1872.869)">
        <path id="패스_6013" data-name="패스 6013" d="M74.027,113.735c.669.675,1.351,1.335,2,2.035C75.375,115.076,74.7,114.4,74.027,113.735Z" transform="translate(101.001 -87.568)" fill="#fff"/>
        <path id="패스_6014" data-name="패스 6014" d="M154.394,247.443a75.546,75.546,0,0,1-87.33-123.286A77.158,77.158,0,0,1,91.07,112.051l.213.206c.031.063.075.128.113.191a75.661,75.661,0,0,1,51.755,4.268c.166-.1.322-.184.45-.253a77.323,77.323,0,0,1,20.877,15.07c.675.669,1.348,1.341,2,2.035.516.56,1.032,1.116,1.532,1.688A75.23,75.23,0,0,1,186.9,181.919a2.176,2.176,0,0,0,1.229,1.838,2.152,2.152,0,0,0,1.054.253,2.188,2.188,0,0,0,2.092-2.282,79.928,79.928,0,1,0-131.7,64.365,2.812,2.812,0,0,0,2.461,4.937c.51-.138,1.022-.281,1.532-.425a2.793,2.793,0,0,0,1.032-.557,79.912,79.912,0,0,0,92.289.991,2.185,2.185,0,0,0,.55-3.045,2.129,2.129,0,0,0-.838-.685A2.16,2.16,0,0,0,154.394,247.443Z" transform="translate(10.551 -105.366)"/>
        <path id="패스_6015" data-name="패스 6015" d="M111.286,146.725a2.192,2.192,0,0,0-2.908,1.066l-.829,1.788L90.557,186.214a5.981,5.981,0,0,1-3.033,2.5l-7.876,2.195-.034.006v-.031l2.239-32.573a2.212,2.212,0,0,0-.1-.791,2.179,2.179,0,0,0-4.262.491L75.246,190.6v.009l-.013.338a4.455,4.455,0,0,0,1.176,3.092,4.177,4.177,0,0,0,3.055,1.279,5.158,5.158,0,0,0,1.36-.191l7.879-2.2h0a10.281,10.281,0,0,0,5.769-4.753l.016-.031,17.862-38.511A2.2,2.2,0,0,0,111.286,146.725Z" transform="translate(103.566 -17.842)"/>
        <path id="패스_6016" data-name="패스 6016" d="M119.261,154.036a19.015,19.015,0,0,0,1.826-1.207,77.313,77.313,0,0,0-14.667-25.119c-.5-.572-1.016-1.129-1.532-1.688-.647-.7-1.329-1.36-2-2.035a77.322,77.322,0,0,0-20.877-15.07c-.128.069-.285.153-.45.253-2.267,1.354-7.788,6.041-8.8,21.533-.181,2.711-7.773,2.967-8.1,5.168-.141,3.058,1.316,5.225,1.041,7.96-.325,3.239-3.677,3.07-4.84,5.731-1.495,3.433,1.491,2.576,3.117,4.74,1.929,2.567-.166,5.206.632,7.754.741,2.37,3.514,2.623,5.822,3.655,1,.45,3.915,3.689,5.184,4.29a3.2,3.2,0,0,0,2.373.153l-5.118-7.279a4.7,4.7,0,0,1-.879-2.67,4.043,4.043,0,0,1,.957-2.62,4.664,4.664,0,0,1,2.351-1.466l-.078.022,7.992-2.232-.041.013a8.374,8.374,0,0,1,2.217-.281,10.181,10.181,0,0,1,5.181,1.354l.031.019,27.38,18.419c-1.207-3.727-6.472-7-7.732-10C107.827,157.669,116.212,155.755,119.261,154.036Z" transform="translate(72.139 -97.819)" fill="#1baf92"/>
        <path id="패스_6017" data-name="패스 6017" d="M236.917,158.5a9.42,9.42,0,0,0-3.28-4.806,20.3,20.3,0,0,0-8.529-3.614,51.272,51.272,0,0,0-10.4-.969,62.337,62.337,0,0,0-15.571,1.851l.588,2.107-.588-2.107-30.9,8.626-17.187-11.565-7.448-5.012-27.38-18.419-.031-.019a10.181,10.181,0,0,0-5.181-1.354,8.372,8.372,0,0,0-2.217.281l.041-.012-7.992,2.232.078-.022a4.664,4.664,0,0,0-2.351,1.466,4.044,4.044,0,0,0-.957,2.62,4.7,4.7,0,0,0,.879,2.67l5.118,7.279,22.271,31.673-38.57,10.765L61.394,167.53l0,.006a9.852,9.852,0,0,0-4.931-1.273,8.045,8.045,0,0,0-2.154.272l-.116.034-2.548.71h0a4.565,4.565,0,0,0-2.3,1.438,3.975,3.975,0,0,0-.938,2.573,4.546,4.546,0,0,0,.857,2.608l-.009-.012,24.472,35.931.178-.238a15.727,15.727,0,0,0,4.493,3.33,19.208,19.208,0,0,0,8.458,1.842,26.232,26.232,0,0,0,7.01-1l28.534-7.964,85.395-23.831a83.757,83.757,0,0,0,17.772-7.376,35.42,35.42,0,0,0,7.97-5.95c2.114-2.223,3.68-4.837,3.7-7.86A8.437,8.437,0,0,0,236.917,158.5Zm-36.6-3.324h0a58.307,58.307,0,0,1,14.392-1.688,40.5,40.5,0,0,1,12.175,1.588,12.736,12.736,0,0,1,4,2.029,5.013,5.013,0,0,1,1.81,2.57,4.069,4.069,0,0,1,.153,1.094c.012,1.385-.782,3.055-2.489,4.843-2.529,2.673-6.863,5.331-11.359,7.451a82.228,82.228,0,0,1-12.388,4.677L92.689,209.533a21.757,21.757,0,0,1-5.834.841,14.848,14.848,0,0,1-6.535-1.4,11.265,11.265,0,0,1-4.64-4.149l-1.707-2.7-.1.131-20.97-30.788,2.583-.722h0a3.765,3.765,0,0,1,.972-.109,5.68,5.68,0,0,1,2.692.644l.044.031,27.546,15.561,46.287-12.919-30.941-44-.016-.028.025-.013.075-.019,7.76-2.167.05-.013a3.9,3.9,0,0,1,1.032-.119,6.088,6.088,0,0,1,2.858.685l53.6,36.069Z" transform="translate(46.515 -67.399)"/>
        <path id="패스_6018" data-name="패스 6018" d="M100,141.69a3.411,3.411,0,1,0-4.2-2.367A3.407,3.407,0,0,0,100,141.69Z" transform="translate(147.04 -42.363)"/>
        <path id="패스_6019" data-name="패스 6019" d="M95.921,142.829a3.412,3.412,0,1,0-4.205-2.367A3.408,3.408,0,0,0,95.921,142.829Z" transform="translate(138.351 -39.938)"/>
        <path id="패스_6020" data-name="패스 6020" d="M91.833,143.975a3.413,3.413,0,1,0-4.205-2.37A3.415,3.415,0,0,0,91.833,143.975Z" transform="translate(129.66 -37.513)"/>
        <path id="패스_6021" data-name="패스 6021" d="M85.911,138.541a3.412,3.412,0,1,0,4.208,2.367A3.406,3.406,0,0,0,85.911,138.541Z" transform="translate(120.969 -35.087)"/>
        <path id="패스_6022" data-name="패스 6022" d="M81.826,139.68a3.413,3.413,0,1,0,4.205,2.37A3.415,3.415,0,0,0,81.826,139.68Z" transform="translate(112.278 -32.662)"/>
        <path id="패스_6023" data-name="패스 6023" d="M77.74,140.82a3.413,3.413,0,1,0,4.2,2.37A3.412,3.412,0,0,0,77.74,140.82Z" transform="translate(103.589 -30.237)"/>
        <path id="패스_6024" data-name="패스 6024" d="M77.858,144.332a3.413,3.413,0,1,0-2.37,4.205A3.41,3.41,0,0,0,77.858,144.332Z" transform="translate(94.897 -27.811)"/>
        <path id="패스_6025" data-name="패스 6025" d="M69.565,143.1a3.414,3.414,0,1,0,4.205,2.37A3.417,3.417,0,0,0,69.565,143.1Z" transform="translate(86.206 -25.386)"/>
        <path id="패스_6026" data-name="패스 6026" d="M27.83,151.657c-.482-.119-.954-.241-1.416-.372a2.814,2.814,0,1,0-1.523,5.418q.788.22,1.607.422a2.814,2.814,0,1,0,1.332-5.468Z" transform="translate(-7.858 -7.938)"/>
        <path id="패스_6027" data-name="패스 6027" d="M26.81,141.572a2.815,2.815,0,0,0-3.98-.056q-.6.577-1.163,1.157a2.815,2.815,0,0,0,4.03,3.93q.511-.525,1.054-1.051A2.818,2.818,0,0,0,26.81,141.572Z" transform="translate(-12.047 -30.182)"/>
        <path id="패스_6028" data-name="패스 6028" d="M24.26,150.3a2.813,2.813,0,1,0-3.5,4.409c.46.366.944.719,1.448,1.054a2.813,2.813,0,1,0,3.127-4.677C24.957,150.826,24.6,150.564,24.26,150.3Z" transform="translate(-14.537 -11.11)"/>
        <path id="패스_6029" data-name="패스 6029" d="M30.839,151.895c-.507-.031-1.01-.069-1.5-.113a2.815,2.815,0,1,0-.475,5.609c.532.047,1.072.084,1.613.119a2.814,2.814,0,1,0,.366-5.615Z" transform="translate(-0.533 -6.678)"/>
        <path id="패스_6030" data-name="패스 6030" d="M23.671,149.358a2.815,2.815,0,0,0-5.619.36,15.133,15.133,0,0,0,.247,1.91,2.815,2.815,0,0,0,5.525-1.079A8.8,8.8,0,0,1,23.671,149.358Z" transform="translate(-18.047 -17.408)"/>
        <path id="패스_6031" data-name="패스 6031" d="M40.483,150.954c-.5.106-1.007.213-1.5.313a2.813,2.813,0,0,0,1.113,5.515c.519-.1,1.038-.213,1.557-.322a2.814,2.814,0,1,0-1.166-5.506Z" transform="translate(21.665 -8.548)"/>
        <path id="패스_6032" data-name="패스 6032" d="M25.937,139.019q-.661.474-1.3.954a2.814,2.814,0,0,0,3.374,4.505q.6-.45,1.219-.9a2.814,2.814,0,0,0-3.3-4.562Z" transform="translate(-6.427 -34.933)"/>
        <path id="패스_6033" data-name="패스 6033" d="M37.252,151.522c-.51.069-1.016.138-1.52.2a2.814,2.814,0,0,0,.7,5.584c.525-.066,1.051-.134,1.582-.206a2.815,2.815,0,0,0-.763-5.578Z" transform="translate(14.322 -7.265)"/>
        <path id="패스_6034" data-name="패스 6034" d="M29.177,136.968q-.7.4-1.382.81a2.814,2.814,0,0,0,2.883,4.834c.435-.256.875-.516,1.316-.772a2.814,2.814,0,0,0-2.817-4.871Z" transform="translate(-0.235 -38.966)"/>
        <path id="패스_6035" data-name="패스 6035" d="M20.267,150.084a2.815,2.815,0,0,0,3.8-1.179q.319-.605.691-1.219a2.815,2.815,0,1,0-4.824-2.9q-.45.746-.844,1.5A2.813,2.813,0,0,0,20.267,150.084Z" transform="translate(-16.519 -24.44)"/>
        <path id="패스_6036" data-name="패스 6036" d="M34.019,151.828c-.513.025-1.019.047-1.523.066a2.814,2.814,0,0,0,.2,5.625c.532-.019,1.063-.044,1.6-.069a2.814,2.814,0,1,0-.275-5.622Z" transform="translate(6.905 -6.565)"/>
        <path id="패스_6037" data-name="패스 6037" d="M33.552,140.986c.456-.225.919-.447,1.382-.666a2.815,2.815,0,0,0-2.417-5.084c-.482.231-.96.46-1.435.694a2.813,2.813,0,0,0,2.47,5.056Z" transform="translate(6.315 -42.426)"/>
        <path id="패스_6038" data-name="패스 6038" d="M46.828,149.155c-.482.172-.966.338-1.451.506a2.814,2.814,0,1,0,1.82,5.325q.75-.258,1.5-.522a2.814,2.814,0,0,0-1.87-5.309Z" transform="translate(36.021 -12.583)"/>
        <path id="패스_6039" data-name="패스 6039" d="M52.836,146.552c-.453.234-.907.466-1.366.7a2.814,2.814,0,1,0,2.536,5.024q.718-.361,1.42-.725a2.814,2.814,0,1,0-2.589-5Z" transform="translate(49.742 -18.453)"/>
        <path id="패스_6040" data-name="패스 6040" d="M49.889,147.953v0c-.466.2-.938.4-1.413.6a2.813,2.813,0,0,0,2.164,5.193c.494-.2.979-.41,1.463-.619a2.814,2.814,0,1,0-2.214-5.175Z" transform="translate(42.981 -15.281)"/>
        <path id="패스_6041" data-name="패스 6041" d="M82.734,107.5a77.752,77.752,0,0,0-47.319,40.174c1.523,2.9,3.277,7.216,7.591,5.841,3.908-1.251,2.586-6.181,4.828-8.67,1.795-2,9.414-.769,7.129-5.334-.947-1.889-2.686-1.1-2.042-3.824.36-1.532,1.8-3.055,3-4.127a10.594,10.594,0,0,1,10.252-1.729c3.546,1.313,4.474,4.806,8.889,4.137,1.076-.159,4.684-.35,5.106-1.57.447-1.288-2.242-3.239-2.751-4.4-1.616-3.714-.241-7.21,1.76-10.068,2.151-.919,5.637-.691,6.316-3.1.775-2.742-1.266-4.884-2.429-6.935-.038-.063-.081-.128-.113-.191Z" transform="translate(18.888 -100.819)" fill="#1baf92"/>
      </g>
    </g>
  </g>
</svg>
