<svg xmlns="http://www.w3.org/2000/svg" xmlns:xlink="http://www.w3.org/1999/xlink" width="284" height="240" viewBox="0 0 284 240">
  <defs>
    <clipPath id="clip-path">
      <rect id="사각형_2330" data-name="사각형 2330" width="284" height="240" transform="translate(1118 1220)" fill="#e6e6e6"/>
    </clipPath>
  </defs>
  <g id="마스크_그룹_8" data-name="마스크 그룹 8" transform="translate(-1118 -1220)" clip-path="url(#clip-path)">
    <g id="그룹_3420" data-name="그룹 3420" transform="translate(1831.501 1312.305)">
      <g id="그룹_3398" data-name="그룹 3398" transform="translate(-480.042 -30.848)">
        <path id="패스_6750" data-name="패스 6750" d="M-620.456-58.969h-3.12a1.349,1.349,0,0,1-1.348-1.348,1.347,1.347,0,0,1,1.348-1.348h3.12a1.347,1.347,0,0,1,1.348,1.348A1.349,1.349,0,0,1-620.456-58.969Z" transform="translate(624.924 67.553)" fill="#1baf92"/>
        <path id="패스_6751" data-name="패스 6751" d="M-617.25-58.969h-3.114a1.349,1.349,0,0,1-1.348-1.348,1.347,1.347,0,0,1,1.348-1.348h3.114a1.347,1.347,0,0,1,1.348,1.348A1.349,1.349,0,0,1-617.25-58.969Z" transform="translate(630.372 67.553)" fill="#1baf92"/>
        <path id="패스_6752" data-name="패스 6752" d="M-621.393-58.036a1.347,1.347,0,0,1-1.348-1.348V-62.5a1.349,1.349,0,0,1,1.348-1.348,1.349,1.349,0,0,1,1.348,1.348v3.117A1.347,1.347,0,0,1-621.393-58.036Z" transform="translate(628.627 63.849)" fill="#1baf92"/>
        <path id="패스_6753" data-name="패스 6753" d="M-621.393-54.824a1.347,1.347,0,0,1-1.348-1.348v-3.117a1.349,1.349,0,0,1,1.348-1.348,1.349,1.349,0,0,1,1.348,1.348v3.117A1.347,1.347,0,0,1-621.393-54.824Z" transform="translate(628.627 69.297)" fill="#1baf92"/>
      </g>
      <g id="그룹_3399" data-name="그룹 3399" transform="translate(-671.779 96.129)">
        <path id="패스_6754" data-name="패스 6754" d="M-691.573-11.874h-3.117a1.347,1.347,0,0,1-1.348-1.348,1.35,1.35,0,0,1,1.348-1.348h3.117a1.349,1.349,0,0,1,1.348,1.348A1.345,1.345,0,0,1-691.573-11.874Z" transform="translate(696.038 20.458)" fill="#1baf92"/>
        <path id="패스_6755" data-name="패스 6755" d="M-688.367-11.874h-3.111a1.345,1.345,0,0,1-1.348-1.348,1.349,1.349,0,0,1,1.348-1.348h3.111a1.349,1.349,0,0,1,1.348,1.348A1.345,1.345,0,0,1-688.367-11.874Z" transform="translate(701.486 20.458)" fill="#1baf92"/>
        <path id="패스_6756" data-name="패스 6756" d="M-692.506-10.944a1.345,1.345,0,0,1-1.348-1.348v-3.114a1.349,1.349,0,0,1,1.348-1.348,1.35,1.35,0,0,1,1.348,1.348v3.114A1.347,1.347,0,0,1-692.506-10.944Z" transform="translate(699.743 16.754)" fill="#1baf92"/>
        <path id="패스_6757" data-name="패스 6757" d="M-692.506-7.727a1.349,1.349,0,0,1-1.348-1.348v-3.12a1.345,1.345,0,0,1,1.348-1.348,1.347,1.347,0,0,1,1.348,1.348v3.12A1.35,1.35,0,0,1-692.506-7.727Z" transform="translate(699.743 22.2)" fill="#1baf92"/>
      </g>
      <path id="패스_6758" data-name="패스 6758" d="M-594.093,126.724l0-2.7c1.793-.005,3.572-.051,5.341-.148l.148,2.691Q-591.332,126.72-594.093,126.724Zm-5.489-.143q-2.754-.142-5.471-.431l.286-2.68q2.641.275,5.325.421Zm16.447-.456-.288-2.68c1.779-.191,3.543-.434,5.3-.717l.434,2.658Q-580.392,125.828-583.135,126.126Zm-27.361-.706q-2.722-.441-5.392-1.022l.572-2.634q2.6.562,5.252.995Zm38.194-1.065-.58-2.631q2.62-.578,5.187-1.291l.72,2.6Q-569.611,123.764-572.3,124.354Zm-48.92-1.27q-2.657-.732-5.252-1.6l.857-2.556q2.528.849,5.112,1.561Zm59.5-1.672-.863-2.553q2.536-.857,5.015-1.844l1,2.5Q-559.116,120.534-561.725,121.413Zm-69.915-1.823c-1.709-.679-3.394-1.407-5.055-2.17l1.13-2.448q2.426,1.12,4.921,2.111Zm80.1-2.243-1.138-2.451c1.618-.747,3.211-1.542,4.778-2.373l1.267,2.378Q-549.05,116.191-551.539,117.347Zm-90.083-2.37q-2.435-1.29-4.788-2.707l1.391-2.308q2.289,1.375,4.656,2.631Zm99.762-2.782-1.4-2.305q2.289-1.383,4.5-2.882l1.518,2.23Q-539.51,110.777-541.859,112.194Zm-109.18-2.882q-2.277-1.545-4.462-3.2l1.629-2.149q2.131,1.618,4.346,3.119Zm118.253-3.281-1.639-2.146c1.423-1.078,2.807-2.195,4.166-3.349l1.744,2.055Q-530.6,104.366-532.787,106.031Zm-127-3.362q-2.095-1.775-4.09-3.664l1.852-1.96q1.941,1.832,3.982,3.567Zm135.357-3.748-1.855-1.96c1.294-1.221,2.553-2.486,3.777-3.775l1.958,1.852Q-522.437,97.028-524.429,98.921Zm-143.335-3.8c-1.259-1.324-2.483-2.688-3.672-4.079l2.054-1.75q1.735,2.034,3.573,3.974Zm150.885-4.171-2.052-1.75q1.727-2.034,3.349-4.166l2.149,1.634Q-515.1,88.86-516.879,90.954Zm-158-4.182q-1.662-2.176-3.208-4.449l2.227-1.518q1.509,2.212,3.125,4.333Zm164.654-4.562-2.23-1.513q1.5-2.212,2.882-4.505l2.313,1.391Q-508.685,79.941-510.228,82.21Zm-170.828-4.5q-1.415-2.346-2.71-4.767l2.378-1.27q1.262,2.358,2.64,4.643Zm176.5-4.907-2.381-1.265c.836-1.575,1.629-3.168,2.381-4.794l2.448,1.135Q-503.268,70.372-504.555,72.8Zm-181.659-4.764Q-687.37,65.553-688.39,63l2.5-1q.995,2.483,2.117,4.9Zm186.28-5.212-2.5-1c.661-1.65,1.275-3.333,1.847-5.026l2.556.86Q-498.917,60.275-499.934,62.824Zm-190.36-4.972q-.877-2.592-1.62-5.247l2.6-.725q.72,2.584,1.577,5.107Zm193.868-5.446-2.6-.717q.712-2.568,1.286-5.187l2.634.574Q-495.694,49.769-496.426,52.406Zm-196.82-5.128q-.59-2.669-1.038-5.392l2.658-.437q.437,2.649,1.014,5.247Zm199.166-5.595-2.661-.431c.286-1.747.523-3.519.717-5.3l2.68.291C-493.541,38.07-493.786,39.888-494.08,41.683ZM-695.028,36.45q-.3-2.718-.45-5.476l2.691-.146q.146,2.681.44,5.325ZM-492.9,30.769l-2.693-.14q.141-2.657.143-5.344v-.4h2.7v.388C-492.759,27.124-492.807,28.952-492.9,30.769Zm-202.732-5.285v-.2q0-2.661.135-5.282l2.693.138q-.129,2.556-.132,5.144Zm200.017-5.942q-.153-2.681-.45-5.325l2.68-.3q.3,2.714.461,5.471ZM-692.391,14.81l-2.683-.283q.291-2.742.725-5.444l2.661.429Q-692.112,12.137-692.391,14.81ZM-496.8,8.922q-.445-2.645-1.022-5.244l2.629-.588q.6,2.669,1.051,5.39ZM-690.7,4.263l-2.637-.572q.587-2.694,1.31-5.333l2.6.714Q-690.129,1.641-690.7,4.263ZM-499.133-1.5q-.724-2.58-1.585-5.1l2.551-.868q.881,2.588,1.631,5.244ZM-687.869-6.042l-2.556-.855q.874-2.613,1.887-5.169l2.508.992Q-687.017-8.59-687.869-6.042Zm185.288-5.573q-1-2.483-2.127-4.894l2.443-1.143c.768,1.653,1.5,3.33,2.186,5.028Zm-181.344-4.379-2.448-1.13q1.153-2.5,2.437-4.929l2.383,1.259Q-682.8-18.431-683.925-15.994ZM-507.1-21.281q-1.258-2.354-2.645-4.635l2.3-1.4q1.424,2.338,2.721,4.761Zm-171.823-4.171-2.311-1.389q1.411-2.358,2.955-4.635l2.232,1.513Q-677.545-27.751-678.926-25.452Zm166.283-4.95q-1.508-2.208-3.136-4.325l2.141-1.642q1.67,2.176,3.222,4.446Zm-160.292-3.909-2.146-1.629q1.658-2.188,3.432-4.287l2.06,1.742Q-671.316-36.443-672.935-34.312Zm153.794-4.567q-1.735-2.03-3.583-3.966l1.955-1.86q1.893,1.986,3.678,4.071ZM-666.027-42.47l-1.96-1.852q1.885-1.994,3.874-3.891l1.858,1.955Q-664.193-44.418-666.027-42.47Zm139.512-4.144c-1.294-1.221-2.629-2.408-3.988-3.559l1.739-2.06c1.4,1.184,2.764,2.4,4.1,3.659Zm-131.769-3.222-1.752-2.052q2.087-1.78,4.268-3.448l1.639,2.141Q-656.252-51.57-658.284-49.836Zm123.607-3.678q-2.135-1.61-4.357-3.111l1.513-2.235q2.277,1.541,4.465,3.195ZM-649.8-56.326l-1.518-2.227q2.261-1.545,4.611-2.968l1.4,2.3Q-647.595-57.828-649.8-56.326Zm106.257-3.168q-2.293-1.375-4.667-2.623l1.259-2.386q2.439,1.286,4.791,2.694Zm-97.128-2.367-1.27-2.378q2.414-1.29,4.9-2.451l1.14,2.443Q-638.323-63.119-640.672-61.861Zm87.661-2.623q-2.431-1.116-4.92-2.1l.99-2.507q2.564,1.011,5.058,2.16Zm-78-1.887-1.006-2.5q2.544-1.023,5.15-1.909l.868,2.551Q-628.53-67.364-631.007-66.372Zm68.041-2.046q-2.528-.845-5.115-1.55l.712-2.6q2.657.728,5.255,1.593ZM-620.89-69.81l-.725-2.6q2.629-.736,5.325-1.337l.585,2.634Q-618.322-70.527-620.89-69.81Zm47.618-1.429c-1.731-.372-3.486-.7-5.25-.984l.421-2.661q2.726.433,5.4,1.011Zm-37.189-.887-.439-2.661q2.7-.445,5.438-.75l.3,2.68Q-607.835-72.561-610.461-72.126Zm26.636-.8c-1.758-.186-3.538-.321-5.325-.413l.132-2.694q2.758.142,5.479.426Zm-16.013-.38-.154-2.691c1.817-.1,3.651-.159,5.487-.162l.011,2.7Q-597.188-73.454-599.838-73.3Z" transform="translate(24.939 12.129)"/>
      <g id="그룹_3400" data-name="그룹 3400" transform="translate(-710.34 2.35)">
        <path id="패스_6759" data-name="패스 6759" d="M-642.408-17.32a33.715,33.715,0,0,1-33.716,33.713A33.713,33.713,0,0,1-709.84-17.32a33.712,33.712,0,0,1,33.716-33.716A33.714,33.714,0,0,1-642.408-17.32Z" transform="translate(711.188 52.384)" fill="#1baf92"/>
        <path id="패스_6760" data-name="패스 6760" d="M-675.276,18.589A35.1,35.1,0,0,1-710.34-16.472a35.1,35.1,0,0,1,35.064-35.064,35.1,35.1,0,0,1,35.064,35.064A35.1,35.1,0,0,1-675.276,18.589Zm0-67.429a32.4,32.4,0,0,0-32.368,32.368,32.4,32.4,0,0,0,32.368,32.365,32.4,32.4,0,0,0,32.368-32.365A32.4,32.4,0,0,0-675.276-48.84Z" transform="translate(710.34 51.536)"/>
      </g>
      <g id="그룹_3402" data-name="그룹 3402" transform="translate(-698.069 42.413)">
        <g id="그룹_3401" data-name="그룹 3401">
          <path id="패스_6761" data-name="패스 6761" d="M-683.579-36.177a21.819,21.819,0,0,0-21.71,19.669,33.563,33.563,0,0,0,21.445,7.7,33.549,33.549,0,0,0,21.915-8.126A21.808,21.808,0,0,0-683.579-36.177Z" transform="translate(706.636 37.525)" fill="#fff"/>
          <path id="패스_6762" data-name="패스 6762" d="M-683-6.614a35.137,35.137,0,0,1-22.3-8.005,1.34,1.34,0,0,1-.483-1.173,23.065,23.065,0,0,1,23.05-20.885,23.147,23.147,0,0,1,22.99,20.432,1.351,1.351,0,0,1-.461,1.181A35.045,35.045,0,0,1-683-6.614Zm-20.022-9.628A32.43,32.43,0,0,0-683-9.311a32.339,32.339,0,0,0,20.48-7.331,20.453,20.453,0,0,0-20.216-17.339A20.377,20.377,0,0,0-703.018-16.243Z" transform="translate(705.789 36.677)"/>
        </g>
      </g>
      <g id="그룹_3403" data-name="그룹 3403" transform="translate(-635.51 -29.058)">
        <path id="패스_6763" data-name="패스 6763" d="M-554.045,1.585a63.766,63.766,0,0,1-63.765,63.77,63.769,63.769,0,0,1-63.776-63.77,63.77,63.77,0,0,1,63.776-63.77A63.768,63.768,0,0,1-554.045,1.585Z" transform="translate(684.282 64.881)" fill="#fff"/>
        <path id="패스_6764" data-name="패스 6764" d="M-616.114,69.748A66.542,66.542,0,0,1-682.586,3.282a66.544,66.544,0,0,1,66.472-66.467A66.541,66.541,0,0,1-549.653,3.282,66.54,66.54,0,0,1-616.114,69.748Zm0-130.237A63.846,63.846,0,0,0-679.89,3.282a63.843,63.843,0,0,0,63.776,63.77,63.837,63.837,0,0,0,63.765-63.77A63.841,63.841,0,0,0-616.114-60.489Z" transform="translate(682.586 63.185)"/>
      </g>
      <g id="그룹_3404" data-name="그룹 3404" transform="translate(-619.185 37.646)">
        <path id="패스_6765" data-name="패스 6765" d="M-609.017-37.945h-13.289l.55,2.149-12.154.051.563-2.2h-13.29s-19.677,10.736-29.394,42.139c0,0,12.338,19.736,48.038,21.394,32.877,1.44,49.119-22.122,49.119-22.122C-590.179-27.934-609.017-37.945-609.017-37.945Z" transform="translate(677.38 39.293)" fill="#fff"/>
        <path id="패스_6766" data-name="패스 6766" d="M-624.27,27.849h0c-.965,0-1.941-.022-2.933-.065-35.994-1.672-48.6-21.195-49.122-22.025a1.353,1.353,0,0,1-.145-1.116c9.768-31.562,29.213-42.471,30.035-42.921a1.36,1.36,0,0,1,.647-.167h13.29a1.358,1.358,0,0,1,1.065.52,1.365,1.365,0,0,1,.24,1.165l-.129.51,8.679-.04-.121-.469a1.348,1.348,0,0,1,.24-1.165,1.356,1.356,0,0,1,1.068-.52h13.289a1.372,1.372,0,0,1,.634.159c.787.421,19.426,10.615,30.777,42.144a1.362,1.362,0,0,1-.159,1.224C-577.073,5.312-592.975,27.849-624.27,27.849ZM-673.7,4.815c2.2,3,15.258,18.819,46.62,20.275a57.574,57.574,0,0,0,47.537-21C-589.821-23.9-606.2-34.376-608.527-35.749h-11.194l.119.464a1.346,1.346,0,0,1-.24,1.159,1.34,1.34,0,0,1-1.057.526l-12.154.051a1.621,1.621,0,0,1-1.07-.515,1.359,1.359,0,0,1-.245-1.165l.135-.52h-11.189C-647.819-34.3-664.845-23.149-673.7,4.815Z" transform="translate(676.531 38.445)"/>
      </g>
      <g id="그룹_3405" data-name="그룹 3405" transform="translate(-593.584 -19.346)">
        <path id="패스_6767" data-name="패스 6767" d="M-620.782-30.039c0,11.6-10.232,21-22.856,21h0c-12.621,0-22.858-9.4-22.858-21v-8c0-11.6,10.237-21,22.858-21h0c12.624,0,22.856,9.4,22.856,21Z" transform="translate(667.952 60.501)"/>
        <path id="패스_6768" data-name="패스 6768" d="M-642.722-6.67c-13.408,0-24.314-10.07-24.314-22.451v-8c0-12.384,10.906-22.459,24.314-22.459s24.312,10.076,24.312,22.459v8C-618.41-16.74-629.313-6.67-642.722-6.67Zm0-50c-11.8,0-21.4,8.768-21.4,19.545v8c0,10.774,9.6,19.539,21.4,19.539s21.4-8.765,21.4-19.539v-8C-621.322-47.9-630.923-56.668-642.722-56.668Z" transform="translate(667.036 59.583)"/>
      </g>
      <g id="그룹_3406" data-name="그룹 3406" transform="translate(-595.514 0.819)">
        <path id="패스_6769" data-name="패스 6769" d="M-617.316-32.229a5.359,5.359,0,0,0-5.255-5.406v-6.083c0-2.683-1.707-7.851-4.389-7.851L-657.6-47.177a4.923,4.923,0,0,0-4.966,4.823v4.778a5.359,5.359,0,0,0-4.643,5.347,5.352,5.352,0,0,0,4.643,5.341v9.739a4.861,4.861,0,0,0,4.859,4.859h30.284a4.86,4.86,0,0,0,4.856-4.859v-9.677A5.357,5.357,0,0,0-617.316-32.229Z" transform="translate(668.668 53.011)" fill="#fff"/>
        <path id="패스_6770" data-name="패스 6770" d="M-626.511-9.927h-30.284a6.321,6.321,0,0,1-6.315-6.314v-8.582a6.851,6.851,0,0,1-4.643-6.5,6.851,6.851,0,0,1,4.643-6.5v-3.626a6.359,6.359,0,0,1,6.422-6.279l30.437-4.379h.011c4.036,0,6.04,6.05,6.04,9.294v4.8a6.871,6.871,0,0,1,5.255,6.689,6.865,6.865,0,0,1-5.255,6.687v8.393A6.321,6.321,0,0,1-626.511-9.927Zm.466-39.278-30.437,4.379a3.56,3.56,0,0,0-3.713,3.381v4.778a1.46,1.46,0,0,1-1.273,1.445,3.915,3.915,0,0,0-3.373,3.9,3.905,3.905,0,0,0,3.37,3.9,1.46,1.46,0,0,1,1.275,1.445v9.739a3.405,3.405,0,0,0,3.4,3.4h30.284a3.407,3.407,0,0,0,3.4-3.4v-9.677a1.458,1.458,0,0,1,1.443-1.459,3.908,3.908,0,0,0,3.813-3.945,3.918,3.918,0,0,0-3.813-3.95,1.454,1.454,0,0,1-1.443-1.456V-42.81C-623.111-45.277-624.713-49.206-626.045-49.206Z" transform="translate(667.752 52.104)"/>
      </g>
      <path id="패스_6771" data-name="패스 6771" d="M-651.536-44.26a2.137,2.137,0,0,1-2.138,2.141,2.14,2.14,0,0,1-2.146-2.141,2.144,2.144,0,0,1,2.146-2.143A2.141,2.141,0,0,1-651.536-44.26Z" transform="translate(92.477 62.593)"/>
      <path id="패스_6772" data-name="패스 6772" d="M-657.255-44.26a2.14,2.14,0,0,1-2.143,2.141,2.14,2.14,0,0,1-2.143-2.141A2.144,2.144,0,0,1-659.4-46.4,2.144,2.144,0,0,1-657.255-44.26Z" transform="translate(82.771 62.593)"/>
      <path id="패스_6773" data-name="패스 6773" d="M-653.256-33.612H-655.4c-1.674,0-2.793-.445-3.335-1.321a2.428,2.428,0,0,1-.073-2.257,64.563,64.563,0,0,0,1.318-7.363,1.089,1.089,0,0,1,1.224-.946,1.089,1.089,0,0,1,.944,1.221,61.93,61.93,0,0,1-1.472,7.921l-.078.289a2.518,2.518,0,0,0,1.472.27h2.143a1.1,1.1,0,0,1,1.095,1.095A1.093,1.093,0,0,1-653.256-33.612Z" transform="translate(86.987 64.108)"/>
      <path id="패스_6774" data-name="패스 6774" d="M-647.3-22.807a1.456,1.456,0,0,1-1.127-.534l-9.569-11.72a1.458,1.458,0,0,1,.208-2.049,1.461,1.461,0,0,1,2.052.2l8.423,10.321,8.3-10.467a1.457,1.457,0,0,1,2.047-.235,1.454,1.454,0,0,1,.235,2.046l-9.429,11.882C-646.431-23.009-646.886-22.672-647.3-22.807Z" transform="translate(88.237 77.522)"/>
      <path id="패스_6775" data-name="패스 6775" d="M-653.128-22.807a1.462,1.462,0,0,1-1.06-.453l-11.284-11.882a1.46,1.46,0,0,1,.054-2.06,1.46,1.46,0,0,1,2.06.054l10.116,10.655,8.032-10.38a1.456,1.456,0,0,1,2.044-.262,1.458,1.458,0,0,1,.261,2.044l-9.076,11.72a1.453,1.453,0,0,1-1.076.564Z" transform="translate(75.43 77.522)"/>
      <g id="그룹_3407" data-name="그룹 3407" transform="translate(-576.309 40.083)">
        <path id="패스_6776" data-name="패스 6776" d="M-660.089-28.956-653.862-37l6.569,8.045-3,5.82h-6.714Z" transform="translate(661.544 38.457)" fill="#1baf92"/>
        <path id="패스_6777" data-name="패스 6777" d="M-649.376-20.763h-6.713a1.453,1.453,0,0,1-1.286-.774l-3.084-5.821a1.46,1.46,0,0,1,.135-1.575l6.226-8.043a1.465,1.465,0,0,1,1.132-.566,1.587,1.587,0,0,1,1.151.534l6.565,8.045a1.459,1.459,0,0,1,.167,1.591l-3,5.816A1.459,1.459,0,0,1-649.376-20.763Zm-5.837-2.915h4.95l2.151-4.182-4.8-5.886-4.532,5.853Z" transform="translate(660.629 37.541)"/>
      </g>
      <g id="그룹_3408" data-name="그룹 3408" transform="translate(-576.021 53.947)">
        <path id="패스_6778" data-name="패스 6778" d="M-650.472-31.859h-6.714l-2.8,27,5.453,10.617,5.61-10.617Z" transform="translate(661.437 33.316)" fill="#1baf92"/>
        <path id="패스_6779" data-name="패스 6779" d="M-653.614,8.13a1.518,1.518,0,0,1-1.294-.793l-5.454-10.615a1.446,1.446,0,0,1-.151-.814l2.793-27A1.458,1.458,0,0,1-656.27-32.4h6.713a1.452,1.452,0,0,1,1.451,1.372l1.553,27a1.461,1.461,0,0,1-.164.766l-5.608,10.618A1.455,1.455,0,0,1-653.614,8.13Zm-3.961-12.354,3.98,7.743,4.112-7.784-1.451-25.22h-4.023Z" transform="translate(660.522 32.399)"/>
      </g>
      <g id="그룹_3409" data-name="그룹 3409" transform="translate(-687.069 19.406)">
        <path id="패스_6780" data-name="패스 6780" d="M-678.2-33.211A11.5,11.5,0,0,1-689.7-21.7a11.505,11.505,0,0,1-11.5-11.507,11.5,11.5,0,0,1,11.5-11.5A11.5,11.5,0,0,1-678.2-33.211Z" transform="translate(702.557 46.058)" fill="#fff"/>
        <path id="패스_6781" data-name="패스 6781" d="M-688.856-19.507a12.868,12.868,0,0,1-12.853-12.855A12.864,12.864,0,0,1-688.856-45.21a12.864,12.864,0,0,1,12.85,12.847A12.867,12.867,0,0,1-688.856-19.507Zm0-23.007a10.166,10.166,0,0,0-10.156,10.151A10.169,10.169,0,0,0-688.856-22.2,10.167,10.167,0,0,0-678.7-32.363,10.163,10.163,0,0,0-688.856-42.514Z" transform="translate(701.709 45.21)"/>
      </g>
      <g id="그룹_3410" data-name="그룹 3410" transform="translate(-499.627 2.35)">
        <path id="패스_6782" data-name="패스 6782" d="M-564.259-17.32a33.714,33.714,0,0,1-33.713,33.713A33.711,33.711,0,0,1-631.688-17.32a33.71,33.71,0,0,1,33.716-33.716A33.713,33.713,0,0,1-564.259-17.32Z" transform="translate(633.036 52.384)" fill="#f7d979"/>
        <path id="패스_6783" data-name="패스 6783" d="M-597.124,18.589a35.1,35.1,0,0,1-35.064-35.061,35.1,35.1,0,0,1,35.064-35.064,35.1,35.1,0,0,1,35.061,35.064A35.1,35.1,0,0,1-597.124,18.589Zm0-67.429a32.4,32.4,0,0,0-32.368,32.368,32.4,32.4,0,0,0,32.368,32.365,32.4,32.4,0,0,0,32.365-32.365A32.4,32.4,0,0,0-597.124-48.84Z" transform="translate(632.188 51.536)"/>
      </g>
      <g id="그룹_3412" data-name="그룹 3412" transform="translate(-487.359 42.413)">
        <g id="그룹_3411" data-name="그룹 3411">
          <path id="패스_6784" data-name="패스 6784" d="M-605.427-36.177a21.817,21.817,0,0,0-21.71,19.669,33.563,33.563,0,0,0,21.446,7.7,33.549,33.549,0,0,0,21.915-8.126A21.81,21.81,0,0,0-605.427-36.177Z" transform="translate(628.488 37.525)" fill="#fff"/>
          <path id="패스_6785" data-name="패스 6785" d="M-604.842-6.614a35.133,35.133,0,0,1-22.306-8.005,1.356,1.356,0,0,1-.485-1.173,23.071,23.071,0,0,1,23.055-20.885,23.149,23.149,0,0,1,22.991,20.432,1.354,1.354,0,0,1-.464,1.181A35.033,35.033,0,0,1-604.842-6.614Zm-20.022-9.628a32.425,32.425,0,0,0,20.022,6.932,32.321,32.321,0,0,0,20.478-7.331,20.45,20.45,0,0,0-20.213-17.339A20.377,20.377,0,0,0-624.864-16.243Z" transform="translate(627.638 36.677)"/>
        </g>
      </g>
      <g id="그룹_3413" data-name="그룹 3413" transform="translate(-476.356 19.406)">
        <path id="패스_6786" data-name="패스 6786" d="M-600.05-33.211a11.505,11.505,0,0,1-11.5,11.507,11.506,11.506,0,0,1-11.5-11.507,11.5,11.5,0,0,1,11.5-11.5A11.5,11.5,0,0,1-600.05-33.211Z" transform="translate(624.405 46.058)" fill="#fff"/>
        <path id="패스_6787" data-name="패스 6787" d="M-610.7-19.507a12.868,12.868,0,0,1-12.853-12.855A12.865,12.865,0,0,1-610.7-45.21a12.864,12.864,0,0,1,12.85,12.847A12.867,12.867,0,0,1-610.7-19.507Zm0-23.007a10.164,10.164,0,0,0-10.157,10.151A10.167,10.167,0,0,0-610.7-22.2,10.169,10.169,0,0,0-600.55-32.363,10.165,10.165,0,0,0-610.7-42.514Z" transform="translate(623.557 45.21)"/>
      </g>
      <g id="그룹_3414" data-name="그룹 3414" transform="translate(-678.764 43.065)">
        <path id="패스_6788" data-name="패스 6788" d="M-697.178-36.06l-1.076,1.39,1.469,2.775h3.195l1.428-2.96-1.032-1.206Z" transform="translate(699.265 37.071)" fill="#f7d979"/>
        <path id="패스_6789" data-name="패스 6789" d="M-692.954-30.247h-3.195a1.012,1.012,0,0,1-.893-.539l-1.469-2.774a1.006,1.006,0,0,1,.094-1.089l1.076-1.391a1.007,1.007,0,0,1,.8-.394h3.985a1.02,1.02,0,0,1,.768.353l1.033,1.205a1.01,1.01,0,0,1,.143,1.095l-1.429,2.96A1.011,1.011,0,0,1-692.954-30.247Zm-2.586-2.022h1.952l.865-1.793-.3-.351h-3.025l-.372.483Z" transform="translate(698.629 36.435)"/>
      </g>
      <g id="그룹_3415" data-name="그룹 3415" transform="translate(-679.039 48.021)">
        <path id="패스_6790" data-name="패스 6790" d="M-693.416-34.222h-3.195l-1.745,12.854,3.008,5.055,3.04-5.055Z" transform="translate(699.367 35.233)" fill="#f7d979"/>
        <path id="패스_6791" data-name="패스 6791" d="M-694.712-14.667a.962.962,0,0,1-.868-.491l-3.009-5.055a1.016,1.016,0,0,1-.132-.655l1.744-12.853a1.009,1.009,0,0,1,1-.876h3.195a1.012,1.012,0,0,1,1.008.925l1.108,12.855a1,1,0,0,1-.14.607l-3.041,5.055A1.009,1.009,0,0,1-694.712-14.667Zm-1.96-6.277,1.963,3.3,2-3.324-1-11.6h-1.383Z" transform="translate(698.731 34.597)"/>
      </g>
      <g id="그룹_3416" data-name="그룹 3416" transform="translate(-467.549 43.065)">
        <path id="패스_6792" data-name="패스 6792" d="M-618.841-36.06l-1.074,1.39,1.469,2.775h3.2l1.427-2.96-1.032-1.206Z" transform="translate(620.927 37.071)" fill="#1baf92"/>
        <path id="패스_6793" data-name="패스 6793" d="M-614.614-30.247h-3.195a1.016,1.016,0,0,1-.9-.539l-1.469-2.774a1.007,1.007,0,0,1,.094-1.089l1.073-1.391a1.017,1.017,0,0,1,.8-.394h3.988a1.028,1.028,0,0,1,.768.353l1.033,1.205a1.009,1.009,0,0,1,.14,1.095l-1.426,2.96A1.008,1.008,0,0,1-614.614-30.247Zm-2.588-2.022h1.955l.863-1.793-.3-.351h-3.028l-.372.483Z" transform="translate(620.291 36.435)"/>
      </g>
      <g id="그룹_3417" data-name="그룹 3417" transform="translate(-467.822 48.021)">
        <path id="패스_6794" data-name="패스 6794" d="M-615.077-34.222h-3.2l-1.743,12.854,3.007,5.055,3.042-5.055Z" transform="translate(621.028 35.233)" fill="#1baf92"/>
        <path id="패스_6795" data-name="패스 6795" d="M-616.375-14.667h0a1.012,1.012,0,0,1-.868-.491l-3.006-5.055a1.016,1.016,0,0,1-.132-.655l1.744-12.853a1.007,1.007,0,0,1,1-.876h3.2a1,1,0,0,1,1.006.925l1.111,12.855a1.021,1.021,0,0,1-.14.607l-3.041,5.055A1.013,1.013,0,0,1-616.375-14.667Zm-1.958-6.277,1.963,3.3,2-3.324-1-11.6h-1.386Z" transform="translate(620.392 34.597)"/>
      </g>
      <path id="패스_6796" data-name="패스 6796" d="M-603.944-29.55S-620.617,3.236-674.49,2.43c0,0,17.919,20.364,49.761,17.773,0,0,27.426-1.585,43.781-22.187,0,0-6.5-21.146-19.569-32.748Z" transform="translate(60.809 82.389)" fill="#1baf92" opacity="0.1"/>
      <path id="패스_6797" data-name="패스 6797" d="M-667.52-.6a1.011,1.011,0,0,1-1.011-1.011V-24.491A1.011,1.011,0,0,1-667.52-25.5a1.011,1.011,0,0,1,1.011,1.011V-1.614A1.011,1.011,0,0,1-667.52-.6Z" transform="translate(70.916 98.045)"/>
      <path id="패스_6798" data-name="패스 6798" d="M-647.217-.6a1.012,1.012,0,0,1-1.011-1.011V-24.491a1.012,1.012,0,0,1,1.011-1.011,1.011,1.011,0,0,1,1.011,1.011V-1.614A1.011,1.011,0,0,1-647.217-.6Z" transform="translate(105.354 98.045)"/>
      <g id="그룹_3418" data-name="그룹 3418" transform="translate(-575.801 -83.305)">
        <rect id="사각형_2373" data-name="사각형 2373" width="7.827" height="7.829" transform="translate(1.008 6.534) rotate(-44.986)" fill="#f7d979"/>
        <path id="패스_6799" data-name="패스 6799" d="M-653.9-70.221a1.011,1.011,0,0,1-.715-.3l-5.535-5.538a1.012,1.012,0,0,1,0-1.429l5.53-5.535a1.041,1.041,0,0,1,1.432,0l5.535,5.535a1.012,1.012,0,0,1,0,1.429l-5.535,5.538A1.008,1.008,0,0,1-653.9-70.221ZM-658-76.77l4.106,4.106,4.1-4.106-4.106-4.1Z" transform="translate(660.441 83.305)"/>
      </g>
      <g id="그룹_3419" data-name="그룹 3419" transform="translate(-500.905 113.708)">
        <rect id="사각형_2374" data-name="사각형 2374" width="7.827" height="7.827" transform="translate(1.43 6.967) rotate(-45.001)" fill="#f7d979"/>
        <path id="패스_6800" data-name="패스 6800" d="M-625.7,3.7l-6.964-6.967,6.964-6.967,6.964,6.967Zm-4.1-6.967,4.1,4.106,4.106-4.106L-625.7-7.373Z" transform="translate(632.662 10.234)"/>
      </g>
    </g>
  </g>
</svg>
