<svg xmlns="http://www.w3.org/2000/svg" xmlns:xlink="http://www.w3.org/1999/xlink" width="284" height="240" viewBox="0 0 284 240">
  <defs>
    <clipPath id="clip-path">
      <rect id="사각형_2327" data-name="사각형 2327" width="284" height="240" transform="translate(512 1784)" fill="#e6e6e6"/>
    </clipPath>
  </defs>
  <g id="마스크_그룹_9" data-name="마스크 그룹 9" transform="translate(-512 -1784)" clip-path="url(#clip-path)">
    <g id="그룹_3358" data-name="그룹 3358" transform="translate(1377.165 1795.876)">
      <g id="그룹_3353" data-name="그룹 3353" transform="translate(-832.957 10.828)">
        <path id="패스_6614" data-name="패스 6614" d="M-833.75,15.7l-7.776,14.8,8.565,16.386,7.9,13.214,5.419-3.172,12.324-21.217s.227-12.96,0-13.389-9.438-8.243-9.438-8.243L-828.416,11.4Z" transform="translate(886.064 -9.536)" fill="#fff"/>
        <path id="패스_6615" data-name="패스 6615" d="M-833.034,14.193l-5.1,6.91,5.1,6.68,5.758-1.019,2.849-5.661-1.522-4.532Z" transform="translate(893.692 -3.267)" fill="#fff"/>
        <path id="패스_6616" data-name="패스 6616" d="M-815.264,37.036l-7.776,14.8,8.565,16.382,7.9,13.214,5.418-3.172,12.324-21.217s.227-12.96,0-13.389-9.438-8.243-9.438-8.243l-11.655-2.678Z" transform="translate(927.595 38.38)" fill="#fff"/>
        <path id="패스_6617" data-name="패스 6617" d="M-814.548,35.522l-5.1,6.91,5.1,6.68,5.758-1.019,2.849-5.661-1.522-4.532Z" transform="translate(935.223 44.649)" fill="#fff"/>
        <path id="패스_6618" data-name="패스 6618" d="M-803.46,20.7l-7.779,14.8,8.564,16.386,7.9,13.214,5.419-3.172,12.324-21.217s.227-12.96,0-13.389-9.438-8.243-9.438-8.243L-798.126,16.4Z" transform="translate(954.107 1.695)" fill="#fff"/>
        <path id="패스_6619" data-name="패스 6619" d="M-802.747,19.192l-5.1,6.91,5.1,6.68,5.758-1.019,2.849-5.661-1.522-4.532Z" transform="translate(961.736 7.964)" fill="#fff"/>
        <path id="패스_6620" data-name="패스 6620" d="M-829.745,25.677a2.274,2.274,0,0,0,2.906,1.37,80.911,80.911,0,0,1,8.169-2.39,81.367,81.367,0,0,1,19.285-2.351A81.815,81.815,0,0,1-784.6,23.7a80.791,80.791,0,0,1,8.315,1.928,2.277,2.277,0,0,0,2.821-1.539A2.272,2.272,0,0,0-775,21.262a86.143,86.143,0,0,0-24.385-3.5,85.837,85.837,0,0,0-28.986,5.01A2.274,2.274,0,0,0-829.745,25.677Z" transform="translate(912.229 4.743)"/>
        <path id="패스_6621" data-name="패스 6621" d="M-815.07,46.071c-.12,2.639.838,4.656,1.039,6.883a19.784,19.784,0,0,1,11.259,17.837,19.661,19.661,0,0,1-1.831,8.217l-.032.068-.036.071-.737,1.347a10.224,10.224,0,0,0,1.838,1.412c2.876,1.367,5.3-1.789,7.184-2.695a8.31,8.31,0,0,1,7.766-.016c2.042.948,9.655,5.1,16.675,7.9q5.43-2.771,10.35-5.506c-2.1-2.354-4.753-4.532-5.62-6.584-2.539-6.045,6.263-8.055,9.467-9.866a20.923,20.923,0,0,0,1.916-1.26,81.079,81.079,0,0,0-15.717-26.765c-.4-.451-.818-.873-1.224-1.315q-.76,1.179-1.529,2.38c-3.484,5.415-6.935,10.779-6.935,10.782a4.338,4.338,0,0,1-3.584,2.14,3.865,3.865,0,0,1-2.2-.7,4.875,4.875,0,0,1-1.467-1.636l-11.643-20.457a19.461,19.461,0,0,1-2.237-3.961l-.039-.091-.029-.1-.068-.227a36.174,36.174,0,0,0-3.6,12.282c-.188,1.386-.351,2.841-.454,4.441C-806.752,43.493-814.722,43.763-815.07,46.071Z" transform="translate(945.478 18.598)" fill="#1baf92"/>
        <path id="패스_6622" data-name="패스 6622" d="M-792.857,45.166a4.9,4.9,0,0,0-.256-2.3c-2.208,1.227-4.477,2.464-6.838,3.7C-796.094,47.571-793.2,47.5-792.857,45.166Z" transform="translate(979.467 61.151)" fill="#1baf92"/>
        <path id="패스_6623" data-name="패스 6623" d="M-811.788,64.922c.747,3.026.747,4.247,2.545,6.519,8.931,2.691,17.477,4.99,25.509,6.893,2.214-2.932,5.954-4.058,7.9-8.065,2.75-5.659.123-9.9-1.821-14.993-.974-2.552-1.48-6.175-2.49-9.279-10.506,5.039-22.025,10.065-34.369,14.876C-812.895,61.4-812.447,62.3-811.788,64.922Z" transform="translate(946.741 68.183)" fill="#1baf92"/>
        <path id="패스_6624" data-name="패스 6624" d="M-811.677,73.753c.555,3.8,2.769,13.223,7.549,11.759,2.545-.776,2.779-3.575,4.3-5.626,1.51-2.036,4.136-3,5.471-4.48,3.373-3.782,2.133-9.681,2.922-14.587q-9.3-2.216-19.411-5.126C-809.576,61.208-812.563,67.818-811.677,73.753Z" transform="translate(952.747 89.964)" fill="#1baf92"/>
        <path id="패스_6625" data-name="패스 6625" d="M-790.069,44.174c-3.906,0-7.863-.435-11.464.25-.627.974-1.266,1.971-1.909,2.971-3.484,5.415-6.935,10.782-6.938,10.782a4.329,4.329,0,0,1-3.584,2.143,3.865,3.865,0,0,1-2.2-.7,4.943,4.943,0,0,1-1.464-1.64l-1.591-2.792a6.876,6.876,0,0,0,1.6,4.669c1.487,1.117,3.068,1.3,4.5,2.386a6.138,6.138,0,0,1,1.286,1.682c14.548-5.474,28.151-11.272,40.274-17.08a6.39,6.39,0,0,0-1.019-1.032C-776.7,42.7-784.887,44.174-790.069,44.174Z" transform="translate(936.109 63.302)" fill="#1baf92"/>
        <path id="패스_6626" data-name="패스 6626" d="M-798.888,93.543c-.338-7.146,4.331-16.529-.4-21.71-2-2.182-4.532-2.165-6.98-3.438-3.474-1.818-2.3-2.889-2.688-6.419a6.709,6.709,0,0,0-3.659-5.571c-3.571.932-7.081,1.812-10.473,2.6-6.357,1.48-12.376,2.7-18,3.649A81.362,81.362,0,0,0-798.888,93.543Z" transform="translate(887.057 91.566)" fill="#1baf92"/>
        <path id="패스_6627" data-name="패스 6627" d="M-843.117,58.859q1.758,3.609,3.854,7.006c6.084-.98,12.675-2.276,19.717-3.912.9-.208,1.837-.448,2.753-.666-5.529-1.432-8.282-5.717-13.227-7.62C-835.689,51.48-838.838,56.434-843.117,58.859Z" transform="translate(882.49 84.193)" fill="#1baf92"/>
        <path id="패스_6628" data-name="패스 6628" d="M-842.912,62.72c1.607,3.045,3.445,7.581,7.977,6.136,4.1-1.308,2.711-6.487,5.065-9.1,1.88-2.1,9.883-.808,7.483-5.6-.993-1.984-2.818-1.156-2.14-4.023.374-1.594,1.9-3.2,3.136-4.328A11.129,11.129,0,0,1-810.621,44c3.721,1.377,4.7,5.042,9.334,4.341,1.12-.175,4.912-.37,5.357-1.649.435-1.26-1.945-3.1-2.718-4.344a2.793,2.793,0,0,1-.172-.282c-1.695-3.889-.253-7.565,1.847-10.561,2.26-.971,5.919-.734,6.636-3.253.838-2.971-1.477-5.273-2.669-7.48l-.227-.214a80.768,80.768,0,0,0-15.194,6.3l-2.071,3.224c-3.484,5.415-6.935,10.779-6.935,10.782A4.342,4.342,0,0,1-821.017,43a3.875,3.875,0,0,1-2.2-.7,4.881,4.881,0,0,1-1.464-1.64l-.844-1.48c-.828.779-1.63,1.584-2.425,2.4A81.454,81.454,0,0,0-842.912,62.72Z" transform="translate(882.95 11.02)" fill="#1baf92"/>
        <path id="패스_6629" data-name="패스 6629" d="M-849.011,34.377c.467-.1.961-.195,1.48-.276a2.277,2.277,0,0,0,1.883-2.6,2.276,2.276,0,0,0-2.607-1.883c-.588.094-1.159.2-1.708.318a2.277,2.277,0,0,0-1.75,2.7A2.278,2.278,0,0,0-849.011,34.377Z" transform="translate(863.067 31.312)"/>
        <path id="패스_6630" data-name="패스 6630" d="M-846.4,33.947h.211c.448,0,.9,0,1.367.01a2.268,2.268,0,0,0,2.309-2.234,2.268,2.268,0,0,0-2.234-2.308c-.487-.01-.967-.013-1.442-.013h-.224a2.273,2.273,0,0,0-2.269,2.279A2.273,2.273,0,0,0-846.4,33.947Z" transform="translate(869.992 30.901)"/>
        <path id="패스_6631" data-name="패스 6631" d="M-843.516,34.09h0c.523.045,1.055.1,1.591.149a2.269,2.269,0,0,0,2.49-2.029,2.277,2.277,0,0,0-2.032-2.493c-.552-.055-1.1-.107-1.64-.156a2.272,2.272,0,0,0-2.467,2.058A2.275,2.275,0,0,0-843.516,34.09Z" transform="translate(876.948 31.236)"/>
        <path id="패스_6632" data-name="패스 6632" d="M-783.709,53.846a2.27,2.27,0,0,0-3.2-.321,2.276,2.276,0,0,0-.318,3.2q.5.6.915,1.179a2.273,2.273,0,0,0,3.175.5,2.276,2.276,0,0,0,.5-3.175C-782.969,54.772-783.329,54.311-783.709,53.846Z" transform="translate(1006.902 83.94)"/>
        <path id="패스_6633" data-name="패스 6633" d="M-789.422,51.664a2.267,2.267,0,0,0,.286,3.2c.413.347.815.685,1.2,1.026a2.275,2.275,0,0,0,3.207-.227,2.271,2.271,0,0,0-.224-3.2q-.619-.541-1.273-1.084A2.271,2.271,0,0,0-789.422,51.664Z" transform="translate(1001.93 79.077)"/>
        <path id="패스_6634" data-name="패스 6634" d="M-629.724,122.118a2.274,2.274,0,0,0-2.646,1.825l-.13.484a3.69,3.69,0,0,1-1.308,1.653,13.508,13.508,0,0,1-5.451,2.117,48.842,48.842,0,0,1-9.487.786,135.249,135.249,0,0,1-19-1.6,85.5,85.5,0,0,0,10.12-28.1c.114.071.228.146.344.214a2.27,2.27,0,0,0,3.13-.721,2.271,2.271,0,0,0-.718-3.13q-.691-.433-1.4-.867a2.089,2.089,0,0,0-.678-.25,86.677,86.677,0,0,0,.584-9.9,86.317,86.317,0,0,0-.838-11.441,122.179,122.179,0,0,0,18.055-13.431,38.744,38.744,0,0,0,6.123-7.061,12.968,12.968,0,0,0,2.36-6.831,7.8,7.8,0,0,0-.464-2.669A7.471,7.471,0,0,0-631.8,41.8l0-.006a8.55,8.55,0,0,0-1.419-1.7,2.276,2.276,0,0,0-3.211.123,2.273,2.273,0,0,0,.124,3.214l.652.773h0l.27.552a3.222,3.222,0,0,1,.185,1.107,8.559,8.559,0,0,1-1.64,4.38c-2.039,3.208-6.1,7.22-11.811,11.561-2.727,2.078-5.867,4.247-9.3,6.467a85.684,85.684,0,0,0-17.584-37.81,2.279,2.279,0,0,0-3.2-.331,2.244,2.244,0,0,0-.812,1.708,2.23,2.23,0,0,0,.481,1.49A81.119,81.119,0,0,1-662.08,70.861q-4.353,2.669-9.282,5.409-4.913,2.727-10.35,5.506-4.344,2.221-8.98,4.451c-12.123,5.808-25.726,11.607-40.274,17.08-1.467.552-2.928,1.107-4.415,1.653q-3.6,1.32-7.165,2.571c-1.714-.61-3.422-1.214-5.153-1.851-28.755-10.548-54.072-22.463-72.1-33.349-.98-.594-1.932-1.182-2.873-1.769a81.245,81.245,0,0,1,19.71-40.476,2.223,2.223,0,0,0,.558-1.461,2.242,2.242,0,0,0-.724-1.747,2.274,2.274,0,0,0-3.211.166A85.784,85.784,0,0,0-826.806,67.9a107.361,107.361,0,0,1-14.022-10.737,34.449,34.449,0,0,1-5.405-6.2,8.6,8.6,0,0,1-1.643-4.383,3.087,3.087,0,0,1,.188-1.1l.451-.815a2.271,2.271,0,0,0-.425-3.185,2.275,2.275,0,0,0-3.185.425,7.6,7.6,0,0,0-1.11,2.01,7.721,7.721,0,0,0-.464,2.665,12.925,12.925,0,0,0,2.36,6.834c2.559,3.974,6.938,8.185,12.883,12.723,2.825,2.149,6.045,4.37,9.552,6.639a86.922,86.922,0,0,0-.818,11.847,86.582,86.582,0,0,0,.607,10.064c-.081.049-.162.1-.24.149a2.267,2.267,0,0,0-.724,3.13,2.234,2.234,0,0,0,1.575,1.016,85.468,85.468,0,0,0,9.909,27.937,130.466,130.466,0,0,1-17.012,1.334,40.459,40.459,0,0,1-11.792-1.38,10.269,10.269,0,0,1-3.146-1.526,3.688,3.688,0,0,1-1.308-1.653l-.146-.571a2.274,2.274,0,0,0-2.594-1.9,2.269,2.269,0,0,0-1.9,2.591,7.948,7.948,0,0,0,.37,1.445,8.27,8.27,0,0,0,2.812,3.691,17.81,17.81,0,0,0,7.311,2.964,53.144,53.144,0,0,0,10.392.88,140.145,140.145,0,0,0,19.577-1.636,85.97,85.97,0,0,0,72.354,39.5,85.961,85.961,0,0,0,72.091-39.092,145.621,145.621,0,0,0,21.564,1.948,44.7,44.7,0,0,0,13.178-1.6,14.76,14.76,0,0,0,4.526-2.247,8.248,8.248,0,0,0,2.808-3.695,7.409,7.409,0,0,0,.334-1.23A2.268,2.268,0,0,0-629.724,122.118Zm-104.09-12.892q5.484-2.011,10.792-4.088c12.344-4.811,23.863-9.837,34.369-14.876,4.5-2.156,8.851-4.312,12.925-6.458,2.36-1.24,4.63-2.477,6.838-3.7q3.9-2.177,7.46-4.315a82.034,82.034,0,0,1,.529,8.844,81.075,81.075,0,0,1-11.652,42c-5.662-.948-11.763-2.175-18.223-3.678-.477-.11-.977-.237-1.461-.354-8.032-1.9-16.577-4.2-25.509-6.893-5.844-1.766-11.856-3.708-17.973-5.8C-735.08,109.68-734.453,109.463-733.813,109.226Zm-8.587,56.9a81.227,81.227,0,0,1-57.627-23.872,82.152,82.152,0,0,1-9.8-11.857l.562-.1c5.623-.951,11.642-2.169,18-3.649,3.393-.789,6.9-1.669,10.473-2.6,11.974-3.126,24.853-7.042,38.229-11.7,10.065,3.552,19.866,6.688,29.229,9.389q10.091,2.907,19.411,5.126c.7.169,1.429.351,2.123.513q8.746,2.031,16.577,3.393a81.942,81.942,0,0,1-9.545,11.487A81.226,81.226,0,0,1-742.4,166.129Zm-7.016-56.238c-14.217,4.789-27.772,8.7-40.131,11.672-.916.218-1.854.458-2.753.666-7.042,1.636-13.633,2.932-19.717,3.912l-.471.075A81.084,81.084,0,0,1-823.9,84.63a82.217,82.217,0,0,1,.529-9.168C-804.934,86.753-779.019,99.015-749.417,109.891Z" transform="translate(855.244 23.918)"/>
        <path id="패스_6635" data-name="패스 6635" d="M-792.019,49.956a2.272,2.272,0,0,0,.571,3.162q.663.463,1.305.919a2.272,2.272,0,0,0,3.169-.536,2.269,2.269,0,0,0-.532-3.169q-.662-.472-1.351-.948A2.27,2.27,0,0,0-792.019,49.956Z" transform="translate(996.375 74.88)"/>
        <path id="패스_6636" data-name="패스 6636" d="M-788.928,33.837c.523.071,1.023.146,1.5.234a2.277,2.277,0,0,0,2.636-1.844,2.269,2.269,0,0,0-1.844-2.63q-.828-.151-1.7-.263a2.269,2.269,0,0,0-2.548,1.954A2.268,2.268,0,0,0-788.928,33.837Z" transform="translate(999.79 30.702)"/>
        <path id="패스_6637" data-name="패스 6637" d="M-791.664,33.756c.539-.016,1.065-.026,1.585-.032a2.269,2.269,0,0,0,2.247-2.3,2.267,2.267,0,0,0-2.3-2.247c-.545,0-1.1.016-1.662.032A2.271,2.271,0,0,0-794,31.548,2.273,2.273,0,0,0-791.664,33.756Z" transform="translate(992.838 30.404)"/>
        <path id="패스_6638" data-name="패스 6638" d="M-794.572,34.058q.8-.088,1.591-.166a2.268,2.268,0,0,0,2.039-2.48,2.273,2.273,0,0,0-2.48-2.042v0c-.542.049-1.088.107-1.64.166a2.274,2.274,0,0,0-2.016,2.5A2.275,2.275,0,0,0-794.572,34.058Z" transform="translate(985.892 30.806)"/>
        <path id="패스_6639" data-name="패스 6639" d="M-846.2,53.788c.429-.305.867-.61,1.308-.919a2.272,2.272,0,0,0,.574-3.162,2.276,2.276,0,0,0-3.165-.575c-.455.318-.906.633-1.348.948a2.267,2.267,0,0,0-.539,3.165A2.274,2.274,0,0,0-846.2,53.788Z" transform="translate(867.499 74.32)"/>
        <path id="패스_6640" data-name="패스 6640" d="M-848.478,55.634c.393-.338.792-.675,1.2-1.023a2.271,2.271,0,0,0,.3-3.2,2.271,2.271,0,0,0-3.2-.3c-.438.364-.861.721-1.276,1.078a2.276,2.276,0,0,0-.231,3.208A2.269,2.269,0,0,0-848.478,55.634Z" transform="translate(862.001 78.51)"/>
        <path id="패스_6641" data-name="패스 6641" d="M-850.281,57.652q.424-.575.922-1.179a2.272,2.272,0,0,0-.3-3.2,2.276,2.276,0,0,0-3.2.305q-.57.692-1.078,1.377a2.275,2.275,0,0,0,.48,3.178A2.273,2.273,0,0,0-850.281,57.652Z" transform="translate(857.181 83.359)"/>
        <path id="패스_6642" data-name="패스 6642" d="M-810.176,42.833l.039.091a19.463,19.463,0,0,0,2.237,3.961l11.643,20.457a4.874,4.874,0,0,0,1.467,1.636,3.864,3.864,0,0,0,2.2.7,4.339,4.339,0,0,0,3.584-2.14s3.451-5.367,6.935-10.782q.769-1.2,1.529-2.38c1.2-1.873,2.357-3.665,3.3-5.126.665-1.036,1.224-1.912,1.63-2.539.2-.318.364-.571.481-.753l.234-.373.026-.039.945-1.74.036-.071.033-.068a19.673,19.673,0,0,0,1.831-8.22,19.8,19.8,0,0,0-19.792-19.791,19.8,19.8,0,0,0-19.794,19.791,19.677,19.677,0,0,0,1.224,6.665l.124.393.068.227Zm18.35-22.632a15.177,15.177,0,0,1,10.779,4.464,15.191,15.191,0,0,1,4.464,10.782,15.141,15.141,0,0,1-1.393,6.276l-.844,1.555c-.36.571-3.847,6-7.237,11.272-2.879,4.474-5.665,8.808-6.5,10.1l-11.461-20.136-.078-.1a15.247,15.247,0,0,1-1.812-3.162l-.149-.484-.016-.055-.02-.052a15.1,15.1,0,0,1-.98-5.211,15.19,15.19,0,0,1,4.464-10.782A15.184,15.184,0,0,1-791.827,20.2Z" transform="translate(953.249 0.019)"/>
        <path id="패스_6643" data-name="패스 6643" d="M-798.886,37.382a9.6,9.6,0,0,0,9.594-9.594,9.6,9.6,0,0,0-9.594-9.594,9.6,9.6,0,0,0-9.594,9.594A9.6,9.6,0,0,0-798.886,37.382Zm0-14.642a5.056,5.056,0,0,1,5.049,5.048,5.055,5.055,0,0,1-5.049,5.045,5.055,5.055,0,0,1-5.049-5.045A5.056,5.056,0,0,1-798.886,22.74Z" transform="translate(960.306 5.723)"/>
        <path id="패스_6644" data-name="패스 6644" d="M-825.2,64.15a3.875,3.875,0,0,0,2.2.7,4.342,4.342,0,0,0,3.584-2.14s3.451-5.367,6.935-10.782c.7-1.091,1.4-2.172,2.071-3.224,1-1.562,1.958-3.042,2.753-4.282.666-1.036,1.224-1.912,1.63-2.539.2-.318.361-.571.481-.753l.234-.373.026-.039.945-1.743.036-.068.032-.071a19.646,19.646,0,0,0,1.831-8.217,19.794,19.794,0,0,0-19.791-19.791,19.8,19.8,0,0,0-19.794,19.791,19.668,19.668,0,0,0,1.224,6.665l.192.62.029.1.039.091a19.464,19.464,0,0,0,2.237,3.961l10.8,18.973.844,1.48A4.881,4.881,0,0,0-825.2,64.15Zm-9.3-24.567a15.265,15.265,0,0,1-1.812-3.162l-.149-.484-.016-.055-.019-.052a15.106,15.106,0,0,1-.98-5.211,15.184,15.184,0,0,1,4.464-10.782,15.184,15.184,0,0,1,10.782-4.464,15.177,15.177,0,0,1,10.779,4.464,15.184,15.184,0,0,1,4.464,10.782,15.143,15.143,0,0,1-1.393,6.276l-.844,1.555c-.36.571-3.847,6-7.24,11.272-2.876,4.474-5.662,8.808-6.5,10.1l-11.461-20.136Z" transform="translate(884.934 -10.828)"/>
        <path id="패스_6645" data-name="패스 6645" d="M-819.7,22.961a9.6,9.6,0,0,0-9.594-9.594,9.6,9.6,0,0,0-9.594,9.594,9.6,9.6,0,0,0,9.594,9.594A9.6,9.6,0,0,0-819.7,22.961Zm-9.594-5.048a5.056,5.056,0,0,1,5.049,5.048,5.055,5.055,0,0,1-5.049,5.045,5.055,5.055,0,0,1-5.049-5.045A5.056,5.056,0,0,1-829.294,17.912Z" transform="translate(891.991 -5.124)"/>
        <path id="패스_6646" data-name="패스 6646" d="M-806.655,85.59a3.865,3.865,0,0,0,2.2.7,4.329,4.329,0,0,0,3.584-2.143s3.454-5.367,6.938-10.782c.643-1,1.282-2,1.909-2.971,1.065-1.656,2.075-3.227,2.915-4.532.666-1.039,1.224-1.912,1.63-2.542.2-.315.361-.568.478-.753l.237-.37.022-.042.211-.393.737-1.347.036-.071.032-.068a19.662,19.662,0,0,0,1.831-8.217,19.784,19.784,0,0,0-11.259-17.837,19.658,19.658,0,0,0-8.532-1.958,19.8,19.8,0,0,0-19.794,19.795,19.644,19.644,0,0,0,1.224,6.662l.191.623.029.1.039.091a19.362,19.362,0,0,0,2.237,3.961l10.052,17.665,1.591,2.792A4.941,4.941,0,0,0-806.655,85.59Zm-9.3-24.57a14.865,14.865,0,0,1-1.812-3.159l-.149-.487-.016-.052-.02-.055a15.089,15.089,0,0,1-.98-5.208,15.2,15.2,0,0,1,4.464-10.785,15.192,15.192,0,0,1,10.782-4.464,15.19,15.19,0,0,1,10.779,4.464,15.2,15.2,0,0,1,4.464,10.785,15.081,15.081,0,0,1-1.4,6.272l-.841,1.558c-.36.571-3.847,6-7.24,11.272-2.876,4.471-5.662,8.8-6.5,10.1L-815.882,61.13Z" transform="translate(926.602 37.33)"/>
        <path id="패스_6647" data-name="패스 6647" d="M-801.154,44.4a9.6,9.6,0,0,0-9.594-9.594,9.6,9.6,0,0,0-9.594,9.594,9.6,9.6,0,0,0,9.594,9.594A9.6,9.6,0,0,0-801.154,44.4Zm-9.594-5.048A5.058,5.058,0,0,1-805.7,44.4a5.056,5.056,0,0,1-5.049,5.048A5.056,5.056,0,0,1-815.8,44.4,5.058,5.058,0,0,1-810.747,39.348Z" transform="translate(933.659 43.035)"/>
      </g>
      <g id="그룹_3354" data-name="그룹 3354" transform="translate(-596.933 125.991)">
        <rect id="사각형_2349" data-name="사각형 2349" width="9.427" height="9.432" transform="translate(1.216 7.882) rotate(-45)" fill="#f7d979"/>
        <path id="패스_6648" data-name="패스 6648" d="M-774.658,62.069a1.217,1.217,0,0,1-.863-.357l-6.672-6.669a1.229,1.229,0,0,1,0-1.724l6.666-6.662a1.213,1.213,0,0,1,1.721,0l6.672,6.662a1.223,1.223,0,0,1,0,1.724l-6.666,6.669A1.208,1.208,0,0,1-774.658,62.069Zm-4.951-7.886,4.951,4.948,4.942-4.948-4.948-4.945Z" transform="translate(782.546 -46.3)"/>
      </g>
      <g id="그룹_3355" data-name="그룹 3355" transform="translate(-865.165 111.277)">
        <rect id="사각형_2350" data-name="사각형 2350" width="9.427" height="9.432" transform="translate(1.217 7.881) rotate(-45)" fill="#f7d979"/>
        <path id="패스_6649" data-name="패스 6649" d="M-857.276,57.538a1.229,1.229,0,0,1-.864-.357l-6.672-6.672a1.225,1.225,0,0,1,0-1.721l6.665-6.665a1.219,1.219,0,0,1,1.721,0l6.672,6.665a1.213,1.213,0,0,1,0,1.721l-6.665,6.672A1.222,1.222,0,0,1-857.276,57.538Zm-4.951-7.889,4.951,4.948,4.941-4.948-4.948-4.945Z" transform="translate(865.165 -41.767)"/>
      </g>
      <g id="그룹_3356" data-name="그룹 3356" transform="translate(-841.67 20.211)">
        <path id="패스_6650" data-name="패스 6650" d="M-852.549,19.147H-856.3a1.624,1.624,0,0,1-1.623-1.623A1.622,1.622,0,0,1-856.3,15.9h3.756a1.622,1.622,0,0,1,1.623,1.623A1.624,1.624,0,0,1-852.549,19.147Z" transform="translate(857.928 -8.816)" fill="#1baf92"/>
        <path id="패스_6651" data-name="패스 6651" d="M-849.341,19.147h-3.753a1.624,1.624,0,0,1-1.623-1.623,1.622,1.622,0,0,1,1.623-1.623h3.753a1.62,1.62,0,0,1,1.623,1.623A1.622,1.622,0,0,1-849.341,19.147Z" transform="translate(865.142 -8.816)" fill="#1baf92"/>
        <path id="패스_6652" data-name="패스 6652" d="M-854.121,20.711a1.622,1.622,0,0,1-1.624-1.623V15.341a1.624,1.624,0,0,1,1.624-1.623,1.624,1.624,0,0,1,1.623,1.623v3.747A1.622,1.622,0,0,1-854.121,20.711Z" transform="translate(862.835 -13.718)" fill="#1baf92"/>
        <path id="패스_6653" data-name="패스 6653" d="M-854.121,23.929a1.622,1.622,0,0,1-1.624-1.623V18.552a1.624,1.624,0,0,1,1.624-1.623,1.624,1.624,0,0,1,1.623,1.623v3.753A1.622,1.622,0,0,1-854.121,23.929Z" transform="translate(862.835 -6.504)" fill="#1baf92"/>
      </g>
      <g id="그룹_3357" data-name="그룹 3357" transform="translate(-631.844 36.067)">
        <path id="패스_6654" data-name="패스 6654" d="M-787.923,24.03h-3.753a1.62,1.62,0,0,1-1.623-1.623,1.622,1.622,0,0,1,1.623-1.623h3.753a1.624,1.624,0,0,1,1.623,1.623A1.622,1.622,0,0,1-787.923,24.03Z" transform="translate(793.299 -13.702)" fill="#1baf92"/>
        <path id="패스_6655" data-name="패스 6655" d="M-784.709,24.03h-3.756a1.622,1.622,0,0,1-1.623-1.623,1.624,1.624,0,0,1,1.623-1.623h3.756a1.624,1.624,0,0,1,1.623,1.623A1.622,1.622,0,0,1-784.709,24.03Z" transform="translate(800.511 -13.702)" fill="#1baf92"/>
        <path id="패스_6656" data-name="패스 6656" d="M-789.493,25.6a1.624,1.624,0,0,1-1.624-1.623V20.225a1.622,1.622,0,0,1,1.624-1.623,1.622,1.622,0,0,1,1.623,1.623v3.747A1.624,1.624,0,0,1-789.493,25.6Z" transform="translate(798.203 -18.602)" fill="#1baf92"/>
        <path id="패스_6657" data-name="패스 6657" d="M-789.493,28.813a1.624,1.624,0,0,1-1.624-1.623V23.436a1.622,1.622,0,0,1,1.624-1.623,1.622,1.622,0,0,1,1.623,1.623v3.753A1.624,1.624,0,0,1-789.493,28.813Z" transform="translate(798.203 -11.388)" fill="#1baf92"/>
      </g>
    </g>
  </g>
</svg>
