<svg xmlns="http://www.w3.org/2000/svg" xmlns:xlink="http://www.w3.org/1999/xlink" width="284" height="240" viewBox="0 0 284 240">
  <defs>
    <clipPath id="clip-path">
      <rect id="사각형_2335" data-name="사각형 2335" width="284" height="240" transform="translate(1124 1784)" fill="#e6e6e6"/>
    </clipPath>
    <clipPath id="clip-path-2">
      <rect id="사각형_2161" data-name="사각형 2161" width="272" height="230" transform="translate(798 1271.93)" fill="#e2f5ff"/>
    </clipPath>
  </defs>
  <g id="마스크_그룹_10" data-name="마스크 그룹 10" transform="translate(-1124 -1784)" clip-path="url(#clip-path)">
    <g id="마스크_그룹_3" data-name="마스크 그룹 3" transform="translate(332 512.07)" clip-path="url(#clip-path-2)">
      <g id="그룹_49" data-name="그룹 49" transform="translate(824.817 1290.149)">
        <rect id="사각형_2155" data-name="사각형 2155" width="9.258" height="9.262" transform="translate(201.683 140.394) rotate(-45)" fill="#ffd66e"/>
        <path id="패스_6184" data-name="패스 6184" d="M429.011,287.371a1.2,1.2,0,0,1-.845-.351l-6.552-6.552a1.2,1.2,0,0,1,0-1.687l6.546-6.546a1.2,1.2,0,0,1,1.693,0l6.546,6.546a1.193,1.193,0,0,1,.006,1.687l-6.546,6.552A1.2,1.2,0,0,1,429.011,287.371Zm-4.856-7.748,4.856,4.862,4.853-4.862L429,274.77Z" transform="translate(-220.778 -139.23)"/>
        <path id="패스_6185" data-name="패스 6185" d="M365.283,281.578H361.6a1.594,1.594,0,1,1,0-3.188h3.686a1.594,1.594,0,0,1,0,3.188Z" transform="translate(-354.847 -124.998)" fill="#1baf92"/>
        <path id="패스_6186" data-name="패스 6186" d="M368.494,281.578h-3.686a1.594,1.594,0,1,1,0-3.188h3.686a1.594,1.594,0,1,1,0,3.188Z" transform="translate(-347.82 -124.998)" fill="#1baf92"/>
        <path id="패스_6187" data-name="패스 6187" d="M363.78,283.076a1.591,1.591,0,0,1-1.594-1.594V277.8a1.594,1.594,0,1,1,3.188,0v3.679A1.593,1.593,0,0,1,363.78,283.076Z" transform="translate(-350.069 -129.773)" fill="#1baf92"/>
        <path id="패스_6188" data-name="패스 6188" d="M363.78,286.293a1.593,1.593,0,0,1-1.594-1.594v-3.686a1.594,1.594,0,1,1,3.188,0V284.7A1.6,1.6,0,0,1,363.78,286.293Z" transform="translate(-350.069 -122.746)" fill="#1baf92"/>
        <rect id="사각형_2156" data-name="사각형 2156" width="9.254" height="9.258" transform="matrix(0.707, -0.707, 0.707, 0.707, 39.233, 8.238)" fill="#ffd66e"/>
        <path id="패스_6189" data-name="패스 6189" d="M378.4,246.751l-8.239-8.236,8.232-8.236,8.239,8.236Zm-4.856-8.236,4.856,4.856,4.853-4.856-4.859-4.853Z" transform="translate(-332.617 -230.28)"/>
        <path id="패스_6190" data-name="패스 6190" d="M419.875,240.47H416.2a1.594,1.594,0,0,1,0-3.188h3.679a1.594,1.594,0,0,1,0,3.188Z" transform="translate(-235.366 -214.957)" fill="#1baf92"/>
        <path id="패스_6191" data-name="패스 6191" d="M423.088,240.47h-3.683a1.594,1.594,0,1,1,0-3.188h3.683a1.594,1.594,0,1,1,0,3.188Z" transform="translate(-228.342 -214.957)" fill="#1baf92"/>
        <path id="패스_6192" data-name="패스 6192" d="M418.378,241.973a1.593,1.593,0,0,1-1.594-1.594v-3.686a1.594,1.594,0,1,1,3.188,0v3.686A1.6,1.6,0,0,1,418.378,241.973Z" transform="translate(-230.589 -219.734)" fill="#1baf92"/>
        <path id="패스_6193" data-name="패스 6193" d="M418.378,245.188a1.593,1.593,0,0,1-1.594-1.594v-3.689a1.594,1.594,0,1,1,3.188,0v3.689A1.6,1.6,0,0,1,418.378,245.188Z" transform="translate(-230.589 -212.705)" fill="#1baf92"/>
        <rect id="사각형_2157" data-name="사각형 2157" width="218.291" height="3.188" transform="translate(0 192.76)"/>
        <path id="패스_6194" data-name="패스 6194" d="M469.046,247.245s12.715,40.24,27.93,51.527c0,0,12.023,15.333-8.832,24.047H378.863s-13.767-10.675,0-26.5c0,0,25.2-24.232,27.567-52.143" transform="translate(-326.965 -199.866)"/>
        <path id="패스_6195" data-name="패스 6195" d="M489.239,325.508H379.958a1.6,1.6,0,0,1-.979-.335,18.975,18.975,0,0,1-6.657-12.24c-.532-5.471,1.633-11.044,6.434-16.563.347-.341,24.9-24.26,27.181-51.234a1.611,1.611,0,0,1,1.725-1.451,1.591,1.591,0,0,1,1.454,1.722c-2.388,28.185-27,52.152-28.048,53.156-4.1,4.719-6,9.469-5.573,14.022a15.84,15.84,0,0,0,5.057,9.734H488.917c6.026-2.576,9.619-5.94,10.678-9.992,1.39-5.341-1.993-10.391-2.662-11.325-15.365-11.644-27.787-50.529-28.31-52.184a1.593,1.593,0,1,1,3.038-.96c.131.4,12.741,39.877,27.363,50.727a1.664,1.664,0,0,1,.3.3c.214.277,5.283,6.852,3.351,14.249-1.339,5.133-5.653,9.259-12.827,12.256A1.6,1.6,0,0,1,489.239,325.508Z" transform="translate(-328.06 -200.961)"/>
        <path id="패스_6196" data-name="패스 6196" d="M391.631,276.882c10.181-13.547,35.7-17.584,35.7-17.584l14.944-.609v-.067l.861.032.864-.032v.067l14.947.609s25.52,4.036,35.7,17.584c0,0,34.463,20.919,21.716,85.729H369.915C375.064,303.352,391.631,276.882,391.631,276.882Z" transform="translate(-333.155 -168.257)" fill="#fff"/>
        <path id="패스_6197" data-name="패스 6197" d="M517.458,365.3H371.01a1.591,1.591,0,0,1-1.588-1.735c5.124-58.959,21.266-85.34,21.952-86.433,10.528-14.019,35.738-18.148,36.8-18.311l14.714-.612a1.144,1.144,0,0,1,.536-.086l.858.035.756-.035a1.308,1.308,0,0,1,.577.089l14.491.587c1.247.185,26.167,4.269,36.73,17.985,3.488,2.254,34.549,24.353,22.182,87.23A1.587,1.587,0,0,1,517.458,365.3Zm-144.7-3.188H516.141c11.66-61.832-20.9-82.569-21.228-82.776a1.524,1.524,0,0,1-.44-.4c-9.689-12.881-34.431-16.921-34.68-16.962l-14.759-.593a1.368,1.368,0,0,1-.344-.048l-.4.016-.517-.019a1.152,1.152,0,0,1-.335.051l-14.941.609c-.067.025-24.822,4.081-34.492,16.946C393.915,279.084,377.973,305.222,372.754,362.115Z" transform="translate(-334.25 -169.356)"/>
        <path id="패스_6198" data-name="패스 6198" d="M389.9,265.523v-4.967a24.844,24.844,0,0,1,49.687,0v4.967c5.357-1.288,7.193,3.007,6.721,7.27-.449,3.989-3.01,7.269-6.721,7.269v.325A24.771,24.771,0,0,1,429.559,300.3v7.776c0,7.7-6.632,13.949-14.816,13.949s-14.813-6.246-14.813-13.949V300.3A24.78,24.78,0,0,1,389.9,280.387v-.325c-3.711,0-6.271-3.281-6.718-7.269C382.7,268.53,384.542,264.235,389.9,265.523Z" transform="translate(-304.29 -218.393)" fill="#fff"/>
        <path id="패스_6199" data-name="패스 6199" d="M415.835,324.709c-9.049,0-16.407-6.97-16.407-15.543v-6.992a26.157,26.157,0,0,1-10.008-19.586c-3.549-.756-6.227-4.049-6.731-8.526a9.357,9.357,0,0,1,1.843-7.292,5.955,5.955,0,0,1,4.862-1.974V261.65a26.438,26.438,0,0,1,52.876,0V264.8a5.99,5.99,0,0,1,4.865,1.974,9.407,9.407,0,0,1,1.849,7.292c-.5,4.476-3.182,7.77-6.734,8.526a26.184,26.184,0,0,1-10.005,19.586v6.992C432.246,317.74,424.884,324.709,415.835,324.709Zm-26.664-56.727a2.838,2.838,0,0,0-2.261.915,6.374,6.374,0,0,0-1.052,4.814c.319,2.815,2.053,5.851,5.13,5.851a1.591,1.591,0,0,1,1.594,1.594v.325a23.052,23.052,0,0,0,9.393,18.63,1.588,1.588,0,0,1,.641,1.279v7.776c0,6.813,5.927,12.355,13.219,12.355s13.222-5.541,13.222-12.355V301.39a1.584,1.584,0,0,1,.641-1.279,23.043,23.043,0,0,0,9.383-18.63v-.325a1.6,1.6,0,0,1,1.594-1.594c3.077,0,4.821-3.035,5.14-5.854a6.37,6.37,0,0,0-1.052-4.811q-1.205-1.344-3.715-.727a1.6,1.6,0,0,1-1.967-1.553V261.65a23.25,23.25,0,0,0-46.5,0v4.967a1.592,1.592,0,0,1-1.967,1.553A6.058,6.058,0,0,0,389.171,267.982Z" transform="translate(-305.383 -219.487)"/>
        <path id="패스_6200" data-name="패스 6200" d="M395.167,247.906a2.189,2.189,0,1,0,2.191-2.194A2.193,2.193,0,0,0,395.167,247.906Z" transform="translate(-277.895 -196.509)"/>
        <path id="패스_6201" data-name="패스 6201" d="M389.515,247.906a2.192,2.192,0,1,0,2.19-2.194A2.195,2.195,0,0,0,389.515,247.906Z" transform="translate(-290.264 -196.509)"/>
        <path id="패스_6202" data-name="패스 6202" d="M397.064,256.275h-3.625a1.2,1.2,0,0,1-1.2-1.2V247.8a1.2,1.2,0,1,1,2.391,0v6.08h2.43a1.2,1.2,0,1,1,0,2.391Z" transform="translate(-284.294 -194.548)"/>
        <path id="패스_6203" data-name="패스 6203" d="M399.323,261.83c-1.32,0-6.919-.211-10.876-3.549a1.594,1.594,0,1,1,2.057-2.436c3.469,2.93,8.956,2.79,8.991,2.793h.051a1.595,1.595,0,0,1,.057,3.188C399.571,261.827,399.476,261.83,399.323,261.83Z" transform="translate(-293.838 -175.161)"/>
        <path id="패스_6204" data-name="패스 6204" d="M403.479,249.43s8.3,23.552,35.656,22.328l6.788.249s8.06-20.613-12.553-33.864c0,0-11.2-9.2-29.891-3.313,0,0-22.86,4.722-19.9,39,0,0,3.022-4.1,7.068-1.247C391.51,264.947,393.42,255.063,403.479,249.43Z" transform="translate(-303.842 -224.627)"/>
        <path id="패스_6205" data-name="패스 6205" d="M384.666,276.519a1.6,1.6,0,0,1-1.588-1.457c-3.045-35.282,20.932-40.648,21.168-40.7a41.823,41.823,0,0,1,12.543-2c11.682,0,18.4,5.414,18.681,5.643,21.317,13.684,13.114,35.455,13.034,35.675a1.479,1.479,0,0,1-1.543,1.011l-6.788-.246c-.587.032-1.291.048-1.986.048-22.169,0-31.747-16.184-34.351-21.655-7.69,5.095-9.619,13.085-10.512,21.018a1.6,1.6,0,0,1-2.5,1.126,3.467,3.467,0,0,0-1.98-.717,4.265,4.265,0,0,0-2.889,1.607A1.593,1.593,0,0,1,384.666,276.519Zm32.123-40.967a39.168,39.168,0,0,0-11.74,1.894c-.995.22-20.294,4.687-18.993,34.323a6.181,6.181,0,0,1,4.378-.472c1.164-8.216,3.96-16.9,13.359-22.162a1.6,1.6,0,0,1,2.283.858c.319.9,8.4,22.424,34.084,21.27l5.723.2c1.275-4.247,4.588-20.042-12.288-30.886C433.391,240.426,427.269,235.551,416.789,235.551Z" transform="translate(-304.934 -225.722)"/>
        <path id="패스_6206" data-name="패스 6206" d="M393.028,274.343s17.176,21.263,31.629-8.028L407.844,257.5S410.172,272.341,393.028,274.343Z" transform="translate(-282.576 -170.715)" fill="#1baf92"/>
        <path id="패스_6207" data-name="패스 6207" d="M408.06,284.488h0c-8.573,0-14.912-7.722-15.173-8.047a1.576,1.576,0,0,1-.239-1.6,1.6,1.6,0,0,1,1.291-.985c5.025-.587,8.711-2.385,10.965-5.353a14.022,14.022,0,0,0,2.461-9.658,1.6,1.6,0,0,1,2.315-1.661L426.5,266a1.591,1.591,0,0,1,.689,2.114C421.824,278.976,415.39,284.488,408.06,284.488Zm-10.671-8c2.254,2.025,6.17,4.8,10.671,4.808,5.717,0,10.949-4.448,15.556-13.213l-13-6.814a16.55,16.55,0,0,1-3.176,9.154A16.947,16.947,0,0,1,397.389,276.492Z" transform="translate(-283.672 -171.808)"/>
        <path id="패스_6208" data-name="패스 6208" d="M414.741,274.343s-17.179,21.263-31.635-8.028l16.822-8.816S397.591,272.341,414.741,274.343Z" transform="translate(-304.289 -170.715)" fill="#1baf92"/>
        <path id="패스_6209" data-name="패스 6209" d="M401.9,284.488c-7.33,0-13.761-5.513-19.124-16.379a1.587,1.587,0,0,1,.685-2.114l16.819-8.816a1.6,1.6,0,0,1,2.318,1.655,14.105,14.105,0,0,0,2.477,9.689c2.254,2.952,5.937,4.741,10.942,5.328a1.6,1.6,0,0,1,1.059,2.589C416.806,276.766,410.474,284.488,401.9,284.488Zm-15.562-16.4c4.61,8.765,9.839,13.213,15.562,13.213,4.5,0,8.42-2.783,10.675-4.808a16.918,16.918,0,0,1-10.056-6.064,16.481,16.481,0,0,1-3.179-9.154Z" transform="translate(-305.381 -171.809)"/>
        <g id="그룹_46" data-name="그룹 46" transform="translate(156.418 101.214)">
          <path id="패스_6210" data-name="패스 6210" d="M437.716,262.525s7.971.067,8.172,11.025H408.026s-1-9.1,3.985-11.025Z" transform="translate(-406.352 -260.931)" fill="#1baf92"/>
          <path id="패스_6211" data-name="패스 6211" d="M447.042,276.239a.2.2,0,0,0-.061,0H409.119a1.592,1.592,0,0,1-1.581-1.422c-.051-.418-1.059-10.34,4.993-12.686a1.674,1.674,0,0,1,.574-.105h25.7c.105,0,9.3.217,9.753,12.132a1.64,1.64,0,0,1,.073.488A1.589,1.589,0,0,1,447.042,276.239Zm-36.418-3.188h34.667c-.816-7.693-6.246-7.837-6.495-7.837H413.433C411.055,266.383,410.589,270.458,410.624,273.05Z" transform="translate(-407.445 -262.025)"/>
        </g>
        <g id="그룹_47" data-name="그룹 47" transform="translate(102.762 101.195)">
          <path id="패스_6212" data-name="패스 6212" d="M474.543,262.537H399.884s-7.971-.8-8.768,8.5v94.589H461.4s7.821.8,7.292-12.221V274.758S467.369,265.725,474.543,262.537Z" transform="translate(-389.522 -260.924)" fill="#fff"/>
          <path id="패스_6213" data-name="패스 6213" d="M462.759,368.325c-.054,0-.367-.013-.424-.019l-70.125.01a1.6,1.6,0,0,1-1.594-1.594V272.133c.634-7.489,5.532-10.114,9.9-10.114.4,0,.628.026.628.026l74.5-.006a1.594,1.594,0,0,1,.647,3.051c-5.959,2.646-4.961,10.216-4.913,10.538l.013,78.874c.214,5.172-.835,9.036-3.118,11.414A7.712,7.712,0,0,1,462.759,368.325Zm-68.955-3.2,68.955.01a4.526,4.526,0,0,0,3.2-1.432c1.639-1.7,2.41-4.862,2.235-9.138V275.853a14.52,14.52,0,0,1,2.777-10.627l-70.46-.019c-1.84,0-6.166.692-6.715,7.062Z" transform="translate(-390.616 -262.019)"/>
        </g>
        <g id="그룹_48" data-name="그룹 48" transform="translate(89.721 190.489)">
          <path id="패스_6214" data-name="패스 6214" d="M470.356,304.34h-77.2s-7.7-3.386-5.841-13.815h75.156S461.674,303.843,470.356,304.34Z" transform="translate(-385.433 -288.931)" fill="#1baf92"/>
          <path id="패스_6215" data-name="패스 6215" d="M471.512,307.029a.213.213,0,0,0-.064,0h-77.2a1.605,1.605,0,0,1-.641-.134c-.086-.038-8.826-4.027-6.769-15.556a1.6,1.6,0,0,1,1.569-1.314h75.156a1.6,1.6,0,0,1,1.594,1.69,22.9,22.9,0,0,0,.654,6.284c1.463,5.522,4.591,5.777,5.688,5.841h.013a1.594,1.594,0,1,1,0,3.188Zm-76.884-3.188h70.5c-2.6-3.22-3.1-8.079-3.166-10.627H389.8C389.087,300.285,393.5,303.209,394.628,303.84Z" transform="translate(-386.526 -290.025)"/>
        </g>
        <rect id="사각형_2158" data-name="사각형 2158" width="51.014" height="29.692" transform="translate(117.104 118.219)" fill="#ffd66e"/>
        <path id="패스_6216" data-name="패스 6216" d="M447.222,282.546H396.208a1.594,1.594,0,0,1,0-3.188h51.014a1.594,1.594,0,1,1,0,3.188Z" transform="translate(-279.105 -122.88)"/>
        <path id="패스_6217" data-name="패스 6217" d="M405.773,285.3h-9.565a1.594,1.594,0,0,1,0-3.188h9.565a1.594,1.594,0,1,1,0,3.188Z" transform="translate(-279.105 -116.862)"/>
        <path id="패스_6218" data-name="패스 6218" d="M435.186,285.3H401.708a1.594,1.594,0,0,1,0-3.188h33.478a1.594,1.594,0,1,1,0,3.188Z" transform="translate(-267.069 -116.862)"/>
        <path id="패스_6219" data-name="패스 6219" d="M447.222,288.3H396.208a1.594,1.594,0,0,1,0-3.188h51.014a1.594,1.594,0,1,1,0,3.188Z" transform="translate(-279.105 -110.297)"/>
        <path id="패스_6220" data-name="패스 6220" d="M423.022,268.278a8.468,8.468,0,0,1-8.468,8.471h-4.177a8.473,8.473,0,0,1-8.478-8.471h0a8.473,8.473,0,0,1,8.478-8.472h4.177a8.468,8.468,0,0,1,8.468,8.472Z" transform="translate(-263.163 -165.666)" fill="#fff"/>
        <path id="패스_6221" data-name="패스 6221" d="M415.648,279.437h-4.177a10.066,10.066,0,1,1,0-20.131h4.177a10.066,10.066,0,0,1,0,20.131Zm-4.177-16.943a6.877,6.877,0,1,0,0,13.755h4.177a6.877,6.877,0,0,0,0-13.755Z" transform="translate(-264.257 -166.761)"/>
        <path id="패스_6222" data-name="패스 6222" d="M395.642,256.088a10.863,10.863,0,0,1-3.16-.488,1.194,1.194,0,1,1,.692-2.286c5.012,1.5,7.279-1.8,7.375-1.942a1.2,1.2,0,0,1,2,1.31A8.338,8.338,0,0,1,395.642,256.088Z" transform="translate(-285.636 -185.287)"/>
        <path id="패스_6223" data-name="패스 6223" d="M378.993,321.348a1.6,1.6,0,0,1-1.594-1.594V279.8a1.594,1.594,0,1,1,3.188,0v39.953A1.589,1.589,0,0,1,378.993,321.348Z" transform="translate(-316.778 -125.401)"/>
      </g>
    </g>
  </g>
</svg>
