<svg xmlns="http://www.w3.org/2000/svg" xmlns:xlink="http://www.w3.org/1999/xlink" width="284" height="240" viewBox="0 0 284 240">
  <defs>
    <clipPath id="clip-path">
      <rect id="사각형_2336" data-name="사각형 2336" width="284" height="240" transform="translate(512 2348)" fill="#e6e6e6"/>
    </clipPath>
    <clipPath id="clip-path-2">
      <rect id="사각형_2089" data-name="사각형 2089" width="264" height="264" transform="translate(620.782 1805.563)" fill="#c3c3c3"/>
    </clipPath>
  </defs>
  <g id="마스크_그룹_11" data-name="마스크 그룹 11" transform="translate(-512 -2348)" clip-path="url(#clip-path)">
    <g id="마스크_그룹_4" data-name="마스크 그룹 4" transform="translate(-92.782 530.437)" clip-path="url(#clip-path-2)">
      <g id="그룹_3274" data-name="그룹 3274" transform="translate(620.988 1826.263)">
        <path id="패스_6003" data-name="패스 6003" d="M379.869,366.093V319.168a4.569,4.569,0,0,1-2.031.507,5.35,5.35,0,0,1-4.15-2.156L369.62,312.4l-1.953,1.476v52.214Z" transform="translate(-168.408 -242.013)" fill="#fff"/>
        <path id="패스_6004" data-name="패스 6004" d="M322.192,403.442H496.673a3.712,3.712,0,0,0,3.7-3.7v-4.9h-4.224a6.3,6.3,0,0,1-6.288-6.288V371.3a6.3,6.3,0,0,1,6.288-6.288h4.224V312.8l-101.1,76.33L369.968,354.5l-51.475,36.713v8.533A3.712,3.712,0,0,0,322.192,403.442Z" transform="translate(-301.113 -240.936)" fill="#1baf92"/>
        <path id="패스_6005" data-name="패스 6005" d="M318.493,312.472v64.139L373.448,337.4l28.979,34.254,83.305-62.885H322.192A3.712,3.712,0,0,0,318.493,312.472Z" transform="translate(-301.113 -251.809)" fill="#1baf92"/>
        <path id="패스_6006" data-name="패스 6006" d="M345.606,346.172a3.46,3.46,0,1,0-3.462-3.462A3.459,3.459,0,0,0,345.606,346.172Z" transform="translate(-237.286 -169.556)"/>
        <path id="패스_6007" data-name="패스 6007" d="M376.451,301.9Z" transform="translate(-144.702 -270.345)" fill="#fff"/>
        <path id="패스_6008" data-name="패스 6008" d="M546.807,300.932a6.391,6.391,0,0,0-1.735.255L500.7,313.7a5.682,5.682,0,0,0-2.792,1.716,4.742,4.742,0,0,0-1.165,3.111,5.248,5.248,0,0,0,.736,2.511,6.462,6.462,0,0,0,.544.943l4.1,5.156-3.7,2.792-83.305,62.885-28.979-34.253-54.955,39.206-.629.447v25.473l.629-.447,51.475-36.713,29.308,34.634,101.1-76.33,1.953-1.476,4.069,5.115a5.35,5.35,0,0,0,4.15,2.156,4.57,4.57,0,0,0,2.031-.507V397.05H508.829a6.3,6.3,0,0,0-6.288,6.288v17.247a6.3,6.3,0,0,0,6.288,6.288h16.426v27.1a1.134,1.134,0,0,1-1.11,1.106H320.082a1.134,1.134,0,0,1-1.11-1.106V318.837a1.134,1.134,0,0,1,1.11-1.106H489.555a2.715,2.715,0,0,0,2.593-2.593,2.593,2.593,0,0,0-2.593-2.589H320.082a6.3,6.3,0,0,0-6.288,6.288V453.969a6.3,6.3,0,0,0,6.288,6.288h72.949v32.556h-9.08a2.589,2.589,0,1,0,0,5.178h76.966a2.589,2.589,0,1,0,0-5.178H451.2V460.257h72.946a6.3,6.3,0,0,0,6.288-6.288v-27.1h10.3a6.3,6.3,0,0,0,6.291-6.288V403.337a6.3,6.3,0,0,0-6.291-6.288h-10.3V343.678c0-.111-.052-.2-.059-.311a2.555,2.555,0,0,0-.987-1.983,2.466,2.466,0,0,0-.477-.229,2.557,2.557,0,0,0-3.151.729l-2.574,3.4-.011.015-.044-.048-7.212-9.066L412.745,414.078l-29.223-34.531-47.794,34.087V400.885l49.525-35.337,29.072,34.357,95.149-71.832-7.4-9.306-.034-.052.067-.03,42.231-11.91L529.8,333.255a2.586,2.586,0,0,0,1.025,3.514c.044.026.1.026.148.048a2.57,2.57,0,0,0,3.366-1.069l15.612-28.428a5.6,5.6,0,0,0,.769-2.674,3.67,3.67,0,0,0-1.239-2.789A4,4,0,0,0,546.807,300.932Zm-1.265,3.6Zm-3.7,98.81v17.247a1.137,1.137,0,0,1-1.109,1.109h-31.9a1.134,1.134,0,0,1-1.106-1.109V403.337a1.134,1.134,0,0,1,1.106-1.109h31.9A1.137,1.137,0,0,1,541.844,403.337ZM398.209,460.257h47.813v32.556H398.209Z" transform="translate(-313.794 -272.969)"/>
        <path id="패스_6009" data-name="패스 6009" d="M391.58,301.131a2.589,2.589,0,0,0-3.436-3.873l-8.281,7.364a2.587,2.587,0,1,0,3.436,3.869Z" transform="translate(-137.85 -284.645)"/>
        <path id="패스_6010" data-name="패스 6010" d="M383.037,293.487A2.588,2.588,0,0,0,379.8,295.2l-3.68,11.961a2.589,2.589,0,0,0,4.949,1.524l3.68-11.961A2.589,2.589,0,0,0,383.037,293.487Z" transform="translate(-145.907 -293.372)"/>
        <path id="패스_6011" data-name="패스 6011" d="M396.394,302.554H382.483a2.589,2.589,0,0,0,0,5.178h13.911a2.589,2.589,0,1,0,0-5.178Z" transform="translate(-135.411 -268.592)"/>
        <path id="패스_6012" data-name="패스 6012" d="M391.25,329.424H369.679a2.589,2.589,0,0,0,0,5.178H391.25a2.589,2.589,0,0,0,0-5.178Z" transform="translate(-169.965 -196.078)"/>
      </g>
    </g>
  </g>
</svg>
