<svg xmlns="http://www.w3.org/2000/svg" xmlns:xlink="http://www.w3.org/1999/xlink" width="284" height="240" viewBox="0 0 284 240">
  <defs>
    <clipPath id="clip-path">
      <rect id="사각형_2337" data-name="사각형 2337" width="284" height="240" transform="translate(1124 2348)" fill="#e6e6e6"/>
    </clipPath>
  </defs>
  <g id="마스크_그룹_12" data-name="마스크 그룹 12" transform="translate(-1124 -2348)" clip-path="url(#clip-path)">
    <g id="그룹_3435" data-name="그룹 3435" transform="translate(2045.338 2592.803)">
      <g id="그룹_3422" data-name="그룹 3422" transform="translate(-732.934 -170.756)">
        <rect id="사각형_2376" data-name="사각형 2376" width="11.045" height="11.05" transform="translate(1.425 9.234) rotate(-45)" fill="#f7d979"/>
        <path id="패스_6801" data-name="패스 6801" d="M-847.085-192.67a1.425,1.425,0,0,1-1.012-.418l-7.817-7.813a1.439,1.439,0,0,1,0-2.02l7.809-7.805a1.421,1.421,0,0,1,2.016,0l7.817,7.805a1.426,1.426,0,0,1,0,2.02l-7.809,7.813A1.416,1.416,0,0,1-847.085-192.67Zm-5.8-9.243,5.8,5.8,5.789-5.8-5.8-5.793Z" transform="translate(856.328 211.146)"/>
      </g>
      <g id="그룹_3423" data-name="그룹 3423" transform="translate(-731.893 -225.552)">
        <path id="패스_6802" data-name="패스 6802" d="M-849.758-219.564h-4.394a1.9,1.9,0,0,1-1.9-1.9,1.9,1.9,0,0,1,1.9-1.9h4.394a1.9,1.9,0,0,1,1.9,1.9A1.9,1.9,0,0,1-849.758-219.564Z" transform="translate(856.054 231.675)" fill="#1baf92"/>
        <path id="패스_6803" data-name="패스 6803" d="M-846.548-219.564h-4.393a1.9,1.9,0,0,1-1.9-1.9,1.9,1.9,0,0,1,1.9-1.9h4.393a1.9,1.9,0,0,1,1.9,1.9A1.9,1.9,0,0,1-846.548-219.564Z" transform="translate(865.057 231.675)" fill="#1baf92"/>
        <path id="패스_6804" data-name="패스 6804" d="M-851.968-217.347a1.9,1.9,0,0,1-1.9-1.9v-4.4a1.9,1.9,0,0,1,1.9-1.9,1.9,1.9,0,0,1,1.9,1.9v4.4A1.9,1.9,0,0,1-851.968-217.347Z" transform="translate(862.177 225.552)" fill="#1baf92"/>
        <path id="패스_6805" data-name="패스 6805" d="M-851.968-214.134a1.9,1.9,0,0,1-1.9-1.9v-4.4a1.9,1.9,0,0,1,1.9-1.9,1.9,1.9,0,0,1,1.9,1.9v4.4A1.9,1.9,0,0,1-851.968-214.134Z" transform="translate(862.177 234.56)" fill="#1baf92"/>
      </g>
      <g id="그룹_3424" data-name="그룹 3424" transform="translate(-694.171 -154.46)">
        <path id="패스_6806" data-name="패스 6806" d="M-839.845-200.875h-4.39a1.9,1.9,0,0,1-1.9-1.9,1.9,1.9,0,0,1,1.9-1.9h4.39a1.9,1.9,0,0,1,1.9,1.9A1.9,1.9,0,0,1-839.845-200.875Z" transform="translate(846.137 212.983)" fill="#1baf92"/>
        <path id="패스_6807" data-name="패스 6807" d="M-836.634-200.875h-4.39a1.9,1.9,0,0,1-1.9-1.9,1.9,1.9,0,0,1,1.9-1.9h4.39a1.9,1.9,0,0,1,1.9,1.9A1.9,1.9,0,0,1-836.634-200.875Z" transform="translate(855.14 212.983)" fill="#1baf92"/>
        <path id="패스_6808" data-name="패스 6808" d="M-842.052-198.661a1.9,1.9,0,0,1-1.9-1.9v-4.4a1.9,1.9,0,0,1,1.9-1.9,1.9,1.9,0,0,1,1.9,1.9v4.4A1.9,1.9,0,0,1-842.052-198.661Z" transform="translate(852.258 206.862)" fill="#1baf92"/>
        <path id="패스_6809" data-name="패스 6809" d="M-842.052-195.448a1.9,1.9,0,0,1-1.9-1.9v-4.4a1.9,1.9,0,0,1,1.9-1.9,1.9,1.9,0,0,1,1.9,1.9v4.4A1.9,1.9,0,0,1-842.052-195.448Z" transform="translate(852.258 215.87)" fill="#1baf92"/>
      </g>
      <path id="패스_6810" data-name="패스 6810" d="M-864.631-172.8l-8.228-27.14a14.075,14.075,0,0,0-17.531-9.426c-7.44,2.233-10.308,10.327-8.068,17.771l17.859,67.327c1.769,6.832,4.538,11.3,6.923,13.043,1.986,2.043,2.94,3.576,5.565,4.991l23,12.362c14.884,8,35.485.327,47.395-12.1l27.262-32.092,5.728-15.455-79.449-45.447Z" transform="translate(3.189 43.689)" fill="#fff"/>
      <path id="패스_6811" data-name="패스 6811" d="M-830.1-87.505a30.3,30.3,0,0,1-14.534-3.488l-23-12.362a16.41,16.41,0,0,1-4.743-3.96c-.358-.4-.734-.814-1.161-1.255-3.009-2.29-5.793-7.482-7.466-13.937l-17.851-67.319a17.758,17.758,0,0,1,.483-11.989,13.7,13.7,0,0,1,8.791-7.946,15.8,15.8,0,0,1,4.568-.677,15.974,15.974,0,0,1,15.185,11.3l7.231,23.853,18.338-23.465a1.785,1.785,0,0,1,2.29-.453l79.449,45.451a1.784,1.784,0,0,1,.787,2.164l-5.732,15.451a1.8,1.8,0,0,1-.312.536l-27.262,32.092C-804.381-93.758-818.116-87.505-830.1-87.505Zm-54.915-119.37a12.342,12.342,0,0,0-3.541.525,10.075,10.075,0,0,0-6.535,5.922,14.233,14.233,0,0,0-.339,9.631l17.87,67.384c1.769,6.813,4.39,10.7,6.257,12.062a2.189,2.189,0,0,1,.225.2c.495.51.932.993,1.343,1.445a12.874,12.874,0,0,0,3.789,3.214l23,12.362A26.83,26.83,0,0,0-830.1-91.069c11.061,0,23.789-5.82,32.416-14.827l26.984-31.777,5.1-13.739-76.8-43.934-19.506,24.957a1.778,1.778,0,0,1-1.731.654,1.784,1.784,0,0,1-1.377-1.236l-8.228-27.14A12.379,12.379,0,0,0-885.017-206.875Z" transform="translate(1.871 42.373)"/>
      <g id="그룹_3425" data-name="그룹 3425" transform="translate(-793.214 -191.877)">
        <path id="패스_6812" data-name="패스 6812" d="M-832.884-213.161a10.673,10.673,0,0,0-15.086.107l-20.533,20.2a10.678,10.678,0,0,0-.164,15.09,10.674,10.674,0,0,0,15.09-.114l20.327-20.019C-829.035-202.1-828.761-209.027-832.884-213.161Z" transform="translate(873.486 218.011)" fill="#fff"/>
        <path id="패스_6813" data-name="패스 6813" d="M-859.93-171.6h0a12.172,12.172,0,0,1-8.688-3.595,12.467,12.467,0,0,1,.168-17.608l20.54-20.209a12.556,12.556,0,0,1,8.9-3.686,12.186,12.186,0,0,1,8.7,3.591,11.983,11.983,0,0,1,3.462,8.92,12.978,12.978,0,0,1-3.831,8.863l-20.339,20.031A12.572,12.572,0,0,1-859.93-171.6Zm20.924-41.533a9.016,9.016,0,0,0-6.4,2.655l-20.54,20.206a8.9,8.9,0,0,0-.148,12.568,8.639,8.639,0,0,0,6.162,2.541,9.031,9.031,0,0,0,6.405-2.663l20.339-20.027a9.46,9.46,0,0,0,2.777-6.436,8.48,8.48,0,0,0-2.423-6.3A8.656,8.656,0,0,0-839.006-213.135Z" transform="translate(872.175 216.699)"/>
      </g>
      <g id="그룹_3427" data-name="그룹 3427" transform="translate(-854.72 -224.757)">
        <g id="그룹_3426" data-name="그룹 3426">
          <rect id="사각형_2377" data-name="사각형 2377" width="89.888" height="149.592" rx="2.324" transform="translate(1.782 1.782)" fill="#1baf92"/>
          <path id="패스_6814" data-name="패스 6814" d="M-805.518-72.188h-72.2a10.636,10.636,0,0,1-10.624-10.624V-214.719a10.636,10.636,0,0,1,10.624-10.624h72.2a10.636,10.636,0,0,1,10.624,10.624V-82.812A10.636,10.636,0,0,1-805.518-72.188Zm-72.2-149.591a7.065,7.065,0,0,0-7.06,7.06V-82.812a7.065,7.065,0,0,0,7.06,7.06h72.2a7.065,7.065,0,0,0,7.06-7.06V-214.719a7.065,7.065,0,0,0-7.06-7.06Z" transform="translate(888.345 225.343)"/>
        </g>
        <rect id="사각형_2378" data-name="사각형 2378" width="70.436" height="111.169" transform="translate(11.506 18.588)" fill="#fff"/>
        <path id="패스_6815" data-name="패스 6815" d="M-862.671-218.979H-876.38a2.013,2.013,0,0,1-2.012-2.012A2.013,2.013,0,0,1-876.38-223h13.709a2.013,2.013,0,0,1,2.012,2.012A2.013,2.013,0,0,1-862.671-218.979Z" transform="translate(916.25 231.904)" fill="#fff"/>
        <path id="패스_6816" data-name="패스 6816" d="M-865.548-184.1a6.051,6.051,0,0,1-6.056,6.052,6.047,6.047,0,0,1-6.048-6.052,6.047,6.047,0,0,1,6.048-6.052A6.051,6.051,0,0,1-865.548-184.1Z" transform="translate(918.326 324.005)" fill="#fff"/>
      </g>
      <g id="그룹_3431" data-name="그룹 3431" transform="translate(-782.369 -159.975)">
        <g id="그룹_3428" data-name="그룹 3428" transform="translate(1.438 42.967)">
          <path id="패스_6817" data-name="패스 6817" d="M-837.876-185.988c0-5.831-3.515-10.559-9.464-10.559h-10.373a10.661,10.661,0,0,0-10.765,10.559,10.67,10.67,0,0,0,10.769,10.574h9.064A10.67,10.67,0,0,0-837.876-185.988Z" transform="translate(870.258 198.331)" fill="#fff"/>
          <path id="패스_6818" data-name="패스 6818" d="M-847.333-172.318H-856.4a12.467,12.467,0,0,1-12.549-12.355A12.461,12.461,0,0,1-856.4-197.016h10.373c6.622,0,11.244,5.078,11.244,12.343A12.467,12.467,0,0,1-847.333-172.318Zm-9.068-21.134a8.893,8.893,0,0,0-8.98,8.779,8.9,8.9,0,0,0,8.984,8.79h9.064a8.9,8.9,0,0,0,8.988-8.79c0-4.371-2.377-8.779-7.684-8.779Z" transform="translate(868.946 197.016)"/>
        </g>
        <g id="그룹_3429" data-name="그룹 3429">
          <path id="패스_6819" data-name="패스 6819" d="M-844.356-186.69a10.668,10.668,0,0,0,10.764-10.571,10.671,10.671,0,0,0-10.764-10.582h-13.736a10.668,10.668,0,0,0-10.765,10.578,10.669,10.669,0,0,0,10.765,10.571Z" transform="translate(870.636 209.627)" fill="#fff"/>
          <path id="패스_6820" data-name="패스 6820" d="M-843.044-183.6h-13.736a12.464,12.464,0,0,1-12.545-12.355,12.473,12.473,0,0,1,12.545-12.362l13.736,0A12.471,12.471,0,0,1-830.5-195.946,12.464,12.464,0,0,1-843.044-183.6Zm-13.736-21.153a8.907,8.907,0,0,0-8.981,8.8,8.9,8.9,0,0,0,8.977,8.79l13.739,0a8.9,8.9,0,0,0,8.984-8.79,8.9,8.9,0,0,0-8.984-8.8Z" transform="translate(869.324 208.312)"/>
        </g>
        <g id="그룹_3430" data-name="그룹 3430" transform="translate(0.612 21.495)">
          <path id="패스_6821" data-name="패스 6821" d="M-834.043-191.618a10.678,10.678,0,0,0-10.764-10.571l-13.12,0a10.682,10.682,0,0,0-10.768,10.574,10.674,10.674,0,0,0,10.772,10.567h14.416C-837.561-181.052-834.043-185.78-834.043-191.618Z" transform="translate(870.475 203.973)" fill="#fff"/>
          <path id="패스_6822" data-name="패스 6822" d="M-842.194-177.959H-856.61a12.464,12.464,0,0,1-12.553-12.347,12.472,12.472,0,0,1,12.548-12.355h13.12a12.471,12.471,0,0,1,12.548,12.355C-830.947-183.037-835.572-177.959-842.194-177.959Zm-14.42-21.141a8.9,8.9,0,0,0-8.984,8.8,8.9,8.9,0,0,0,8.988,8.779h14.416c5.306,0,7.684-4.409,7.684-8.783a8.9,8.9,0,0,0-8.984-8.79Z" transform="translate(869.163 202.661)"/>
        </g>
      </g>
      <rect id="사각형_2379" data-name="사각형 2379" width="6.971" height="36.071" transform="translate(-805.244 -180.32)"/>
      <rect id="사각형_2380" data-name="사각형 2380" width="6.973" height="45.029" transform="translate(-793.636 -189.278)" fill="#ffd66e"/>
      <rect id="사각형_2381" data-name="사각형 2381" width="6.973" height="17.566" transform="translate(-828.796 -154.207)"/>
      <rect id="사각형_2382" data-name="사각형 2382" width="6.973" height="26.544" transform="translate(-817.186 -163.185)" fill="#ffd66e"/>
      <path id="패스_6823" data-name="패스 6823" d="M-830.445-157.335h-53.044V-214.19a1.427,1.427,0,0,1,1.427-1.426,1.427,1.427,0,0,1,1.426,1.426v54h50.191a1.427,1.427,0,0,1,1.426,1.426A1.427,1.427,0,0,1-830.445-157.335Z" transform="translate(47.24 27.858)" fill="#2a2a2a"/>
      <path id="패스_6824" data-name="패스 6824" d="M-821.815-150.891l-12.549,21.29-65.249-35.38,12.527-21.883Z" transform="translate(2.03 108.471)" fill="#1baf92"/>
      <g id="그룹_3432" data-name="그룹 3432" transform="translate(-899.434 -81.119)">
        <path id="패스_6825" data-name="패스 6825" d="M-900.1-164.3l12.256-22.355a1.781,1.781,0,0,1,2.419-.7l66.11,36.223a1.786,1.786,0,0,1,.707,2.419l-12.252,22.359-3.123-1.716,11.392-20.791-62.987-34.515-11.4,20.791Z" transform="translate(900.1 187.581)"/>
      </g>
      <rect id="사각형_2383" data-name="사각형 2383" width="3.803" height="78.954" transform="translate(-900.338 -56.191) rotate(-61.251)"/>
      <circle id="타원_86" data-name="타원 86" cx="4.787" cy="4.787" r="4.787" transform="translate(-840.713 -41.486)" fill="#fff" stroke="#000" stroke-miterlimit="10" stroke-width="3"/>
      <g id="그룹_3433" data-name="그룹 3433" transform="translate(-807.671 -142.702)">
        <path id="패스_6826" data-name="패스 6826" d="M-753.569-120.371c6.185-9.061,6.463-21.872-.24-32.355l-1.613-2.533-3.8-5.934-8.083-12.648-6.345-9.932-.449-.7-.974-1.525-5.177-8.1c-3.282-5.131-9.787-6.831-14.526-3.8s-5.934,9.646-2.651,14.781l5.181,8.1-.266.171-.916-1.445-.441-.688-6.155-9.627c-3.275-5.124-9.776-6.82-14.527-3.792-4.732,3.024-5.93,9.65-2.655,14.77l6.151,9.627.445.7.917,1.438-.282.183-.917-1.445-.449-.688-7.836-12.26c-3.279-5.139-9.783-6.835-14.527-3.8s-5.945,9.646-2.663,14.781l7.839,12.263.445.692.917,1.438-.224.145L-856.473-198c-3.275-5.131-9.779-6.832-14.519-3.8s-5.941,9.65-2.663,14.785l27.075,42.3,2.008,3.142,5.576,8.722,5.424,8.486-12.328-3.222a9.666,9.666,0,0,0-12.134,7.779,11.65,11.65,0,0,0,8.395,13.123l42.343,11.042a29.081,29.081,0,0,0,3.918,1.019l.487.133a10.245,10.245,0,0,0,3.313.308,27,27,0,0,0,5.542-.327" transform="translate(877.29 205.089)" fill="#fff"/>
        <path id="패스_6827" data-name="패스 6827" d="M-797.09-91.058q-.577,0-1.153-.023a12.181,12.181,0,0,1-3.781-.369l-.441-.122a31.5,31.5,0,0,1-4.077-1.061l-42.229-11.012a13.47,13.47,0,0,1-9.7-15.158,11.513,11.513,0,0,1,5.124-7.794,11.524,11.524,0,0,1,9.213-1.4l7.927,2.073-37.631-58.814a13.2,13.2,0,0,1-1.936-9.456,11.526,11.526,0,0,1,5.139-7.794,11.5,11.5,0,0,1,9.217-1.385,13.2,13.2,0,0,1,7.763,5.728l15.128,23.633.049-.27a11.524,11.524,0,0,1,5.131-7.786,11.525,11.525,0,0,1,9.224-1.385,12.84,12.84,0,0,1,4.622,2.275,12.534,12.534,0,0,1,.278-2.092,11.527,11.527,0,0,1,5.032-7.318,12.137,12.137,0,0,1,14.493,1.43c.034-.38.083-.761.152-1.141a11.526,11.526,0,0,1,5.131-7.79,11.511,11.511,0,0,1,9.216-1.381,13.215,13.215,0,0,1,7.771,5.725l26.436,41.374c6.942,10.86,7.025,24.333.209,34.321l-2.944-2.012c6.01-8.806,5.907-20.734-.266-30.392l-26.44-41.374a9.664,9.664,0,0,0-5.668-4.2,7.984,7.984,0,0,0-6.394.94,7.985,7.985,0,0,0-3.545,5.417,9.637,9.637,0,0,0,1.434,6.9l5.177,8.1a1.776,1.776,0,0,1,.24,1.343,1.771,1.771,0,0,1-.78,1.118l-.266.167a1.789,1.789,0,0,1-1.343.24,1.79,1.79,0,0,1-1.118-.784l-7.509-11.757c-2.738-4.287-8.155-5.748-12.069-3.248a7.97,7.97,0,0,0-3.469,5.078,9.654,9.654,0,0,0,1.358,7.227l7.512,11.765a1.784,1.784,0,0,1-.536,2.453l-.281.183a1.805,1.805,0,0,1-1.347.247,1.8,1.8,0,0,1-1.126-.787l-9.2-14.39a9.63,9.63,0,0,0-5.664-4.2,7.99,7.99,0,0,0-6.4.94,8,8,0,0,0-3.545,5.42,9.616,9.616,0,0,0,1.422,6.9l9.205,14.4a1.779,1.779,0,0,1-.54,2.457l-.224.145a1.778,1.778,0,0,1-2.461-.54l-29.087-45.444a9.651,9.651,0,0,0-5.664-4.2,7.994,7.994,0,0,0-6.4.936,8.01,8.01,0,0,0-3.549,5.42,9.659,9.659,0,0,0,1.43,6.908l40.084,62.648a1.791,1.791,0,0,1-.061,2.008,1.789,1.789,0,0,1-1.894.673l-12.324-3.222a7.992,7.992,0,0,0-6.394.951,8,8,0,0,0-3.537,5.42,9.849,9.849,0,0,0,7.09,11.084l42.343,11.042a28.614,28.614,0,0,0,3.8.989c.049.008.1.023.148.034l.487.137a8.512,8.512,0,0,0,2.712.247,1.773,1.773,0,0,1,.2,0,25.25,25.25,0,0,0,5.177-.308l.582,3.518A28.779,28.779,0,0,1-797.09-91.058Z" transform="translate(875.976 203.771)"/>
      </g>
      <path id="패스_6828" data-name="패스 6828" d="M-793.719-184.356l12.65,21.23-62.364,40.249-13.181-21.5Z" transform="translate(122.591 115.504)" fill="#1baf92"/>
      <g id="그룹_3434" data-name="그룹 3434" transform="translate(-736.902 -71.211)">
        <path id="패스_6829" data-name="패스 6829" d="M-843.366-120.156l-13.724-21.48a1.782,1.782,0,0,1,.54-2.461l63.519-40.6a1.787,1.787,0,0,1,2.461.544l13.732,21.48-3.005,1.917-12.769-19.977-60.518,38.68,12.765,19.981Z" transform="translate(857.371 184.976)"/>
      </g>
      <rect id="사각형_2384" data-name="사각형 2384" width="78.954" height="3.803" transform="translate(-723.931 -8.009) rotate(-32.557)"/>
      <circle id="타원_87" data-name="타원 87" cx="4.787" cy="4.787" r="4.787" transform="translate(-678.647 -56.733)" fill="#fff" stroke="#000" stroke-miterlimit="10" stroke-width="3"/>
    </g>
  </g>
</svg>
