<svg xmlns="http://www.w3.org/2000/svg" xmlns:xlink="http://www.w3.org/1999/xlink" width="284" height="240" viewBox="0 0 284 240">
  <defs>
    <clipPath id="clip-path">
      <rect id="사각형_2340" data-name="사각형 2340" width="284" height="240" transform="translate(512 2912)" fill="#e6e6e6"/>
    </clipPath>
  </defs>
  <g id="마스크_그룹_13" data-name="마스크 그룹 13" transform="translate(-512 -2912)" clip-path="url(#clip-path)">
    <g id="그룹_3392" data-name="그룹 3392" transform="translate(1509.879 3146.618)">
      <path id="패스_6716" data-name="패스 6716" d="M-946.056-203.655l21.094,15.737L-970.6-126.55l-20.131-19.845Z" transform="translate(12.143 13.341)" fill="#1baf92"/>
      <path id="패스_6717" data-name="패스 6717" d="M-922.347-202.8l-17.859,13.915,43.822,56.91,22.361-13.907Z" transform="translate(142.055 15.533)" fill="#1baf92"/>
      <path id="패스_6718" data-name="패스 6718" d="M-950.814-161.407a7.033,7.033,0,0,0,2.946-5.907,8.8,8.8,0,0,0-1.593-5,8.448,8.448,0,0,0-6.849-3.775,6.674,6.674,0,0,0-3.824,1.168l-16.184,11.167a7.031,7.031,0,0,0-2.95,5.907,8.818,8.818,0,0,0,1.592,5,8.444,8.444,0,0,0,6.849,3.775A6.658,6.658,0,0,0-967-150.24Z" transform="translate(41.625 84.227)" fill="none"/>
      <path id="패스_6719" data-name="패스 6719" d="M-950.945-147.756l10.031-7.324a7.713,7.713,0,0,0,.664-3.093,8.824,8.824,0,0,0-1.592-4.992,8.452,8.452,0,0,0-6.849-3.778,6.684,6.684,0,0,0-2.982.764,10.3,10.3,0,0,1-.95.857L-970.1-153.27a7.322,7.322,0,0,0-1.55,4.571,8.8,8.8,0,0,0,1.593,5,8.451,8.451,0,0,0,6.846,3.775,6.707,6.707,0,0,0,3.828-1.171l5.9-4.064a10.874,10.874,0,0,1,2.546-2.589Z" transform="translate(61.211 107.729)" fill="none"/>
      <path id="패스_6720" data-name="패스 6720" d="M-940.044-162.863a8.8,8.8,0,0,0-1.593-5,8.465,8.465,0,0,0-6.849-3.778,6.7,6.7,0,0,0-3.825,1.171l-21.13,14.573a7.016,7.016,0,0,0-2.95,5.91,8.8,8.8,0,0,0,1.593,5,8.452,8.452,0,0,0,6.849,3.775,6.651,6.651,0,0,0,3.825-1.171l21.133-14.573A7.038,7.038,0,0,0-940.044-162.863Z" transform="translate(49.025 95.66)" fill="none"/>
      <path id="패스_6721" data-name="패스 6721" d="M-933.852-189.692c0-.082.011-.164.014-.246l-.047.032-1.321.989-11.827-8.528-35.414,46.12,9.278,6.689-.432,1.518a39.065,39.065,0,0,0-1.575,10.67,29.408,29.408,0,0,0,3.485,14.116,32.118,32.118,0,0,0,2.968,4.435l14.209-9.8a11.2,11.2,0,0,1,6.378-1.968,12.95,12.95,0,0,1,10.553,5.724,13.325,13.325,0,0,1,2.389,7.549,12.065,12.065,0,0,1-.375,2.953,11.389,11.389,0,0,1,2.657-.343,12.931,12.931,0,0,1,10.552,5.724,13.316,13.316,0,0,1,2.389,7.549A12.229,12.229,0,0,1-920.543-93a12.95,12.95,0,0,1,10.163,5.7,13.3,13.3,0,0,1,2.389,7.549l-.089.8a11.667,11.667,0,0,1,2.018-.2,12.961,12.961,0,0,1,10.556,5.724,13.3,13.3,0,0,1,2.389,7.549,11.853,11.853,0,0,1-2.214,6.856l12.6,9.078a12.118,12.118,0,0,0,7.067,2.346,9.274,9.274,0,0,0,7.685-3.714,9.843,9.843,0,0,0,1.775-5.778,11.55,11.55,0,0,0-2.885-7.581l-.122-.054-18.437-13.049a2.254,2.254,0,0,1-.539-3.139,2.254,2.254,0,0,1,3.139-.536l16.573,11.731.2-.289,13.516,9.742a12.141,12.141,0,0,0,7.064,2.346A9.265,9.265,0,0,0-840-61.635a8.764,8.764,0,0,0,1.639-5.185,11.37,11.37,0,0,0-3.732-8.081L-871.42-94.839a2.254,2.254,0,0,1-.6-3.128,2.257,2.257,0,0,1,3.128-.6l28.007,19.044.143-.2,6.756,4.871a10.443,10.443,0,0,0,6.131,2.107,9.5,9.5,0,0,0,7.728-4.121,8.587,8.587,0,0,0,1.725-5.01c-.014-2.225-.939-4.739-3.846-7.5l.043-.054-33.625-23.24a2.249,2.249,0,0,1-.571-3.132,2.247,2.247,0,0,1,3.132-.568l35.118,24.269a11.974,11.974,0,0,0,5.724,1.528,9.268,9.268,0,0,0,7.674-3.707,8.779,8.779,0,0,0,1.635-5.189,11.612,11.612,0,0,0-5.017-9.249l-59.408-43.345a43.561,43.561,0,0,1-22.448,6.231,44.234,44.234,0,0,1-8.617-.857,14.131,14.131,0,0,1-6.274,1.475,14.185,14.185,0,0,1-11.478-5.828,14.113,14.113,0,0,1-2.432-5.624A43.735,43.735,0,0,1-933.852-189.692Z" transform="translate(33.452 29.307)" fill="none"/>
      <path id="패스_6722" data-name="패스 6722" d="M-928.357-189.213l-.379-.775v0l-16.877-12.963-.589-.2-.764.375-42.931,55.9-.2.582.379.768,16.873,12.963.586.2.772-.375,42.931-55.9Zm-44.274,48.673a6.139,6.139,0,0,1-6.142-6.139,6.144,6.144,0,0,1,6.142-6.142,6.147,6.147,0,0,1,6.142,6.142A6.141,6.141,0,0,1-972.631-140.54Z" transform="translate(13.794 14.647)" fill="none"/>
      <path id="패스_6723" data-name="패스 6723" d="M-921.576-202.423l-.771-.379-.589.2-16.891,12.938h0l-.379.775.2.579,42.86,55.955.764.379.589-.2,16.895-12.941.375-.768-.193-.582Zm27.518,64.114a6.144,6.144,0,0,1-6.142-6.142,6.142,6.142,0,0,1,6.142-6.142,6.147,6.147,0,0,1,6.142,6.142A6.147,6.147,0,0,1-894.058-138.309Z" transform="translate(142.054 15.534)" fill="none"/>
      <path id="패스_6724" data-name="패스 6724" d="M-948.485-163.058a6.654,6.654,0,0,0-3.81,1.164l-10.677,7.8-.029.018a7.026,7.026,0,0,0-2.946,5.91,8.794,8.794,0,0,0,1.589,5,8.471,8.471,0,0,0,6.85,3.775,6.657,6.657,0,0,0,3.814-1.164l10.685-7.8.021-.014a7.037,7.037,0,0,0,2.95-5.91,8.808,8.808,0,0,0-1.593-4.992A8.453,8.453,0,0,0-948.485-163.058Z" transform="translate(75.874 117.717)" fill="none"/>
      <path id="패스_6725" data-name="패스 6725" d="M-951.982-191.235a3.319,3.319,0,0,0,3.321-3.321v-10.97a3.319,3.319,0,0,0-3.321-3.318,3.318,3.318,0,0,0-3.317,3.318v10.97A3.319,3.319,0,0,0-951.982-191.235Z" transform="translate(103.247)"/>
      <path id="패스_6726" data-name="패스 6726" d="M-956.033-194.1a3.313,3.313,0,0,0,4.446,1.486,3.316,3.316,0,0,0,1.486-4.449l-4.517-9.038a3.309,3.309,0,0,0-4.446-1.482,3.311,3.311,0,0,0-1.485,4.446Z" transform="translate(88.847 2.323)"/>
      <path id="패스_6727" data-name="패스 6727" d="M-956.358-192.771a3.315,3.315,0,0,0,4.667-.446,3.316,3.316,0,0,0-.446-4.671l-7.788-6.431a3.323,3.323,0,0,0-4.671.446,3.324,3.324,0,0,0,.45,4.675Z" transform="translate(77.398 9.685)"/>
      <path id="패스_6728" data-name="패스 6728" d="M-942.246-192.771l7.788-6.428a3.321,3.321,0,0,0,.45-4.675,3.323,3.323,0,0,0-4.671-.446l-7.785,6.431a3.313,3.313,0,0,0-.45,4.671A3.315,3.315,0,0,0-942.246-192.771Z" transform="translate(122.855 9.685)"/>
      <path id="패스_6729" data-name="패스 6729" d="M-949.489-192.618a3.318,3.318,0,0,0,4.449-1.486l4.51-9.038a3.317,3.317,0,0,0-1.485-4.45,3.313,3.313,0,0,0-4.446,1.486l-4.514,9.038A3.32,3.32,0,0,0-949.489-192.618Z" transform="translate(113.47 2.322)"/>
      <path id="패스_6730" data-name="패스 6730" d="M-743.648-145.081l-42.86-55.954a5.458,5.458,0,0,0-4.339-2.139,5.436,5.436,0,0,0-3.321,1.125l-16.895,12.941,1.368,1.786-1.368-1.782a5.457,5.457,0,0,0-2.146,4.342,5.466,5.466,0,0,0,1.121,3.314l1.1,1.435-6.514,4.7a43.169,43.169,0,0,0-6.36-3.66,35.345,35.345,0,0,0-15.055-3.453c-7.546-.007-16.08,2.521-25.179,9.088l-1.889,1.364-.225.111-.8.621-1.243.9.025.057-22.194,17.362,0,.007a14.165,14.165,0,0,0-5.774,11.427,14.235,14.235,0,0,0,.3,2.735,14.111,14.111,0,0,0,2.432,5.624,14.185,14.185,0,0,0,11.478,5.828,14.131,14.131,0,0,0,6.274-1.475,14.359,14.359,0,0,0,2.086-1.253l.046-.036,16.394-13.234,12.538,9.149,59.408,43.345a11.612,11.612,0,0,1,5.017,9.249,8.779,8.779,0,0,1-1.635,5.189,9.268,9.268,0,0,1-7.674,3.707,11.974,11.974,0,0,1-5.724-1.528l-35.118-24.269a2.247,2.247,0,0,0-3.132.568,2.249,2.249,0,0,0,.571,3.132l33.625,23.24-.043.054c2.907,2.76,3.832,5.274,3.846,7.5a8.587,8.587,0,0,1-1.725,5.01,9.5,9.5,0,0,1-7.728,4.121,10.443,10.443,0,0,1-6.131-2.107l-6.756-4.871-.143.2L-845.99-80.664a2.257,2.257,0,0,0-3.128.6,2.254,2.254,0,0,0,.6,3.128L-819.2-57a11.37,11.37,0,0,1,3.732,8.081,8.764,8.764,0,0,1-1.639,5.185,9.265,9.265,0,0,1-7.689,3.717,12.141,12.141,0,0,1-7.064-2.346l-13.516-9.742-.2.289-16.573-11.731a2.254,2.254,0,0,0-3.139.536,2.254,2.254,0,0,0,.539,3.139l18.437,13.049.122.054a11.55,11.55,0,0,1,2.885,7.581,9.843,9.843,0,0,1-1.775,5.778,9.274,9.274,0,0,1-7.685,3.714,12.118,12.118,0,0,1-7.067-2.346l-12.6-9.078a11.853,11.853,0,0,0,2.214-6.856,13.3,13.3,0,0,0-2.389-7.549,12.961,12.961,0,0,0-10.556-5.724,11.667,11.667,0,0,0-2.018.2l.089-.8a13.3,13.3,0,0,0-2.389-7.549,12.95,12.95,0,0,0-10.163-5.7,12.229,12.229,0,0,0,.571-3.514,13.316,13.316,0,0,0-2.389-7.549,12.931,12.931,0,0,0-10.552-5.724,11.389,11.389,0,0,0-2.657.343,12.065,12.065,0,0,0,.375-2.953,13.326,13.326,0,0,0-2.389-7.549,12.95,12.95,0,0,0-10.553-5.724,11.2,11.2,0,0,0-6.378,1.968L-945.826-96a32.118,32.118,0,0,1-2.968-4.435,29.409,29.409,0,0,1-3.485-14.116,39.065,39.065,0,0,1,1.575-10.67l.432-1.518-9.278-6.689,35.414-46.12,11.827,8.528,1.321-.989.047-.032c5.064-3.775,11.87-7.146,20.037-7.142,5.71,0,12.156,1.625,19.352,6.089a2.218,2.218,0,0,0,2.1.1,2.2,2.2,0,0,0,1-.825,2.246,2.246,0,0,0-.729-3.1c-7.8-4.857-15.141-6.774-21.723-6.771a36.71,36.71,0,0,0-19.6,5.924c-.625.389-1.236.786-1.818,1.189l-9.153-6.6a5.422,5.422,0,0,0,.85-2.8,5.455,5.455,0,0,0-2.135-4.339l-1.368,1.782,1.368-1.785-16.873-12.963a5.51,5.51,0,0,0-3.332-1.128,5.457,5.457,0,0,0-4.332,2.135l-42.931,55.9a5.444,5.444,0,0,0-1.128,3.325,5.476,5.476,0,0,0,2.132,4.335l16.88,12.963a5.477,5.477,0,0,0,3.324,1.132,5.459,5.459,0,0,0,4.335-2.135l2.385-3.107,6.874,4.953a42.823,42.823,0,0,0-1.357,10.356A33.935,33.935,0,0,0-952.757-98.3a37.044,37.044,0,0,0,3.389,5.074,11.7,11.7,0,0,0-3.328,8.206,13.29,13.29,0,0,0,2.389,7.549,13,13,0,0,0,9.592,5.66,11.924,11.924,0,0,0-1.7,6.085,13.3,13.3,0,0,0,2.389,7.549,12.937,12.937,0,0,0,10.552,5.721,11.338,11.338,0,0,0,4.082-.786l-.1.868a13.317,13.317,0,0,0,2.389,7.549,12.936,12.936,0,0,0,10.549,5.721,11.152,11.152,0,0,0,6.381-1.968l1.046-.721a13.288,13.288,0,0,0,2.385,7.488,12.937,12.937,0,0,0,10.553,5.721,11.15,11.15,0,0,0,6.378-1.968l.029-.018,10.081-7.363,13.238,9.542a16.615,16.615,0,0,0,9.7,3.2A13.791,13.791,0,0,0-841.43-30.78a14.31,14.31,0,0,0,2.628-8.41,16.2,16.2,0,0,0-.282-2.839l4.6,3.314a16.625,16.625,0,0,0,9.7,3.2A13.8,13.8,0,0,0-813.451-41.1a13.281,13.281,0,0,0,2.485-7.817,14.422,14.422,0,0,0-.332-2.946,14.469,14.469,0,0,0,6.346,1.532,14.018,14.018,0,0,0,11.377-5.992A13.069,13.069,0,0,0-791-63.969a12.537,12.537,0,0,0-.893-4.378,16.01,16.01,0,0,0,2.364.182A13.76,13.76,0,0,0-778.2-73.743a13.281,13.281,0,0,0,2.485-7.817,16.093,16.093,0,0,0-6.874-12.891l-4.828-3.525-53.255-38.853-15.252-11.127-.136-.061-.425-.2-.389-.121-.425-.018-.428.039a2.168,2.168,0,0,0-.932.425l-17.627,14.231a9.638,9.638,0,0,1-5.692,1.853,9.684,9.684,0,0,1-7.846-3.982,9.639,9.639,0,0,1-1.861-5.707,9.674,9.674,0,0,1,3.982-7.846l.032-.021L-864.1-167.8v.007l2.632-1.9c8.488-6.106,16.005-8.228,22.547-8.238a31.711,31.711,0,0,1,15.6,4.267,40.946,40.946,0,0,1,4.485,2.91l1.321.989,9.263-6.674,35.357,46.156-6.614,4.767.371,1.478a15.207,15.207,0,0,1,.407,3.646c.014,4.764-1.836,10.945-5.421,17.012a2.22,2.22,0,0,0,.211,2.553l.586.525a2.245,2.245,0,0,0,3.078-.793c3.9-6.631,6.035-13.42,6.049-19.3a20.631,20.631,0,0,0-.268-3.192l4.335-3.128.936,1.221a5.456,5.456,0,0,0,4.335,2.139,5.479,5.479,0,0,0,3.321-1.128l16.9-12.941a5.457,5.457,0,0,0,2.143-4.339A5.453,5.453,0,0,0-743.648-145.081Zm-224.6,15.591-.771.375-.586-.2-16.873-12.963-.379-.768.2-.582,42.931-55.9.764-.375.589.2,16.877,12.963v0l.379.775-.2.578Zm21.64,49.462a8.818,8.818,0,0,1-1.592-5,7.031,7.031,0,0,1,2.95-5.907l16.184-11.167a6.674,6.674,0,0,1,3.824-1.168,8.448,8.448,0,0,1,6.849,3.775,8.8,8.8,0,0,1,1.593,5,7.033,7.033,0,0,1-2.946,5.907L-935.93-77.421a6.659,6.659,0,0,1-3.825,1.168A8.444,8.444,0,0,1-946.6-80.028Zm20.951,21.9a6.651,6.651,0,0,1-3.825,1.171,8.452,8.452,0,0,1-6.849-3.775,8.8,8.8,0,0,1-1.593-5,7.016,7.016,0,0,1,2.95-5.91l21.13-14.573a6.7,6.7,0,0,1,3.825-1.171,8.465,8.465,0,0,1,6.849,3.778,8.8,8.8,0,0,1,1.593,5A7.038,7.038,0,0,1-904.52-72.7Zm22.822,9.288-5.9,4.064a6.706,6.706,0,0,1-3.828,1.171,8.451,8.451,0,0,1-6.846-3.775,8.8,8.8,0,0,1-1.593-5,7.322,7.322,0,0,1,1.55-4.571L-901.966-69a10.3,10.3,0,0,0,.95-.857,6.684,6.684,0,0,1,2.982-.764,8.452,8.452,0,0,1,6.849,3.778,8.823,8.823,0,0,1,1.592,4.992,7.711,7.711,0,0,1-.664,3.093l-10.031,7.324,0,0A10.875,10.875,0,0,0-902.831-48.842Zm25.162,6.774-.021.014-10.685,7.8a6.657,6.657,0,0,1-3.814,1.164,8.472,8.472,0,0,1-6.85-3.775,8.794,8.794,0,0,1-1.589-5,7.027,7.027,0,0,1,2.946-5.91l.029-.018,10.677-7.8a6.654,6.654,0,0,1,3.81-1.164,8.453,8.453,0,0,1,6.853,3.778,8.808,8.808,0,0,1,1.592,4.992A7.037,7.037,0,0,1-877.669-42.068ZM-747.4-140.993-764.3-128.051l-.589.2-.764-.379-42.86-55.955-.2-.578.379-.775h0l16.891-12.938.589-.2.771.379,42.856,55.954.193.582Z" transform="translate(10.554 11.408)"/>
      <path id="패스_6731" data-name="패스 6731" d="M-983.1-188.154a2.931,2.931,0,0,0-2.925,2.928A2.931,2.931,0,0,0-983.1-182.3a2.931,2.931,0,0,0,2.925-2.925A2.932,2.932,0,0,0-983.1-188.154Z" transform="translate(24.26 53.195)" fill="#fff"/>
      <path id="패스_6732" data-name="패스 6732" d="M-980.781-189.054a6.144,6.144,0,0,0-6.142,6.142,6.139,6.139,0,0,0,6.142,6.139,6.141,6.141,0,0,0,6.142-6.139A6.147,6.147,0,0,0-980.781-189.054Zm0,9.067a2.931,2.931,0,0,1-2.925-2.925,2.931,2.931,0,0,1,2.925-2.928,2.932,2.932,0,0,1,2.925,2.928A2.931,2.931,0,0,1-980.781-179.987Z" transform="translate(21.944 50.881)"/>
      <path id="패스_6733" data-name="패스 6733" d="M-925.175-187.281a2.93,2.93,0,0,0-2.928,2.925,2.935,2.935,0,0,0,2.928,2.928,2.932,2.932,0,0,0,2.925-2.928A2.926,2.926,0,0,0-925.175-187.281Z" transform="translate(173.172 55.439)" fill="#fff"/>
      <path id="패스_6734" data-name="패스 6734" d="M-922.861-188.182A6.142,6.142,0,0,0-929-182.04a6.144,6.144,0,0,0,6.142,6.142,6.147,6.147,0,0,0,6.142-6.142A6.147,6.147,0,0,0-922.861-188.182Zm0,9.07a2.935,2.935,0,0,1-2.928-2.928,2.93,2.93,0,0,1,2.928-2.925,2.926,2.926,0,0,1,2.925,2.925A2.931,2.931,0,0,1-922.861-179.112Z" transform="translate(170.858 53.123)"/>
      <g id="그룹_3388" data-name="그룹 3388" transform="translate(-745.145 -182.249)">
        <rect id="사각형_2370" data-name="사각형 2370" width="10.369" height="10.374" transform="translate(1.339 8.669) rotate(-45)" fill="#f7d979"/>
        <path id="패스_6735" data-name="패스 6735" d="M-916.687-184.05a1.35,1.35,0,0,1-.946-.393l-7.338-7.338a1.341,1.341,0,0,1,0-1.893l7.331-7.331a1.341,1.341,0,0,1,1.893,0l7.338,7.331a1.34,1.34,0,0,1,0,1.893l-7.331,7.338A1.346,1.346,0,0,1-916.687-184.05Zm-5.442-8.678,5.442,5.442,5.439-5.439-5.446-5.439Z" transform="translate(925.362 201.397)"/>
      </g>
      <g id="그룹_3389" data-name="그룹 3389" transform="translate(-957.668 -40.872)">
        <rect id="사각형_2371" data-name="사각형 2371" width="10.369" height="10.374" transform="translate(1.338 8.668) rotate(-45)" fill="#f7d979"/>
        <path id="패스_6736" data-name="패스 6736" d="M-976.2-144.46a1.351,1.351,0,0,1-.95-.393l-7.339-7.338a1.347,1.347,0,0,1,0-1.893l7.331-7.331a1.34,1.34,0,0,1,1.892,0l7.338,7.331a1.34,1.34,0,0,1,0,1.893l-7.331,7.338A1.343,1.343,0,0,1-976.2-144.46Zm-5.446-8.678,5.446,5.442,5.435-5.442-5.442-5.439Z" transform="translate(984.876 161.806)"/>
      </g>
      <g id="그룹_3390" data-name="그룹 3390" transform="translate(-746.05 -97.956)">
        <path id="패스_6737" data-name="패스 6737" d="M-919.709-172.037h-4.121a1.784,1.784,0,0,1-1.786-1.786,1.782,1.782,0,0,1,1.786-1.786h4.121a1.784,1.784,0,0,1,1.786,1.786A1.786,1.786,0,0,1-919.709-172.037Z" transform="translate(925.616 183.407)" fill="#1baf92"/>
        <path id="패스_6738" data-name="패스 6738" d="M-916.5-172.037h-4.121a1.784,1.784,0,0,1-1.786-1.786,1.782,1.782,0,0,1,1.786-1.786h4.121a1.784,1.784,0,0,1,1.786,1.786A1.786,1.786,0,0,1-916.5-172.037Z" transform="translate(933.872 183.407)" fill="#1baf92"/>
        <path id="패스_6739" data-name="패스 6739" d="M-921.648-170.093a1.784,1.784,0,0,1-1.786-1.786v-4.128a1.786,1.786,0,0,1,1.786-1.785,1.784,1.784,0,0,1,1.786,1.785v4.128A1.782,1.782,0,0,1-921.648-170.093Z" transform="translate(931.229 177.792)" fill="#1baf92"/>
        <path id="패스_6740" data-name="패스 6740" d="M-921.648-166.88a1.784,1.784,0,0,1-1.786-1.785v-4.128a1.786,1.786,0,0,1,1.786-1.786,1.784,1.784,0,0,1,1.786,1.786v4.128A1.782,1.782,0,0,1-921.648-166.88Z" transform="translate(931.229 186.053)" fill="#1baf92"/>
      </g>
      <g id="그룹_3391" data-name="그룹 3391" transform="translate(-985.879 -107.543)">
        <path id="패스_6741" data-name="패스 6741" d="M-989.551-174.722h-4.121a1.784,1.784,0,0,1-1.786-1.786,1.786,1.786,0,0,1,1.786-1.786h4.121a1.784,1.784,0,0,1,1.786,1.786A1.782,1.782,0,0,1-989.551-174.722Z" transform="translate(995.458 186.089)" fill="#1baf92"/>
        <path id="패스_6742" data-name="패스 6742" d="M-986.34-174.722h-4.121a1.784,1.784,0,0,1-1.786-1.786,1.786,1.786,0,0,1,1.786-1.786h4.121a1.784,1.784,0,0,1,1.785,1.786A1.782,1.782,0,0,1-986.34-174.722Z" transform="translate(1003.713 186.089)" fill="#1baf92"/>
        <path id="패스_6743" data-name="패스 6743" d="M-991.488-172.777a1.784,1.784,0,0,1-1.786-1.786v-4.128a1.781,1.781,0,0,1,1.786-1.785,1.784,1.784,0,0,1,1.785,1.785v4.128A1.786,1.786,0,0,1-991.488-172.777Z" transform="translate(1001.073 180.476)" fill="#1baf92"/>
        <path id="패스_6744" data-name="패스 6744" d="M-991.488-169.561a1.784,1.784,0,0,1-1.786-1.786v-4.132a1.784,1.784,0,0,1,1.786-1.786,1.786,1.786,0,0,1,1.785,1.786v4.132A1.786,1.786,0,0,1-991.488-169.561Z" transform="translate(1001.073 188.734)" fill="#1baf92"/>
      </g>
    </g>
  </g>
</svg>
