<svg xmlns="http://www.w3.org/2000/svg" xmlns:xlink="http://www.w3.org/1999/xlink" width="284" height="240" viewBox="0 0 284 240">
  <defs>
    <clipPath id="clip-path">
      <rect id="사각형_2343" data-name="사각형 2343" width="284" height="240" transform="translate(1124 2912)" fill="#e6e6e6"/>
    </clipPath>
    <clipPath id="clip-path-2">
      <rect id="사각형_2253" data-name="사각형 2253" width="284" height="240" transform="translate(1198 1269)" fill="#e2f5ff"/>
    </clipPath>
  </defs>
  <g id="마스크_그룹_14" data-name="마스크 그룹 14" transform="translate(-1124 -2912)" clip-path="url(#clip-path)">
    <g id="마스크_그룹_6" data-name="마스크 그룹 6" transform="translate(-74 1643)" clip-path="url(#clip-path-2)">
      <g id="그룹_68" data-name="그룹 68" transform="translate(866.991 923.61)">
        <g id="그룹_54" data-name="그룹 54" transform="translate(402.609 384.765)">
          <path id="패스_6305" data-name="패스 6305" d="M394.783,379.307c-15.775,0-28.556,10.173-28.556,22.715V545.016H495.816V379.307Z" transform="translate(-364.692 -377.772)" fill="#fff"/>
          <path id="패스_6306" data-name="패스 6306" d="M496.851,547.585H367.262a1.533,1.533,0,0,1-1.535-1.535V403.057c0-13.371,13.5-24.25,30.091-24.25H496.851a1.531,1.531,0,0,1,1.535,1.535V546.05A1.533,1.533,0,0,1,496.851,547.585ZM368.8,544.516H495.316V381.877h-99.5c-14.9,0-27.022,9.5-27.022,21.18Z" transform="translate(-365.727 -378.807)"/>
        </g>
        <path id="패스_6307" data-name="패스 6307" d="M489.982,389.66,383.25,500.429s-11.471,13.233-6.867,22.693h49.7l62.669-61.643Z" transform="translate(56.679 28.419)" fill="#1baf92" opacity="0.1"/>
        <g id="그룹_55" data-name="그룹 55" transform="translate(571.151 459.958)">
          <rect id="사각형_2237" data-name="사각형 2237" width="8.913" height="8.913" transform="translate(1.626 7.929) rotate(-44.999)" fill="#f7d979"/>
          <path id="패스_6308" data-name="패스 6308" d="M428.563,419.161l-7.929-7.926,7.929-7.932,7.929,7.932Zm-4.675-7.926,4.675,4.669,4.672-4.669-4.672-4.678Z" transform="translate(-420.634 -403.303)"/>
        </g>
        <g id="그룹_56" data-name="그룹 56" transform="translate(557.473 375.928)">
          <path id="패스_6309" data-name="패스 6309" d="M421.261,381.181h-3.549a1.535,1.535,0,0,1,0-3.07h3.549a1.535,1.535,0,0,1,0,3.07Z" transform="translate(-416.178 -371.41)" fill="#1baf92"/>
          <path id="패스_6310" data-name="패스 6310" d="M424.472,381.181h-3.548a1.535,1.535,0,0,1,0-3.07h3.548a1.535,1.535,0,1,1,0,3.07Z" transform="translate(-409.533 -371.41)" fill="#1baf92"/>
          <path id="패스_6311" data-name="패스 6311" d="M419.894,382.546a1.533,1.533,0,0,1-1.535-1.535v-3.549a1.535,1.535,0,0,1,3.07,0v3.549A1.532,1.532,0,0,1,419.894,382.546Z" transform="translate(-411.664 -375.928)" fill="#1baf92"/>
          <path id="패스_6312" data-name="패스 6312" d="M419.894,385.757a1.533,1.533,0,0,1-1.535-1.535v-3.548a1.535,1.535,0,0,1,3.07,0v3.548A1.532,1.532,0,0,1,419.894,385.757Z" transform="translate(-411.664 -369.283)" fill="#1baf92"/>
        </g>
        <g id="그룹_57" data-name="그룹 57" transform="translate(364.574 538.383)">
          <path id="패스_6313" data-name="패스 6313" d="M358.419,434.1h-3.548a1.535,1.535,0,1,1,0-3.07h3.548a1.535,1.535,0,0,1,0,3.07Z" transform="translate(-353.336 -424.334)" fill="#1baf92"/>
          <path id="패스_6314" data-name="패스 6314" d="M361.624,434.1h-3.542a1.535,1.535,0,1,1,0-3.07h3.542a1.535,1.535,0,1,1,0,3.07Z" transform="translate(-346.691 -424.334)" fill="#1baf92"/>
          <path id="패스_6315" data-name="패스 6315" d="M357.054,435.464a1.534,1.534,0,0,1-1.535-1.535v-3.542a1.535,1.535,0,0,1,3.07,0v3.542A1.532,1.532,0,0,1,357.054,435.464Z" transform="translate(-348.818 -428.852)" fill="#1baf92"/>
          <path id="패스_6316" data-name="패스 6316" d="M357.054,438.681a1.533,1.533,0,0,1-1.535-1.535v-3.552a1.535,1.535,0,0,1,3.07,0v3.552A1.532,1.532,0,0,1,357.054,438.681Z" transform="translate(-348.818 -422.213)" fill="#1baf92"/>
        </g>
        <g id="그룹_58" data-name="그룹 58" transform="translate(369.112 407.839)">
          <rect id="사각형_2238" data-name="사각형 2238" width="8.911" height="8.915" transform="translate(1.148 7.45) rotate(-44.973)" fill="#f7d979"/>
          <path id="패스_6317" data-name="패스 6317" d="M362.266,401.236a1.146,1.146,0,0,1-.814-.341l-6.3-6.3a1.156,1.156,0,0,1,0-1.63l6.3-6.3a1.145,1.145,0,0,1,.813-.341h0a1.141,1.141,0,0,1,.814.341l6.308,6.3a1.152,1.152,0,0,1,0,1.63l-6.3,6.3A1.152,1.152,0,0,1,362.266,401.236Zm-4.672-7.459,4.672,4.675,4.675-4.675-4.681-4.672Z" transform="translate(-354.815 -386.324)"/>
        </g>
        <g id="그룹_59" data-name="그룹 59" transform="translate(510.229 384.765)">
          <path id="패스_6318" data-name="패스 6318" d="M434.951,524.247V402.022c0-12.542-7.536-22.715-16.84-22.715-9.289,0-16.824,10.173-16.824,22.715V545.016h52.119Z" transform="translate(-399.752 -377.772)" fill="#1baf92"/>
          <path id="패스_6319" data-name="패스 6319" d="M457.857,547.585h-57.07V403.057c0-13.371,8.236-24.25,18.359-24.25s18.375,10.879,18.375,24.25V524.7Zm-54-3.07h47.164l-16.57-18.648V403.057c0-11.68-6.867-21.18-15.3-21.18s-15.29,9.5-15.29,21.18Z" transform="translate(-400.787 -378.807)"/>
        </g>
        <path id="패스_6320" data-name="패스 6320" d="M412.254,415.6v31.589c0,12.548,7.53,22.721,16.821,22.721s16.831-10.173,16.831-22.721V415.6Z" transform="translate(133.174 82.101)" fill="#fff"/>
        <path id="패스_6321" data-name="패스 6321" d="M430.11,472.478c-10.123,0-18.356-10.882-18.356-24.256V416.633a1.529,1.529,0,0,1,1.535-1.535h33.652a1.531,1.531,0,0,1,1.535,1.535v31.589C448.476,461.6,440.237,472.478,430.11,472.478Zm-15.287-54.31v30.054c0,11.683,6.857,21.186,15.287,21.186s15.3-9.5,15.3-21.186V418.168Z" transform="translate(132.139 81.066)"/>
        <rect id="사각형_2239" data-name="사각형 2239" width="22.512" height="19.976" transform="translate(417.416 424.171)" fill="#1baf92"/>
        <rect id="사각형_2240" data-name="사각형 2240" width="22.512" height="19.976" transform="translate(417.416 459.627)" fill="#1baf92"/>
        <rect id="사각형_2241" data-name="사각형 2241" width="22.512" height="19.976" transform="translate(417.416 498.945)" fill="#1baf92"/>
        <rect id="사각형_2242" data-name="사각형 2242" width="37.243" height="3.07" transform="translate(452.009 427.253)"/>
        <rect id="사각형_2243" data-name="사각형 2243" width="37.243" height="3.07" transform="translate(452.009 439.022)"/>
        <rect id="사각형_2244" data-name="사각형 2244" width="18.621" height="3.07" transform="translate(452.009 465.611)"/>
        <rect id="사각형_2245" data-name="사각형 2245" width="12.962" height="3.07" transform="translate(476.29 465.611)"/>
        <rect id="사각형_2246" data-name="사각형 2246" width="18.621" height="3.07" transform="translate(452.009 510.186)"/>
        <rect id="사각형_2247" data-name="사각형 2247" width="12.962" height="3.07" transform="translate(476.29 510.186)" fill="#3c2163"/>
        <rect id="사각형_2248" data-name="사각형 2248" width="37.243" height="3.07" transform="translate(452.009 454.31)"/>
        <rect id="사각형_2249" data-name="사각형 2249" width="37.243" height="3.07" transform="translate(452.009 477.379)"/>
        <rect id="사각형_2250" data-name="사각형 2250" width="37.243" height="3.07" transform="translate(452.009 498.267)"/>
        <rect id="사각형_2251" data-name="사각형 2251" width="37.243" height="3.07" transform="translate(452.009 521.961)"/>
        <g id="그룹_60" data-name="그룹 60" transform="translate(347.906 444.285)">
          <path id="패스_6322" data-name="패스 6322" d="M414.6,431.79a33.1,33.1,0,1,1-33.1-33.093A33.1,33.1,0,0,1,414.6,431.79Z" transform="translate(-346.871 -397.162)" fill="#1baf92"/>
          <path id="패스_6323" data-name="패스 6323" d="M382.54,467.456a34.63,34.63,0,1,1,34.631-34.631A34.673,34.673,0,0,1,382.54,467.456Zm0-66.19A31.56,31.56,0,1,0,414.1,432.825,31.6,31.6,0,0,0,382.54,401.267Z" transform="translate(-347.906 -398.197)"/>
        </g>
        <g id="그룹_61" data-name="그룹 61" transform="translate(363.362 465.761)">
          <path id="패스_6324" data-name="패스 6324" d="M369.647,430.756l-16.205-15.612,4.724-4.9,11.2,10.779L383.532,405.7l5,4.622Z" transform="translate(-351.906 -404.155)" fill="#fff"/>
          <path id="패스_6325" data-name="패스 6325" d="M370.683,433.328a1.531,1.531,0,0,1-1.065-.427l-16.2-15.612a1.53,1.53,0,0,1-.043-2.167l4.724-4.911a1.525,1.525,0,0,1,1.077-.467,1.285,1.285,0,0,1,1.093.427l10.071,9.7,13.1-14.178a1.536,1.536,0,0,1,1.068-.491,1.482,1.482,0,0,1,1.1.408l5,4.623a1.533,1.533,0,0,1,.083,2.167l-18.884,20.44a1.534,1.534,0,0,1-1.084.491Zm-14.037-17.184,13.973,13.46L387.4,411.438l-2.75-2.539-13.122,14.2a1.536,1.536,0,0,1-1.081.494,1.649,1.649,0,0,1-1.111-.427l-10.093-9.718Z" transform="translate(-352.941 -405.194)"/>
        </g>
        <g id="그룹_62" data-name="그룹 62" transform="translate(448.767 533.999)">
          <path id="패스_6326" data-name="패스 6326" d="M384.755,438.24a2.049,2.049,0,0,1-2.895,0h0a2.056,2.056,0,0,1,0-2.9l6.83-6.83a2.055,2.055,0,0,1,2.895,0h0a2.06,2.06,0,0,1,.006,2.9Z" transform="translate(-379.733 -426.413)" fill="#7452c6"/>
          <path id="패스_6327" data-name="패스 6327" d="M384.343,441.388a3.585,3.585,0,0,1-2.542-6.118l6.833-6.833a3.672,3.672,0,0,1,5.065,0,3.589,3.589,0,0,1,.009,5.068l-6.836,6.833A3.547,3.547,0,0,1,384.343,441.388Zm6.827-10.928a.524.524,0,0,0-.368.154l-6.827,6.821a.526.526,0,0,0,.006.74.44.44,0,0,0,.718-.006l6.836-6.83a.516.516,0,0,0-.365-.878Z" transform="translate(-380.764 -427.424)"/>
        </g>
        <g id="그룹_63" data-name="그룹 63" transform="translate(535.547 429.277)">
          <path id="패스_6328" data-name="패스 6328" d="M435.142,411.381a10.317,10.317,0,1,0-14.593-14.587l-11.014,11.02L424.122,422.4Z" transform="translate(-408 -392.349)" fill="#fff"/>
          <path id="패스_6329" data-name="패스 6329" d="M425.157,424.895a1.519,1.519,0,0,1-1.084-.451l-14.587-14.587a1.53,1.53,0,0,1,0-2.17l11.011-11.02a12.137,12.137,0,0,1,16.763,0,11.868,11.868,0,0,1,0,16.757l-11.017,11.02A1.531,1.531,0,0,1,425.157,424.895ZM412.74,408.773l12.416,12.416,9.933-9.936a8.791,8.791,0,0,0,0-12.416,8.986,8.986,0,0,0-12.42,0Z" transform="translate(-409.035 -393.308)"/>
        </g>
        <g id="그룹_64" data-name="그룹 64" transform="translate(466.002 442.572)">
          <rect id="사각형_2252" data-name="사각형 2252" width="97.449" height="20.628" transform="matrix(0.707, -0.707, 0.707, 0.707, 2.17, 71.073)" fill="#ffd66e"/>
          <path id="패스_6330" data-name="패스 6330" d="M403.136,485.469l-16.757-16.757,71.079-71.073L474.215,414.4Zm-12.417-16.757,12.417,12.417L469.875,414.4l-12.416-12.417Z" transform="translate(-386.379 -397.639)"/>
        </g>
        <g id="그룹_65" data-name="그룹 65" transform="translate(453.581 512.129)">
          <path id="패스_6331" data-name="패스 6331" d="M395.889,420.793l-8.53,8.537c-4.043,4.03-5.338,11.95-4.043,18.623,6.775,2.02,14.593-.006,18.623-4.037l8.537-8.536Z" transform="translate(-381.298 -419.277)" fill="#fff"/>
          <path id="패스_6332" data-name="패스 6332" d="M389.925,451.3h0a21,21,0,0,1-6.01-.853,1.542,1.542,0,0,1-1.071-1.179c-1.486-7.671.347-15.891,4.466-20l8.527-8.536a1.577,1.577,0,0,1,2.17,0l14.587,14.584a1.53,1.53,0,0,1,0,2.17l-8.537,8.54C400.807,449.279,395.389,451.3,389.925,451.3Zm-4.23-3.552c5.691,1.36,12.653-.35,16.192-3.892l7.453-7.453-12.417-12.417-7.447,7.453C386.254,434.656,384.719,441.39,385.7,447.747Z" transform="translate(-382.333 -420.299)"/>
        </g>
        <g id="그룹_66" data-name="그룹 66" transform="translate(518.305 456.347)">
          <path id="패스_6333" data-name="패스 6333" d="M408.191,444.966c-.8.8-2.29.6-3.337-.442h0c-1.044-1.044-1.249-2.532-.439-3.333L442.5,403.1c.8-.8,2.29-.6,3.333.436h0c1.044,1.05,1.237,2.536.439,3.34Z" transform="translate(-402.383 -401.122)" fill="#fff"/>
          <path id="패스_6334" data-name="패스 6334" d="M407.955,447.994a4.729,4.729,0,0,1-4.537-4.54,3.292,3.292,0,0,1,.952-2.351l38.084-38.081c1.351-1.351,3.908-1.145,5.5.436,1.661,1.67,1.854,4.092.442,5.507l-38.085,38.094A3.317,3.317,0,0,1,407.955,447.994ZM444.8,405.148l-38.265,38.13a1.341,1.341,0,0,0,.436,1.163c.485.482,1.071.54,1.173.439L446.223,406.8c.092-.089.089-.639-.439-1.166A1.5,1.5,0,0,0,444.8,405.148Z" transform="translate(-403.418 -402.127)"/>
        </g>
        <g id="그룹_67" data-name="그룹 67" transform="translate(544.486 453.999)">
          <path id="패스_6335" data-name="패스 6335" d="M424.852,404.655l-9.563,9.562-2.842-2.92,9.437-9.436Z" transform="translate(-410.912 -400.327)" fill="#fff"/>
          <path id="패스_6336" data-name="패스 6336" d="M416.324,416.788h-.009a1.546,1.546,0,0,1-1.09-.467l-2.843-2.916a1.535,1.535,0,0,1,.015-2.158l9.436-9.436a1.532,1.532,0,0,1,2.136-.031l2.968,2.787a1.542,1.542,0,0,1,.034,2.207l-9.562,9.562A1.536,1.536,0,0,1,416.324,416.788Zm-.688-4.442.7.718,7.342-7.342-.73-.685Z" transform="translate(-411.947 -401.362)"/>
        </g>
        <path id="패스_6337" data-name="패스 6337" d="M394.44,421.707l5.467,5.491s-12.183,4.282-16.349,16.349c0,0-.592-10.317,3.926-14.814Z" transform="translate(73.732 94.744)" fill="#1baf92" opacity="0.1"/>
      </g>
    </g>
  </g>
</svg>
