<svg xmlns="http://www.w3.org/2000/svg" xmlns:xlink="http://www.w3.org/1999/xlink" width="284" height="240" viewBox="0 0 284 240">
  <defs>
    <clipPath id="clip-path">
      <rect id="사각형_2347" data-name="사각형 2347" width="284" height="240" transform="translate(512 3476)" fill="#e6e6e6"/>
    </clipPath>
    <clipPath id="clip-path-2">
      <rect id="사각형_2160" data-name="사각형 2160" width="284" height="240" transform="translate(416 1269)" fill="#e2f5ff"/>
    </clipPath>
  </defs>
  <g id="마스크_그룹_15" data-name="마스크 그룹 15" transform="translate(-512 -3476)" clip-path="url(#clip-path)">
    <g id="마스크_그룹_2" data-name="마스크 그룹 2" transform="translate(96 2207)" clip-path="url(#clip-path-2)">
      <g id="그룹_30" data-name="그룹 30" transform="translate(352.159 921.225)">
        <rect id="사각형_2126" data-name="사각형 2126" width="9.484" height="9.484" transform="translate(327.187 509.376) rotate(-45)" fill="#ffd66e"/>
        <path id="패스_6127" data-name="패스 6127" d="M156.2,433.782l-8.436-8.436L156.2,416.9l8.436,8.446Zm-4.971-8.436,4.971,4.974,4.974-4.974-4.974-4.974Z" transform="translate(177.69 84.031)"/>
        <path id="패스_6128" data-name="패스 6128" d="M150.892,385.268h-3.776a1.633,1.633,0,0,1,0-3.266h3.776a1.633,1.633,0,0,1,0,3.266Z" transform="translate(172.517 4.949)" fill="#1baf92"/>
        <path id="패스_6129" data-name="패스 6129" d="M154.1,385.268h-3.769a1.633,1.633,0,0,1,0-3.266H154.1a1.633,1.633,0,0,1,0,3.266Z" transform="translate(179.795 4.949)" fill="#1baf92"/>
        <path id="패스_6130" data-name="패스 6130" d="M149.3,386.863a1.632,1.632,0,0,1-1.633-1.633v-3.779a1.633,1.633,0,0,1,3.266,0v3.779A1.634,1.634,0,0,1,149.3,386.863Z" transform="translate(177.463)" fill="#1baf92"/>
        <path id="패스_6131" data-name="패스 6131" d="M149.3,390.073a1.63,1.63,0,0,1-1.633-1.633v-3.776a1.633,1.633,0,0,1,3.266,0v3.776A1.632,1.632,0,0,1,149.3,390.073Z" transform="translate(177.463 7.281)" fill="#1baf92"/>
        <path id="패스_6132" data-name="패스 6132" d="M74.762,419.785H70.986a1.633,1.633,0,0,1,0-3.266h3.776a1.633,1.633,0,1,1,0,3.266Z" transform="translate(0 83.167)" fill="#1baf92"/>
        <path id="패스_6133" data-name="패스 6133" d="M77.973,419.785H74.2a1.633,1.633,0,0,1,0-3.266h3.776a1.633,1.633,0,0,1,0,3.266Z" transform="translate(7.276 83.167)" fill="#1baf92"/>
        <path id="패스_6134" data-name="패스 6134" d="M73.17,421.378a1.631,1.631,0,0,1-1.633-1.633v-3.776a1.633,1.633,0,0,1,3.266,0v3.776A1.634,1.634,0,0,1,73.17,421.378Z" transform="translate(4.949 78.22)" fill="#1baf92"/>
        <path id="패스_6135" data-name="패스 6135" d="M73.17,424.589a1.631,1.631,0,0,1-1.633-1.633V419.18a1.633,1.633,0,1,1,3.266,0v3.776A1.634,1.634,0,0,1,73.17,424.589Z" transform="translate(4.949 85.497)" fill="#1baf92"/>
        <rect id="사각형_2127" data-name="사각형 2127" width="9.483" height="9.485" transform="translate(74.76 391.994) rotate(-44.973)" fill="#f7d979"/>
        <path id="패스_6136" data-name="패스 6136" d="M78.563,396.973a1.234,1.234,0,0,1-.869-.356l-6.7-6.712a1.23,1.23,0,0,1,0-1.734l6.7-6.705a1.268,1.268,0,0,1,1.734,0l6.705,6.705a1.224,1.224,0,0,1,0,1.734l-6.7,6.712A1.234,1.234,0,0,1,78.563,396.973Zm-4.971-7.933,4.971,4.974,4.971-4.974-4.974-4.974Z" transform="translate(2.904 2.957)"/>
        <path id="패스_6137" data-name="패스 6137" d="M268.162,523.635H91.271a7.624,7.624,0,0,1-7.613-7.616V388.21a7.621,7.621,0,0,1,7.613-7.613H268.162a7.621,7.621,0,0,1,7.613,7.613V516.018A7.624,7.624,0,0,1,268.162,523.635ZM91.271,383.863a4.348,4.348,0,0,0-4.347,4.347V516.018a4.35,4.35,0,0,0,4.347,4.35H268.162a4.352,4.352,0,0,0,4.347-4.35V388.21a4.35,4.35,0,0,0-4.347-4.347Z" transform="translate(32.416 1.765)"/>
        <path id="패스_6138" data-name="패스 6138" d="M171.08,455.694H104.06a1.628,1.628,0,0,1-1.555-2.12l9.116-29.039a1.623,1.623,0,0,1,1.555-1.143h49.233a1.634,1.634,0,0,1,1.568,1.169l8.485,28.624a1.662,1.662,0,0,1,.251.875A1.634,1.634,0,0,1,171.08,455.694Zm-64.8-3.266h62.542l-7.636-25.769H114.375Z" transform="translate(74.954 98.742)"/>
        <path id="패스_6139" data-name="패스 6139" d="M191.071,445.026H100.437a1.631,1.631,0,0,1-1.633-1.633v-9.478a1.634,1.634,0,0,1,1.633-1.633h90.634a1.632,1.632,0,0,1,1.633,1.633v9.478A1.629,1.629,0,0,1,191.071,445.026Zm-89-3.266h87.368v-6.212H102.07Z" transform="translate(66.738 118.888)"/>
        <rect id="사각형_2128" data-name="사각형 2128" width="188.852" height="139.772" rx="1.831" transform="translate(107.908 383.994)" fill="#1baf92"/>
        <path id="패스_6140" data-name="패스 6140" d="M265.162,523.635H88.271a7.624,7.624,0,0,1-7.613-7.616V388.21a7.621,7.621,0,0,1,7.613-7.613H265.162a7.621,7.621,0,0,1,7.613,7.613V516.018A7.624,7.624,0,0,1,265.162,523.635ZM88.271,383.863a4.348,4.348,0,0,0-4.347,4.347V516.018a4.35,4.35,0,0,0,4.347,4.35H265.162a4.352,4.352,0,0,0,4.347-4.35V388.21a4.35,4.35,0,0,0-4.347-4.347Z" transform="translate(25.618 1.765)"/>
        <rect id="사각형_2129" data-name="사각형 2129" width="167.929" height="114.931" transform="translate(118.985 394.618)" fill="#fff"/>
        <path id="패스_6141" data-name="패스 6141" d="M255.244,502.046H84.049V383.85H255.244ZM87.315,498.78H251.978V387.116H87.315Z" transform="translate(33.302 9.137)"/>
        <path id="패스_6142" data-name="패스 6142" d="M166.884,452.929H99.929l9.116-29.037h49.234Z" transform="translate(69.288 99.874)" fill="#fff"/>
        <path id="패스_6143" data-name="패스 6143" d="M170.613,455.694H99.249l10.138-32.3H161.04Zm-66.919-3.266h62.542L158.6,426.658H111.784Z" transform="translate(67.747 98.742)"/>
        <rect id="사각형_2130" data-name="사각형 2130" width="90.634" height="9.479" transform="translate(157.378 552.803)" fill="#1baf92"/>
        <path id="패스_6144" data-name="패스 6144" d="M189.7,445.026H95.8V432.282h93.9ZM99.07,441.76h87.368v-6.212H99.07Z" transform="translate(59.94 118.888)"/>
        <circle id="타원_23" data-name="타원 23" cx="54.241" cy="54.241" r="54.241" transform="translate(178.607 404.71)" fill="#e7f7f4" style="mix-blend-mode: multiply;isolation: isolate"/>
        <g id="그룹_27" data-name="그룹 27" transform="translate(259.488 484.545)">
          <path id="패스_6145" data-name="패스 6145" d="M128.275,424.72l42.191,42.188a8.569,8.569,0,0,0,12.12-12.117L140.4,412.59Z" transform="translate(-125.966 -410.281)"/>
          <path id="패스_6146" data-name="패스 6146" d="M178.127,472.655a10.129,10.129,0,0,1-7.215-2.992l-43.344-43.341L142,411.883l43.344,43.354a10.2,10.2,0,0,1-7.215,17.418Zm-45.941-46.333,41.035,41.032a7.094,7.094,0,0,0,9.811,0,6.931,6.931,0,0,0,0-9.8L142,416.5Z" transform="translate(-127.568 -411.883)"/>
        </g>
        <g id="그룹_28" data-name="그룹 28" transform="translate(178.781 403.83)">
          <path id="패스_6147" data-name="패스 6147" d="M181.982,401.154a46.062,46.062,0,1,1-65.139,0A46.064,46.064,0,0,1,181.982,401.154Z" transform="translate(-101.739 -386.039)" fill="#1baf92"/>
          <path id="패스_6148" data-name="패스 6148" d="M150.531,482.556a47.693,47.693,0,1,1,33.726-13.969A47.4,47.4,0,0,1,150.531,482.556Zm0-92.12a44.422,44.422,0,1,0,31.416,13A44.167,44.167,0,0,0,150.531,390.436Z" transform="translate(-102.857 -387.17)"/>
        </g>
        <g id="그룹_29" data-name="그룹 29" transform="translate(187.883 412.926)">
          <path id="패스_6149" data-name="패스 6149" d="M169.236,401.279a36.964,36.964,0,1,1-52.274,0A36.977,36.977,0,0,1,169.236,401.279Z" transform="translate(-104.526 -388.822)" fill="#fff"/>
          <path id="패스_6150" data-name="패스 6150" d="M144.219,467.142a38.59,38.59,0,1,1,27.288-11.3A38.384,38.384,0,0,1,144.219,467.142Zm0-73.921A35.331,35.331,0,1,0,169.2,403.568,35.114,35.114,0,0,0,144.219,393.221Z" transform="translate(-105.644 -389.955)"/>
        </g>
        <rect id="사각형_2131" data-name="사각형 2131" width="3.266" height="12.488" transform="matrix(0.707, -0.707, 0.707, 0.707, 257.87, 485.246)"/>
        <rect id="사각형_2132" data-name="사각형 2132" width="7.897" height="36.948" transform="translate(206.095 430.545)" fill="#ffd66e"/>
        <rect id="사각형_2133" data-name="사각형 2133" width="7.9" height="29.34" transform="translate(218.818 438.152)" fill="#ffd66e"/>
        <rect id="사각형_2134" data-name="사각형 2134" width="7.897" height="19.625" transform="translate(231.981 447.868)" fill="#ffd66e"/>
        <rect id="사각형_2135" data-name="사각형 2135" width="7.901" height="12.375" transform="translate(245.144 455.117)" fill="#ffd66e"/>
        <rect id="사각형_2136" data-name="사각형 2136" width="18.34" height="18.34" transform="translate(140.684 412.709)" fill="#1baf92"/>
        <rect id="사각형_2137" data-name="사각형 2137" width="18.34" height="18.34" transform="translate(140.684 440.965)" fill="#1baf92"/>
        <rect id="사각형_2138" data-name="사각형 2138" width="18.34" height="18.34" transform="translate(140.684 469.222)" fill="#1baf92"/>
      </g>
    </g>
  </g>
</svg>
