<svg xmlns="http://www.w3.org/2000/svg" xmlns:xlink="http://www.w3.org/1999/xlink" width="282" height="40" viewBox="0 0 282 40">
  <defs>
    <clipPath id="clip-path">
      <rect id="사각형_2074" data-name="사각형 2074" width="282" height="40" transform="translate(40 350)" fill="#e2f5ff"/>
    </clipPath>
  </defs>
  <g id="마스크_그룹_1" data-name="마스크 그룹 1" transform="translate(-40 -350)" clip-path="url(#clip-path)">
    <g id="그룹_3268" data-name="그룹 3268" transform="translate(218.118 -127.698)">
      <path id="패스_5938" data-name="패스 5938" d="M-153.213,481.76a1.253,1.253,0,0,0-.916.562l-10.635,13.887L-175.4,482.316a1.19,1.19,0,0,0-.88-.556.857.857,0,0,0-.837.969v29.122a.822.822,0,0,0,.837.9.853.853,0,0,0,.9-.9V485.206l9.69,12.649a1.08,1.08,0,0,0,.924.59.857.857,0,0,0,.744-.344l9.9-12.938v26.687a.822.822,0,0,0,.837.9.853.853,0,0,0,.9-.9V482.729A.857.857,0,0,0-153.213,481.76Z" transform="translate(0 0.063)" fill="#254899" stroke="#254899" stroke-miterlimit="10" stroke-width="0.5"/>
      <path id="패스_5939" data-name="패스 5939" d="M-131.994,511.566l-14.738-29.207a1.072,1.072,0,0,0-.91-.566c-.487,0-.728.483-.807.641l-9.961,19.5h-2.952a.834.834,0,0,0-.9.837.855.855,0,0,0,.9.9h2.065l-4.071,8.014-.049.2v.067a.856.856,0,0,0,.92.888.847.847,0,0,0,.372-.1l.3-.224,4.479-8.849h19.391l4.429,8.635a1.132,1.132,0,0,0,.4.429l.152.109h.186a.86.86,0,0,0,.886-.928l-.063-.267Zm-24.467-9.628,8.863-17.44,8.766,17.44Z" transform="translate(14.005 0.097)" fill="#254899" stroke="#254899" stroke-miterlimit="10" stroke-width="0.5"/>
      <path id="패스_5940" data-name="패스 5940" d="M-143.723,499.7l21.375-16.287a.983.983,0,0,0,.429-.708.857.857,0,0,0-.87-.942h-.1l-.459.2-21.276,16.2V482.666a.841.841,0,0,0-.853-.9.856.856,0,0,0-.886.9v29.181a.839.839,0,0,0,.853.9.844.844,0,0,0,.886-.9V501.187l21.783,11.48.356.065a.8.8,0,0,0,.829-.847v-.156l-.322-.544Z" transform="translate(31.437 0.067)" fill="#254899" stroke="#254899" stroke-miterlimit="10" stroke-width="0.5"/>
      <path id="패스_5941" data-name="패스 5941" d="M-102.67,511.566l-14.74-29.207a1.07,1.07,0,0,0-.91-.566c-.485,0-.728.483-.807.641l-9.961,19.5h-2.95a.836.836,0,0,0-.906.837.855.855,0,0,0,.9.9h2.067l-4.073,8.014-.049.2v.067a.856.856,0,0,0,.922.888.839.839,0,0,0,.37-.1l.3-.224,4.479-8.849h19.391l4.429,8.635a1.123,1.123,0,0,0,.4.429l.15.109h.186a.861.861,0,0,0,.888-.928l-.065-.267Zm-24.469-9.628,8.863-17.44,8.766,17.44Z" transform="translate(43.979 0.097)" fill="#254899" stroke="#254899" stroke-miterlimit="10" stroke-width="0.5"/>
      <g id="그룹_3267" data-name="그룹 3267" transform="translate(-57.272 481.698)">
        <path id="패스_5942" data-name="패스 5942" d="M-89.014,501.9h-17.308a.839.839,0,0,0-.9.851.846.846,0,0,0,.9.886H-90.24a14.322,14.322,0,0,1-4.716,5.3,13.061,13.061,0,0,1-7.32,2.144,13.431,13.431,0,0,1-5.223-1.072A14.12,14.12,0,0,1-112,506.986a13.983,13.983,0,0,1-3.037-4.505,13.358,13.358,0,0,1-1.072-5.219,13.724,13.724,0,0,1,1.359-5.921,13.9,13.9,0,0,1,3.729-4.821,13.364,13.364,0,0,1,8.75-3.082,13.582,13.582,0,0,1,4.073.582,16.5,16.5,0,0,1,4.594,2.633l.362.206h.154c.473,0,.8-.344.77-.936v-.158l-.083-.136a1.586,1.586,0,0,0-.229-.311l-.129-.172-.036-.036a12.278,12.278,0,0,0-4.158-2.485,15.157,15.157,0,0,0-5.318-.926,15.664,15.664,0,0,0-5.976,1.161,15.1,15.1,0,0,0-5.025,3.363,15.765,15.765,0,0,0-3.381,5.082,15.49,15.49,0,0,0-1.2,5.958,15.016,15.016,0,0,0,4.609,10.954,15.776,15.776,0,0,0,5.072,3.411,15.184,15.184,0,0,0,5.9,1.2,14.512,14.512,0,0,0,11.767-5.678,18.253,18.253,0,0,0,1.561-2.241,4.789,4.789,0,0,0,.9-2.131A.871.871,0,0,0-89.014,501.9Z" transform="translate(117.853 -481.698)" fill="#48ad3e" stroke="#48ad3e" stroke-miterlimit="10" stroke-width="0.5"/>
        <path id="패스_5943" data-name="패스 5943" d="M-81.264,510.89h-18.61v-28.2a.831.831,0,0,0-.853-.9.855.855,0,0,0-.886.9v28.768a1.107,1.107,0,0,0,1.2,1.165h19.152a.863.863,0,0,0,.9-.9A.833.833,0,0,0-81.264,510.89Z" transform="translate(134.453 -481.602)" fill="#48ad3e" stroke="#48ad3e" stroke-miterlimit="10" stroke-width="0.5"/>
        <path id="패스_5944" data-name="패스 5944" d="M-70.377,482.859a15.755,15.755,0,0,0-6.01-1.161,15.6,15.6,0,0,0-6.01,1.163,15.271,15.271,0,0,0-4.989,3.345,15.5,15.5,0,0,0-3.385,5.084,15.625,15.625,0,0,0-1.193,5.972,15.355,15.355,0,0,0,1.2,5.939,15.689,15.689,0,0,0,3.416,5.082,15.417,15.417,0,0,0,5.058,3.381,15.532,15.532,0,0,0,5.909,1.159,15.484,15.484,0,0,0,6.663-1.5,15.531,15.531,0,0,0,5.4-4.194,15.116,15.116,0,0,0,3.523-9.864,15.107,15.107,0,0,0-4.546-11.055A15.228,15.228,0,0,0-70.377,482.859Zm7.83,14.418a13.723,13.723,0,0,1-1.043,5.31,13.643,13.643,0,0,1-3.019,4.461,14.082,14.082,0,0,1-4.477,2.995,13.647,13.647,0,0,1-5.282,1.042,13.584,13.584,0,0,1-5.28-1.076A13.967,13.967,0,0,1-86.16,507a13.805,13.805,0,0,1-3.007-4.463,13.491,13.491,0,0,1-1.058-5.258,13.617,13.617,0,0,1,1.359-5.925,13.988,13.988,0,0,1,3.733-4.793,13.908,13.908,0,0,1,4.1-2.336,13.791,13.791,0,0,1,4.667-.787,13.421,13.421,0,0,1,9.808,4,13.474,13.474,0,0,1,3,4.471A14.177,14.177,0,0,1-62.547,497.277Z" transform="translate(144.317 -481.698)" fill="#48ad3e" stroke="#48ad3e" stroke-miterlimit="10" stroke-width="0.5"/>
        <path id="패스_5945" data-name="패스 5945" d="M-55.387,490.644a8.217,8.217,0,0,0-2.692-6.415,10.624,10.624,0,0,0-7.326-2.384h-6.317c-1.141,0-1.2.779-1.2.934v14.333h-2.52a.834.834,0,0,0-.9.837.853.853,0,0,0,.9.9h2.52v12.558a1.107,1.107,0,0,0,1.2,1.165H-66.1c2.876,0,5.1-.7,6.623-2.073a7.557,7.557,0,0,0,2.309-5.87,7.805,7.805,0,0,0-1.248-4.415,6.807,6.807,0,0,0-2.127-2.046,7.969,7.969,0,0,0,3.365-2.461A7.908,7.908,0,0,0-55.387,490.644Zm-5.041,9.777a5.786,5.786,0,0,1,1.527,4.241,6.487,6.487,0,0,1-.77,3.223,5.493,5.493,0,0,1-2.172,2.131,6.015,6.015,0,0,1-2.022.643,22.156,22.156,0,0,1-3.062.176h-4.255V498.85h6.4A5.8,5.8,0,0,1-60.428,500.421Zm.516-4.53a6.718,6.718,0,0,1-2.012.928,14.249,14.249,0,0,1-3.387.293h-5.87V483.582h6.17a8.165,8.165,0,0,1,5.757,1.992,6.566,6.566,0,0,1,2.129,5.086,6.233,6.233,0,0,1-.758,2.963A6.14,6.14,0,0,1-59.913,495.891Z" transform="translate(160.285 -481.548)" fill="#48ad3e" stroke="#48ad3e" stroke-miterlimit="10" stroke-width="0.5"/>
        <path id="패스_5946" data-name="패스 5946" d="M-49.146,482.358a1.067,1.067,0,0,0-.908-.566c-.491,0-.732.485-.807.641l-9.963,19.5h-2.952a.834.834,0,0,0-.9.837.853.853,0,0,0,.9.9h2.067l-4.075,8.018-.047.2v.065a.856.856,0,0,0,.922.888.868.868,0,0,0,.37-.1l.3-.225,4.479-8.849h19.391l4.425,8.625a1.111,1.111,0,0,0,.411.441l.15.107h.184a.86.86,0,0,0,.886-.928l-.093-.356Zm-9.729,19.579,8.865-17.44,8.764,17.44Z" transform="translate(171.031 -481.602)" fill="#48ad3e" stroke="#48ad3e" stroke-miterlimit="10" stroke-width="0.5"/>
        <path id="패스_5947" data-name="패스 5947" d="M-28.428,510.89h-18.61v-28.2a.832.832,0,0,0-.853-.9.855.855,0,0,0-.886.9v28.768a1.107,1.107,0,0,0,1.2,1.165h19.152a.863.863,0,0,0,.9-.9A.833.833,0,0,0-28.428,510.89Z" transform="translate(188.462 -481.602)" fill="#48ad3e" stroke="#48ad3e" stroke-miterlimit="10" stroke-width="0.5"/>
      </g>
    </g>
  </g>
</svg>
